<svg id="Capa_1" data-name="Capa 1" xmlns="http://www.w3.org/2000/svg" viewBox="0 0 1306 297"><defs><style>.cls-1,.cls-12{fill:#002333;}.cls-2{fill:#00f1ff;}.cls-3{fill:#685a00;}.cls-4{fill:#1d1d1b;}.cls-5{fill:#003a5b;}.cls-6{fill:#ffc400;}.cls-7{fill:#ffeb83;}.cls-8{fill:#ffeb00;}.cls-17,.cls-9{fill:none;}.cls-10{fill:#ffe572;}.cls-11{fill:#ff559f;}.cls-12{stroke:#002333;stroke-linecap:round;stroke-linejoin:round;stroke-width:0.5px;}.cls-13{fill:#00ff7a;}.cls-14{fill:#00a4ff;}.cls-15{fill:#00ff7e;}.cls-16,.cls-18{fill:#cdcdcd;}.cls-17{stroke:#00ff7e;}.cls-17,.cls-18{stroke-miterlimit:10;stroke-width:6px;}.cls-18{stroke:#cdcdcd;}</style></defs><title>roadMap</title><path class="cls-1" d="M538.43,134.45s7.23,1.47,9.11,1.67,9.64,1,11.52.87,3-1,4.49-1.07a11.5,11.5,0,0,0,4.22-1.14c1.07-.53,4.69-2.48,4.69-2.48a8.35,8.35,0,0,0,0,1.95c.13.73.47,1.13-.87,1.54s-2.28.67-4.16,1.2-3.08,1.07-4.75,1.61-1.21.74-4.16.94-2.81.67-6.36.2-5.22.07-7.37-.47-6.23-1.34-6.43-1.41-.47,0-.47-.33S538.43,134.45,538.43,134.45Z" transform="translate(0 -14)"/><path class="cls-2" d="M546.33,145.7a4.18,4.18,0,0,1,.07-1.27,3.31,3.31,0,0,1,.33-1.07h-.06a4.3,4.3,0,0,0,.33,5.09v-.14A9.65,9.65,0,0,1,546.33,145.7Z" transform="translate(0 -14)"/><path class="cls-2" d="M546.53,143.36h0c-.93.53-.87,1.74-.87,2.61a6,6,0,0,0,.34,1.54,3.26,3.26,0,0,0,.87,1.07A4.54,4.54,0,0,1,546.53,143.36Z" transform="translate(0 -14)"/><path class="cls-2" d="M546.8,143.49h0l-.2.4c-.07.2-.07.4-.13.6a3.92,3.92,0,0,0,0,1.28,8.41,8.41,0,0,0,.53,2.28V148l-.06-.07v-.13a8.42,8.42,0,0,1-.14-4.29c-.07-.07-.07,0,0,0a12,12,0,0,0-.07,2.14,5.41,5.41,0,0,0,.21,1.54c0-.53.06-1.07.06-1.6S546.87,144.16,546.8,143.49Z" transform="translate(0 -14)"/><path class="cls-2" d="M545.6,145.9c-.07-.94-.07-2.07.8-2.61-.6.13-.8.74-.94,1.27a5.29,5.29,0,0,0-.07,1.74,2.81,2.81,0,0,0,1,1.95A4.06,4.06,0,0,1,545.6,145.9Z" transform="translate(0 -14)"/><path class="cls-3" d="M547.07,139.54a38.21,38.21,0,0,0-.13-5.56c-.14-.94-.27-1.88-.47-2.82-.14-.46-.27-.93-.41-1.33a3.12,3.12,0,0,0-.26-.74,1.42,1.42,0,0,0-.34-.6v-.07h0a12.44,12.44,0,0,0-.13,1.67v1.61c0,1.94,0,3.82.13,5.76.07.74.14,1.48.2,2.28a1.44,1.44,0,0,1,.87-.34C546.67,139.47,546.94,139.47,547.07,139.54Z" transform="translate(0 -14)"/><path class="cls-2" d="M546.87,143.62a6.28,6.28,0,0,1,.2,1.95c0,.73-.13,1.4-.07,2.14h0c0-.74.34-1.47.34-2.21A2.8,2.8,0,0,0,546.87,143.62Z" transform="translate(0 -14)"/><path class="cls-3" d="M547.07,139.74h0c-.07-.14-.34-.07-.4-.07a.6.6,0,0,0-.34.07,1.31,1.31,0,0,0-.6.33h0a15.71,15.71,0,0,0,.74,3.15h.06a.25.25,0,0,0,.2.07h.14a26.88,26.88,0,0,0,.2-3.28Z" transform="translate(0 -14)"/><path class="cls-2" d="M546.8,143.29h0a2.76,2.76,0,0,1,.74,2,8.07,8.07,0,0,1-.27,1.74,4.84,4.84,0,0,0,.4-1.07,2.12,2.12,0,0,0-.87-2.68Z" transform="translate(0 -14)"/><path class="cls-4" d="M546.87,143.22a10.43,10.43,0,0,0,.27-2.88c0-1,.06-2,0-3.08a24.71,24.71,0,0,0-.61-5.89,11.79,11.79,0,0,0-.47-1.61c-.06-.27-.2-.47-.26-.74a1.4,1.4,0,0,0-.27-.53c-.07-.07-.07,0-.14.06s-.06-.06-.06,0a4,4,0,0,0-.2,1.28v1.47c0,1,0,2.08.06,3.08a40.6,40.6,0,0,0,.34,5.76,15.21,15.21,0,0,0,.74,3.08,1.54,1.54,0,0,0-.94,1.07,5.11,5.11,0,0,0-.2,2,3.13,3.13,0,0,0,1.87,2.62c.07,0,.14-.07.07-.14a2.34,2.34,0,0,1,.33-1.74,5.75,5.75,0,0,0,.54-1.54c.13-.87-.2-2.08-1.07-2.28Zm-1.41-5.69c-.13-1.94-.07-3.82-.13-5.76v-1.61a13.27,13.27,0,0,1,.13-1.67h0v.06a4.76,4.76,0,0,1,.34.61c.06.2.2.46.26.73.14.47.27.94.41,1.34a21.27,21.27,0,0,1,.47,2.82,37.88,37.88,0,0,1,.13,5.55c-.13-.13-.47-.06-.6-.06a1.38,1.38,0,0,0-.87.33C545.53,139.07,545.46,138.33,545.46,137.53Zm-.07,8.77a7.81,7.81,0,0,1,.07-1.74c.14-.53.34-1.14.94-1.27-.87.47-.87,1.67-.8,2.61a4.23,4.23,0,0,0,.8,2.35A2.81,2.81,0,0,1,545.39,146.3Zm.67,1.21a4,4,0,0,1-.33-1.54c-.07-.94-.07-2.14.8-2.61h0a4.23,4.23,0,0,0,.41,5.22A2.32,2.32,0,0,1,546.06,147.51Zm.88.94a4.08,4.08,0,0,1-1-2.48,4.44,4.44,0,0,1,.67-2.61h.07a2.86,2.86,0,0,0-.34,1.07,9,9,0,0,0-.06,1.27,8,8,0,0,0,.67,2.61Zm-.07-1.21a6.15,6.15,0,0,1-.2-1.54,11.76,11.76,0,0,1,.06-2.14s-.06-.07-.06,0a10.49,10.49,0,0,0,.2,4.35v.14a.06.06,0,0,0,.07.06v.07a8.72,8.72,0,0,1-.54-2.28,3.86,3.86,0,0,1,0-1.27,2.15,2.15,0,0,1,.13-.6,1.26,1.26,0,0,0,.14-.47.06.06,0,0,0,.06.06,7.85,7.85,0,0,1,.21,2.15A5.83,5.83,0,0,1,546.87,147.24Zm.13.47c-.06-.74.07-1.41.07-2.14a6.47,6.47,0,0,0-.2-1.95,3.67,3.67,0,0,1,.53,1.88c0,.74-.33,1.47-.4,2.21Zm.74-1.67c-.13.33-.27.67-.4,1.07a7.53,7.53,0,0,0,.27-1.74,3.07,3.07,0,0,0-.74-2h0C547.81,143.69,548,145.1,547.74,146Zm-.87-2.88h-.14a.25.25,0,0,1-.2-.07h-.06a16,16,0,0,1-.74-3.15h0a3,3,0,0,1,.6-.34c.14,0,.2-.06.34-.06a1,1,0,0,1,.4.06h0v.21A27.43,27.43,0,0,1,546.87,143.16Z" transform="translate(0 -14)"/><path d="M544.93,137.19s1.67,2.08,3.08.87-.14-.46-.14-.46-2.27-.27-2.74-1S544.59,137.06,544.93,137.19Z" transform="translate(0 -14)"/><path class="cls-5" d="M544.86,137.46s1.67,2.08,3.08.87-.13-.47-.13-.47-2.28-.26-2.75-1S544.52,137.39,544.86,137.46Z" transform="translate(0 -14)"/><path class="cls-6" d="M551.36,146a4.44,4.44,0,0,1,.2-1.34,1.92,1.92,0,0,1,.47-1H552a4.42,4.42,0,0,0-.94,2.62,4.84,4.84,0,0,0,.81,2.68v-.14A9.79,9.79,0,0,1,551.36,146Z" transform="translate(0 -14)"/><path class="cls-6" d="M551.83,143.62h0c-1,.41-1.14,1.61-1.14,2.62a4.22,4.22,0,0,0,.2,1.6,3.93,3.93,0,0,0,.8,1.21A4.51,4.51,0,0,1,551.83,143.62Z" transform="translate(0 -14)"/><path class="cls-6" d="M552.09,143.76s0-.07-.06-.07-.14.34-.2.47l-.21.6a4.26,4.26,0,0,0-.13,1.28,10,10,0,0,0,.34,2.47v-.26a10,10,0,0,1,.2-4.49h.06a12.69,12.69,0,0,0-.26,2.21,16.2,16.2,0,0,0,.06,1.67c.07-.53.2-1.07.27-1.6C552.16,145.3,552.09,144.56,552.09,143.76Z" transform="translate(0 -14)"/><path class="cls-6" d="M550.55,146.1c0-.94.14-2.21,1.14-2.54-.67.06-.94.6-1.14,1.2a5.72,5.72,0,0,0-.27,1.81,3.06,3.06,0,0,0,.88,2.14A5.29,5.29,0,0,1,550.55,146.1Z" transform="translate(0 -14)"/><path class="cls-3" d="M552.76,139.74a54.6,54.6,0,0,0,.4-5.76,21.88,21.88,0,0,0-.2-3,10.79,10.79,0,0,0-.26-1.47l-.2-.8a3.13,3.13,0,0,0-.27-.67V128h0a14.55,14.55,0,0,0-.34,1.67c-.06.54-.06,1.14-.13,1.68-.14,2-.34,4-.47,6,0,.8-.07,1.61,0,2.34a1.57,1.57,0,0,1,.94-.2C552.29,139.6,552.63,139.6,552.76,139.74Z" transform="translate(0 -14)"/><path class="cls-6" d="M552.16,144a7.22,7.22,0,0,1,.07,2c-.07.74-.27,1.47-.27,2.21h0c.07-.74.54-1.41.6-2.21A3.55,3.55,0,0,0,552.16,144Z" transform="translate(0 -14)"/><path class="cls-3" d="M552.76,139.94h0c-.06-.13-.33-.13-.47-.2H552a1.14,1.14,0,0,0-.67.27h0a18.52,18.52,0,0,0,.47,3.35h0s.07,0,.07.06a.23.23,0,0,0,.2.07h.13a27.54,27.54,0,0,0,.54-3.35C552.7,140.07,552.76,140,552.76,139.94Z" transform="translate(0 -14)"/><path class="cls-6" d="M552.09,143.62h0a3.42,3.42,0,0,1,.61,2.21,8.74,8.74,0,0,1-.47,1.75,7,7,0,0,0,.53-1c.4-.94.34-2.41-.67-2.95Z" transform="translate(0 -14)"/><path class="cls-4" d="M552.23,143.49a14.43,14.43,0,0,0,.6-3c.13-1.07.27-2.07.33-3.15a27.05,27.05,0,0,0-.06-6.23,15.7,15.7,0,0,0-.34-1.74l-.2-.8a2,2,0,0,0-.27-.6c-.06-.07-.13,0-.13.06s-.07-.06-.07,0a4.54,4.54,0,0,0-.33,1.34,10.61,10.61,0,0,0-.14,1.54c-.06,1.08-.2,2.15-.26,3.22a43.41,43.41,0,0,0-.2,6,13.3,13.3,0,0,0,.53,3.28,1.4,1.4,0,0,0-1.07.94,5.16,5.16,0,0,0-.4,2.07,3.19,3.19,0,0,0,1.74,2.95.14.14,0,0,0,.13-.13,2.55,2.55,0,0,1,.47-1.74,4,4,0,0,0,.67-1.54c.07-.81-.13-2.15-1-2.55Zm-1-6c.07-2,.27-4,.47-6,.07-.54.07-1.14.14-1.67a11.9,11.9,0,0,1,.33-1.68h0v.07a3.13,3.13,0,0,1,.27.67l.2.8a13,13,0,0,1,.27,1.47,23.56,23.56,0,0,1,.2,3,42.89,42.89,0,0,1-.4,5.76c-.14-.13-.47-.13-.61-.2a2.15,2.15,0,0,0-.93.2C551.22,139,551.22,138.2,551.22,137.46Zm-.87,9a5.62,5.62,0,0,1,.27-1.8c.2-.54.47-1.14,1.14-1.21-.94.4-1.07,1.61-1.14,2.55a4.39,4.39,0,0,0,.6,2.54A2.6,2.6,0,0,1,550.35,146.5Zm.54,1.34a4.4,4.4,0,0,1-.2-1.6c0-.94.13-2.21,1.14-2.62h0a4.43,4.43,0,0,0-.07,5.5A3.39,3.39,0,0,1,550.89,147.84Zm.87,1.08a4.84,4.84,0,0,1-.81-2.68,4.49,4.49,0,0,1,.94-2.62H552a4.46,4.46,0,0,0-.47,1,8.78,8.78,0,0,0-.2,1.34,13.6,13.6,0,0,0,.4,2.81C551.76,148.85,551.76,148.85,551.76,148.92Zm.07-1.28a12.78,12.78,0,0,1-.07-1.67,11.81,11.81,0,0,1,.27-2.21c0-.07-.07-.07-.07,0a9.2,9.2,0,0,0-.2,4.49v.26a10,10,0,0,1-.34-2.47,7.16,7.16,0,0,1,.14-1.28l.2-.6c.07-.13.13-.33.2-.47a.07.07,0,0,0,.07.07,9.15,9.15,0,0,1,0,2.28A14.57,14.57,0,0,1,551.83,147.64Zm.06.54c0-.74.2-1.47.27-2.21a6.46,6.46,0,0,0-.07-2,3.41,3.41,0,0,1,.34,2,11.51,11.51,0,0,1-.54,2.21Zm.87-1.61a7,7,0,0,1-.53,1,7.64,7.64,0,0,0,.47-1.75,3.42,3.42,0,0,0-.61-2.21h0C553.1,144.16,553.16,145.63,552.76,146.57Zm-.6-3.08H552a.23.23,0,0,1-.2-.07l-.07-.06h0a19.3,19.3,0,0,1-.47-3.35h0a2.69,2.69,0,0,1,.67-.27h.33c.07,0,.41.07.41.13h0v.2A28.7,28.7,0,0,1,552.16,143.49Z" transform="translate(0 -14)"/><path d="M550.42,137.93s2.08,1.54,3,.07-.2-.4-.2-.4-2.21.33-2.81-.27S550.15,137.86,550.42,137.93Z" transform="translate(0 -14)"/><path class="cls-5" d="M550.35,138.27s2.08,1.54,3,.06-.21-.4-.21-.4-2.21.34-2.81-.27S550.15,138.27,550.35,138.27Z" transform="translate(0 -14)"/><path class="cls-7" d="M557.12,145.7c-.07,0-.07.07-.07.13H557c-.06-.13-.13-.2-.26-.13s-.07.13-.14.2h0V146h0c0,.07-.07,0-.07,0v-.07h0l-.06-.07a.07.07,0,0,0-.07.07h0a8.86,8.86,0,0,1,.4,1.27v.14h.27c.07,0,.13,0,.13.07v-.21a2.31,2.31,0,0,1,.14-.73,1.08,1.08,0,0,1,.07-.47C557.25,145.7,557.18,145.7,557.12,145.7Z" transform="translate(0 -14)"/><path class="cls-8" d="M556.92,140.61c0,.87.06,1.74.06,2.61a7.73,7.73,0,0,0,.07,1.27,7,7,0,0,1,0,1.21l.07-.07c.06,0,.13,0,.13.07-.07-.94-.07-1.87-.13-2.81q-.11-5.13-.2-10.25h-.2v3C556.85,137.19,556.85,138.87,556.92,140.61Z" transform="translate(0 -14)"/><path class="cls-9" d="M557,147.78Z" transform="translate(0 -14)"/><path class="cls-8" d="M556.51,145.63c.07-.06.14-.13.21-.13s.2,0,.26.07c0-.41-.06-.81-.06-1.21a10.34,10.34,0,0,0-.07-1.47c-.07-3.49-.13-6.9-.2-10.39h0a1.29,1.29,0,0,0-.54.07h0c.07.94.07,1.94.14,2.88C556.38,138.87,556.51,142.28,556.51,145.63Z" transform="translate(0 -14)"/><path class="cls-10" d="M556.78,131.57a1.29,1.29,0,0,0-.47.06,1.12,1.12,0,0,0-.47.07c-.2.07-.4.27-.2.4a.85.85,0,0,1,.54-.13h.47c.13,0,.27,0,.33.07C557.12,131.83,557.05,131.57,556.78,131.57Z" transform="translate(0 -14)"/><path class="cls-10" d="M556.85,132a1.27,1.27,0,0,0-.47.06c-.13,0-.54.07-.67.07s-.13.33,0,.54a.86.86,0,0,1,.54-.21h.47a.57.57,0,0,1,.33.07C557.12,132.3,557.05,132,556.85,132Z" transform="translate(0 -14)"/><path class="cls-11" d="M556.25,131.5c.2,0,.47-.13.67,0,0-.13-.07-.27-.07-.4a.79.79,0,0,0-.07-.4c-.06-.27-.53-.27-.73-.27a.65.65,0,0,0-.34.13c-.07.07-.2.14-.13.27s0,.07.06.13a2,2,0,0,1,.07.67A.75.75,0,0,1,556.25,131.5Z" transform="translate(0 -14)"/><path class="cls-8" d="M556.05,140.74c.06,1.68.13,3.35.2,5,.06,0,.06-.07.13-.07s.07,0,.13.07c0-.94-.06-1.87-.06-2.81-.07-3.42-.2-6.84-.34-10.25a.61.61,0,0,0-.27.13c.07.94.07,1.95.14,2.88C555.91,137.33,556,139,556.05,140.74Z" transform="translate(0 -14)"/><path d="M557,131.5h0v-.6a1,1,0,0,0-.06-.41.78.78,0,0,0-.74-.2.93.93,0,0,0-.67.34c-.07.13,0,.27.07.4a1.26,1.26,0,0,1,0,.67h0l-.07.07c-.07.13-.07.33.07.4h0a.32.32,0,0,0,.06.47h0c.14,3.41.27,6.83.41,10.25.06,1,.06,1.94.13,2.94v.07a8.86,8.86,0,0,1,.4,1.27c.14.47.2.94.34,1.34,0,.07.06.07.06,0,.07-.46.14-.93.2-1.4,0-.2.07-.47.07-.67a2.19,2.19,0,0,1,.07-.67h0c0-.87-.07-1.74-.07-2.61s-.07-1.68-.07-2.55c-.06-1.67-.06-3.42-.06-5.09v-3h0v-.07a1.56,1.56,0,0,0-1.34.07v-.07c-.14,0-.14-.2-.07-.33a.24.24,0,0,1,.2-.07c.14,0,.34-.06.47-.06h.4a.27.27,0,0,1,.27.13c.07.07,0,.2,0,.27s0,.06.07.06a.25.25,0,0,0,0-.4A.52.52,0,0,0,557,131.5Zm0,16.28Zm.2-1.54c-.06.26-.06.53-.13.73v.2a.22.22,0,0,0-.13-.06h-.27V147a10.34,10.34,0,0,0-.4-1.27h0l.06-.07a.07.07,0,0,1,.07.07h0v.07s.07.06.07,0h0v-.07h0c0-.07.06-.13.13-.2s.2.07.27.13h.07c.06-.06,0-.13.06-.13s.14,0,.14.07A3.37,3.37,0,0,1,557.18,146.24Zm-.4-13.67h.2c0,3.42.07,6.83.2,10.25,0,.94.07,1.88.14,2.81-.07-.06-.07-.06-.14-.06a.06.06,0,0,0-.06.06v-1.2a7.73,7.73,0,0,0-.07-1.27c0-.88-.07-1.75-.07-2.62-.06-1.67-.06-3.41-.06-5.09a19.84,19.84,0,0,1-.14-2.88Zm-.67,0a1.6,1.6,0,0,1,.54-.07h0c0,3.49.07,6.9.2,10.39a10.34,10.34,0,0,0,.07,1.47,8.24,8.24,0,0,0,.06,1.21c-.06-.07-.13-.14-.26-.07s-.14.07-.21.13c0-3.35-.13-6.76-.26-10.11,0-1-.07-1.94-.14-3Zm-.33.14c.06-.07.2-.07.27-.14.13,3.42.26,6.83.33,10.25,0,.94.07,1.88.07,2.81-.07,0-.07-.06-.14-.06a.22.22,0,0,0-.13.06c-.07-1.67-.13-3.35-.2-4.95s-.14-3.42-.2-5.09C555.84,134.65,555.78,133.64,555.78,132.71Zm-.14-1.88a.36.36,0,0,1,.14-.27c.06-.07.2-.07.33-.13s.67-.07.74.27c.07.13,0,.26.07.4a.93.93,0,0,0,.06.4,2.15,2.15,0,0,0-.67,0,.72.72,0,0,0-.53.13,2.42,2.42,0,0,0-.07-.67A.19.19,0,0,1,555.64,130.83Zm1.41,1.21a.48.48,0,0,0-.33-.07h-.47a.75.75,0,0,0-.54.13c-.2-.2,0-.4.2-.4a1.12,1.12,0,0,1,.47-.07c.13,0,.34-.06.47-.06S557.12,131.83,557.05,132Z" transform="translate(0 -14)"/><path d="M555.11,138.33s2.07,1.54,3,.07-.2-.4-.2-.4-2.21.33-2.81-.27S554.84,138.27,555.11,138.33Z" transform="translate(0 -14)"/><path class="cls-5" d="M555,138.67s2.08,1.54,3,.06-.2-.4-.2-.4-2.21.34-2.81-.27S554.84,138.67,555,138.67Z" transform="translate(0 -14)"/><path class="cls-1" d="M557.25,80.86c-3.08,0-6-2.81-6.09-3-.34-.33-.07-1.07.2-1.4s.6-.2.93.13h0c.07.07,3.76,4.22,7,1.74a.79.79,0,0,1,1.14.14.93.93,0,0,1-.14,1.2A4.3,4.3,0,0,1,557.25,80.86Z" transform="translate(0 -14)"/><path class="cls-12" d="M565.83,114.22a2.57,2.57,0,0,0-3.76-1.54,2.64,2.64,0,0,0-1.27,1.67v.07A4.38,4.38,0,0,0,561,117a2.46,2.46,0,0,0,3.55,1.14,3.44,3.44,0,0,0,1.28-4Zm-4.09,1.47c.13.54.33,1.07.94,1.07h0c-.47.61-1.21-.13-1.41-.67s-.27-1.6.27-2h0v.74A3.59,3.59,0,0,0,561.74,115.69Zm3,1.88a2.15,2.15,0,0,1-3.21-.34,1.69,1.69,0,0,0,2.34-1.47,2,2,0,0,0-.87-2.08,1.31,1.31,0,0,0-1.4,0c.13-.13.26-.33.4-.47a2.13,2.13,0,0,1,2.07-.4,2.28,2.28,0,0,1,1.41,1.61A3.18,3.18,0,0,1,564.75,117.57Z" transform="translate(0 -14)"/><path class="cls-12" d="M566.09,118.71c-.06-.07-.13-.14-.13-.21a3.94,3.94,0,0,0,.74-1.34,5.26,5.26,0,0,0,0-3.48,4.17,4.17,0,0,0-1.88-2.34,3.14,3.14,0,0,0-2.68-.14c-.33.14-.6.27-.87.41a1.38,1.38,0,0,0-.27-.41c.27-.13.47-.26.74-.4a3.77,3.77,0,0,1,5,2.48A5.61,5.61,0,0,1,566.09,118.71ZM560,117.3a4.51,4.51,0,0,1,2.21-5.9c1.87-.73,3.62.54,4.22,2.42a4.56,4.56,0,0,1-1.88,5.56C562.74,120.25,560.8,119,560,117.3Zm7.43-2.08a5.52,5.52,0,0,0-1.94-4.15h0a7.68,7.68,0,0,0-.8-.67c.93-.2,1.87-.34,2.81-.6.07.4.07.8.13.93.14.74.2,1.41.34,2.15.2,1.27.4,2.61.6,3.88a2.79,2.79,0,0,1,.07.34,1.11,1.11,0,0,1-.87.53l-.74.2A8.76,8.76,0,0,0,567.43,115.22Zm-1.47-7.9a.57.57,0,0,0,.07.33c0,.14.13.34.06.4s-.2.14-.33.14h0a4,4,0,0,1-.07-.94h.14C565.76,107.25,566,107.25,566,107.32Zm-.54,0c.07.33,0,.6.07.94-.13,0-.27.06-.4.06a4.27,4.27,0,0,1-.14-.94C565.16,107.38,565.29,107.32,565.42,107.32Zm-1.87,1.34a.79.79,0,0,0-.07-.4,1.08,1.08,0,0,0-.07-.47c.14,0,.27-.07.41-.07s.06.33.06.47.07.33.07.47A.41.41,0,0,0,563.55,108.66Zm.47-.54a1.39,1.39,0,0,1-.07-.53c.13,0,.27-.07.4-.07s.07.33.07.47.07.33.07.47-.27.06-.41.06A1,1,0,0,0,564,108.12Zm.6-.07a1.39,1.39,0,0,1-.07-.53c.14,0,.2-.07.34-.07.06.34.06.6.13.94-.13,0-.2.07-.33.07S564.62,108.19,564.62,108.05Zm-1.68-.13c0-.13.21-.13.34-.2a1.08,1.08,0,0,1,.07.47c0,.13.06.27,0,.4s-.27,0-.27-.07-.07-.2-.07-.33S562.94,108.05,562.94,107.92Zm.47,1h.07a16,16,0,0,0,2.28-.47h.13c0,.2.07.4.07.53s-.2.07-.34.07l-2.07.4A1.49,1.49,0,0,1,563.41,108.93Zm1.68.46a6.66,6.66,0,0,1,2-.33c.13,0,.2.2.27.4-1,.27-2.08.47-3.15.67a3.44,3.44,0,0,0-1.14-.4A17.17,17.17,0,0,0,565.09,109.39Zm-7.64,1.21c-.06,0-.2.07-.27.07h-.13c-.33.06-.6.13-.94.2l-.27.07a3.61,3.61,0,0,1-.8.13c0-.2-.07-.47-.27-.54a1.34,1.34,0,0,0-.73.07l-.81.2c-.2.14-.13.4-.13.6h-.2v-.06a2.19,2.19,0,0,1-.07-.67c.07,0,.07-.07.13-.14s.07-.4.07-.6,0-.47-.13-.6a.63.63,0,0,0-.47-.14c-.87.07-1.68.34-2.55.47-.2.07-.47.07-.6.27a.72.72,0,0,0,0,.54c.07.2.07.4.2.53s.13.07.2.14.07.47.14.67l-.61.2c-.87.26-.53,1.14-.47,1.87a1.28,1.28,0,0,0,.34,2.35c.27,1.6.53,3.28.8,4.89.14.93.47,1.67,1.54,1.54a30.54,30.54,0,0,0,3.35-.67c1.88-.47,3.82-.94,5.7-1.48h0a5.91,5.91,0,0,0,3.88-.4h.07a4.12,4.12,0,0,0,1.67-1.14h.07c.74-.2,1.54-.4,2.28-.67.47-.13.53-.6.47-1,0-.67-.2-1.41-.27-2.08-.14-.87-.27-1.74-.4-2.61-.07-.27-.07-.47-.14-.74a1.26,1.26,0,0,0,.54-1.14,1.22,1.22,0,0,0-.87-1.13c-.07-.34-.14-.74-.4-.88a.82.82,0,0,0-.67,0c-.14,0-.34.07-.47.07,0-.2-.07-.4-.07-.6.07,0,.07-.07.13-.07.14-.2.07-.4.07-.6a.84.84,0,0,0-.13-.54.67.67,0,0,0-.47-.13,13.58,13.58,0,0,0-2.35.47c-.2.06-.47.06-.53.27a.7.7,0,0,0,0,.53c.06.14.06.4.2.54s.13.06.2.13a2.15,2.15,0,0,0,.13.6l-.93.21h-.74l-.27.06a6.73,6.73,0,0,0-1.27.34h-.07c-.6.13-1.2.2-1.81.33l-.27.07c-.06,0-.2,0-.26.07Zm-4.15.4a2.36,2.36,0,0,1,.53-.13,1.12,1.12,0,0,1,.47-.07c.27,0,.34.07.34.34-.47.06-1,.2-1.48.26C553.23,111.27,553.16,111.07,553.3,111Zm-.67-1.34a.6.6,0,0,0,.07.34c0,.13.13.33.06.47s-.26.13-.33.13h0c0-.2-.07-.33-.07-.54a1.06,1.06,0,0,0-.07-.46h.14S552.63,109.53,552.63,109.66Zm-.54-.06c.07.2,0,.33.07.53s.07.34.07.47-.27.07-.4.07a5,5,0,0,0-.14-1A.91.91,0,0,0,552.09,109.6ZM550,111.07h0c-.07-.34-.07-.67-.13-1h0a.27.27,0,0,0,.2-.06,5.9,5.9,0,0,1,.2,1A.39.39,0,0,1,550,111.07Zm.2-1.07c.13,0,.27-.07.4-.07,0,.2.07.4.07.6s.07.34.07.47-.2.07-.27.07A5.4,5.4,0,0,0,550.15,110Zm.6.6c0-.27-.06-.47-.06-.74.13,0,.26-.06.33-.06a1.22,1.22,0,0,0,.07.53c0,.14.07.34.07.47a2.79,2.79,0,0,0-.34.07A.48.48,0,0,0,550.75,110.6Zm.54-.13a2.19,2.19,0,0,1-.07-.67c.14,0,.2-.07.34-.07a5.71,5.71,0,0,1,.13,1c-.13,0-.2.07-.33.07A.48.48,0,0,1,551.29,110.47Zm-1.81.2c0-.14-.07-.2-.07-.34s.14-.13.2-.2a2.52,2.52,0,0,1,.14,1,.39.39,0,0,1-.27-.07Zm.4.67H550c.8-.07,1.6-.34,2.41-.47h.13c0,.2.07.4.07.67v.07a3.79,3.79,0,0,1-.87.13c-.6.13-1.21.2-1.81.27C550,111.74,549.88,111.54,549.88,111.34Zm-1,1.34c.2-.34.8-.34,1.14-.34.87-.2,1.74-.33,2.68-.53,2.14-.41,4.35-.81,6.49-1.21a5.28,5.28,0,0,0-1.14.94h0c-3.08.6-6.16,1.27-9.24,1.67C548.74,112.94,548.74,112.81,548.88,112.68Zm7.9,1a6.11,6.11,0,0,0-.2,2.68,5.68,5.68,0,0,0,.94,2.35,1.19,1.19,0,0,0-.47.13c-.4.07-.6-.2-.8-.54a8.14,8.14,0,0,1-.47-1.87,7.84,7.84,0,0,1-.07-1.81.79.79,0,0,1,.47-.8A1,1,0,0,1,556.78,113.68Zm.2-.67c-.73.14-1.54.14-1.87,1a6.22,6.22,0,0,0,0,2.94,13.77,13.77,0,0,0,.53,1.61,1.48,1.48,0,0,0,.54.81.82.82,0,0,0,.67,0,5.09,5.09,0,0,0,1-.21,7.77,7.77,0,0,0,.81.74c-1.74.4-3.42.87-5.16,1.21-.67.13-1.41.33-2.08.4-.2-1.41-.47-2.81-.73-4.22-.14-.94-.34-1.88-.47-2.81-.07-.41-.14-.88-.2-1.28,2.61-.4,5.15-.94,7.7-1.47A11.91,11.91,0,0,0,557,113Zm-7.37,3.08a1,1,0,0,1-1.27-.67,1.06,1.06,0,0,1,.14-.87,1.49,1.49,0,0,1,.87-.4c.13,0,.13-.27-.07-.27s-.27.07-.4.07a2,2,0,0,0-.14-.54h0c.34-.06.67-.06,1-.13a10.6,10.6,0,0,1,.27,1.34c.13.94.33,1.87.47,2.81.2,1.34.46,2.75.67,4.09a5.6,5.6,0,0,1-1.08-.07h0c0-.2-.06-.33-.06-.47-.27-1.54-.47-3.08-.74-4.62a.81.81,0,0,0,.4-.07C549.82,116.36,549.82,116.09,549.61,116.09Zm2.35,6.37c-.4.06-.87.26-1.27.06a1.23,1.23,0,0,1-.54-.73,6.38,6.38,0,0,0,3-.27c1.94-.4,3.95-.87,5.89-1.41a2.5,2.5,0,0,0,.87.4A79.19,79.19,0,0,1,552,122.46Zm5-5.63a5.56,5.56,0,0,1,2.41-6.1,5.31,5.31,0,0,1,4.49-.46,4.07,4.07,0,0,0-3,.67,5.79,5.79,0,0,0-2.21,3,6,6,0,0,0,.27,3.75,4.5,4.5,0,0,0,3.68,2.81,6.09,6.09,0,0,1-2.21-.06A4.79,4.79,0,0,1,556.92,116.83Zm2.27.74a5.26,5.26,0,0,1,1.68-6.3,1.57,1.57,0,0,1,.27.4,5,5,0,0,0-1.34,5.76c.87,1.95,2.88,3.08,4.82,2.15a3.34,3.34,0,0,0,1.21-.94c.06.07.13.13.13.2a5.48,5.48,0,0,1-1.34,1.07C562.54,121,560.13,119.71,559.19,117.57Zm9,.67a9.67,9.67,0,0,1-2,.53,2.54,2.54,0,0,0,.47-.73l1.34-.41a1.36,1.36,0,0,0,.54-.26C568.64,117.77,568.57,118.1,568.24,118.24Zm-.27-6.5c-.07-.47-.14-.87-.2-1.34a.81.81,0,0,0-.07-.4A1,1,0,0,1,568,111.74Z" transform="translate(0 -14)"/><path class="cls-12" d="M549.21,114.82h0c-.13-.2-.4-.27-.53-.13a.42.42,0,0,0-.07.6.37.37,0,0,0,.54.13.42.42,0,0,0,.06-.6Zm-.4.34c-.07-.07,0-.21,0-.21s.13,0,.2.07S548.94,115.36,548.81,115.16Z" transform="translate(0 -14)"/><path class="cls-12" d="M564.55,114.08a3.48,3.48,0,0,1,.34.74,1.8,1.8,0,0,1,0,.8,4.28,4.28,0,0,1-.27.81c-.13.2-.27.33-.4.53h0c.47-.2.67-.87.73-1.34a1.51,1.51,0,0,0-.4-1.54Z" transform="translate(0 -14)"/><path class="cls-12" d="M564.42,109.93a3.71,3.71,0,0,0,.8-.13l.87-.2h0c-.26.06-.53.06-.8.13a5.89,5.89,0,0,0-.87.2Z" transform="translate(0 -14)"/><path class="cls-12" d="M549,115.83s-.47-.74-1.14-2-.47-.94-.93-3.88-.47-6.57-2-9.51-1.67-1.95-2.88-4.89a64.29,64.29,0,0,1-2.21-6.9l-.33.6a.85.85,0,0,1-.14-1.21c.54-.73,1.54-.47,1.54-.06s.94,3.61,1.08,4.42a32,32,0,0,0,1.54,4.35c.26.54,1.13.87,1.87,2.75a20.92,20.92,0,0,1,1.68,5.36c.4,2.81.87,5.15,1,7s1.21,3.35,1.07,3.69S549.15,116.16,549,115.83Z" transform="translate(0 -14)"/><path class="cls-12" d="M567.77,110.94s.53-.67-.74-3.89-1.67-4.09-1.87-7.23-.74-3.69-.27-6,.8-4.56,1.74-5.43a10.28,10.28,0,0,1,1.27-1.07s.47-.74.54.54-.54,1.33-1.14,2.21A6.64,6.64,0,0,0,566,93.52a47.13,47.13,0,0,0,.4,7.43,63.58,63.58,0,0,0,1.4,6.37,8.46,8.46,0,0,1,.54,3.28C568.3,111.61,567.63,111.87,567.77,110.94Z" transform="translate(0 -14)"/><path class="cls-1" d="M583.64,52.39c.34-.07.74-.07,1.08-.13a31.85,31.85,0,0,1-.14,15.67,29.17,29.17,0,0,1-14.94,19.29c-1.67.87-1.74.94-1,2.68.4.94.33,2.08,1.07,2.82,1.54,5.42,3.42,10.71,4.62,16.21a173.09,173.09,0,0,1,3.49,25.58c.2,3,.46,6-.27,9a13.83,13.83,0,0,1-2.21,4.69c-.2.27-.34.67-.61.74-1.87.53-2,2.34-2.54,3.88-1.88,5.43-3.28,11-6.43,15.88a1.62,1.62,0,0,0-.07,1.47c.67,1.94,1.34,3.82,1.94,5.76a4.6,4.6,0,0,1,.14,1.41c-.47,4.55.13,9.24-.34,13.73-.27,2.55.47,3.68,2.62,4.49,1.94.73,3.81,1.81,5.69,2.68a3.27,3.27,0,0,1,1.81,1.6c-.27.81-1,.88-1.61,1.08-5,1.6-10,3.55-14.87,5.49-.2.07-.47.07-.47.74h31.15v.47a10.61,10.61,0,0,1-4.49.93c-18.29.07-36.64.07-54.93.07-4.82,0-9.64-.13-14.47-.07a25,25,0,0,1-6.36-.33c6-1.41,12-1.14,18.15-1.21-1.34-4.82-2.61-9.58-4-14.27-.87-2.88-.8-5.29,1.28-7.7,4.35-5.09,8.5-10.31,13-15.34.14-.13.2-.27.4-.47-2.88-4.62-6.63-8.77-6.83-14.8-.8.33-1.41.67-2.08.94a4,4,0,0,1-5.35-3,58.64,58.64,0,0,1-.67-14.13,95.24,95.24,0,0,1,.87-11.72c1.81-11.26,4.55-22.24,9.64-32.43,1.14-1.74,2.28-3.55,3.35-5.29.6-.93-.13-1.2-.73-1.6a28.46,28.46,0,0,1-9.11-8.38c-2.68-3.75-3.82-8.1-4.43-12.59-.06-.4-.13-.87-.2-1.27-.33-1.81-.13-2.08,1.68-2.35-.14,6.43,1,12.46,5.42,17.35,3.15,3.55,6.77,6.5,11.46,7.57,5.36,1.21,10.72,1.94,16.21.94s10.65-2.75,14.94-6.57a29.75,29.75,0,0,0,9.31-15C584.85,62.17,584.38,57.21,583.64,52.39Zm-10.18,94.85c.67-.13.81-.67,1.14-1.07,1.88-2.55,2.08-5.49,2.14-8.51a48.21,48.21,0,0,0-.8-8.17c-.8-5.49-1.27-11-2.14-16.48-.74-4.55-2-8.91-2.95-13.4a41.84,41.84,0,0,0-3.08-9.37c-.47-1.08-1.07-1.61-2.35-1.08-4.08,1.75-8.5,1.68-12.79,1.75A36.44,36.44,0,0,1,543,89.3c-1.81-.54-2.68-.07-3.68,1.67a90.31,90.31,0,0,0-8.78,21.37,142.93,142.93,0,0,0-4,22.58c-.53,5.69-.67,11.45.74,17.08a2.15,2.15,0,0,0,.81,1.4c1.6,1.21,2.94,1,4.08-.73a32.21,32.21,0,0,0,3.35-7.44c2.75-8.71,4.56-17.62,6.57-26.52a58.52,58.52,0,0,1,3.08-11.19c.26-.6.4-1.41,1.27-1.61.2.4,0,.74-.07,1.07-2.14,8.24-3.82,16.55-5.69,24.85-1.61,6.9-2.95,13.87-5.76,20.37a2.19,2.19,0,0,0-.07.67,19,19,0,0,0,3.69,11c4.22,6.16,8.7,12.06,14.4,16.81a2.81,2.81,0,0,1,1.07,1.61c1.27,7.44,3.28,14.74,4.55,22.17.27,1.48.74,1.81,2.08,1.28,4.89-1.95,9.71-3.89,14.8-6-3.14-2.21-6.76-3.28-9.84-5.29a13.68,13.68,0,0,0,.33-3.21c.14-3.69.2-7.37.34-11.12,0-.94.4-1.88.13-2.82a47.18,47.18,0,0,0-2-6.16,117.66,117.66,0,0,1-5.42-16.48c-.21-.73-.61-1.67.2-2.21a3.64,3.64,0,0,1,3.35-.8c-2.62,1.61-2.82,2.21-1.75,5.16,1,2.74,2,5.49,2.88,8.24a5,5,0,0,0,1.55,2.47A47.37,47.37,0,0,0,571.59,146c.46-10.39.87-20.77-.47-31.09-.67-5.29-1.41-10.58-3.55-15.54a1.23,1.23,0,0,1,.2-1.54,5.79,5.79,0,0,1,.33.67,51.72,51.72,0,0,1,3.49,13.8,151,151,0,0,1,1.54,19.7c-.07,3.61-.07,7.23-.14,10.78A9.71,9.71,0,0,0,573.46,147.24Zm-16.21,59.82c-1.34-8.24-3.48-16.14-4.75-24.45-1.28.87-2.42,1.54-3.49,2.34-3.62,2.62-7.1,5.43-11,7.57a2.38,2.38,0,0,0-1,1.28,118.17,118.17,0,0,0-4.82,11.25c-.2.67-.67,1.27-.6,2Zm-26.53-3c.74-2.47,1.95-4.62,2.89-7,1.13-3,2.61-5.43,5.56-7.17,4.15-2.48,7.83-5.83,12.12-8.57a59.57,59.57,0,0,1-9.85-10.65,17.3,17.3,0,0,1-1.54,2c-3.88,4.55-7.77,9.17-11.85,13.53a5.17,5.17,0,0,0-1.21,5.22C528.05,195.67,529.45,199.82,530.72,204Z" transform="translate(0 -14)"/><path class="cls-1" d="M575.74,61.5a1.28,1.28,0,0,0-.87-1.41c-2.68-1.67-3-1-5-.13-.46.2-1,.33-.93,1.07s.4.74.93.8c.81,0,2.35-1.87,4.76,0C575,62.1,575.61,62.1,575.74,61.5Z" transform="translate(0 -14)"/><path class="cls-1" d="M551.89,61a1.26,1.26,0,0,0-.87-1.41c-2.68-1.67-2.95-1-5-.13-.47.2-1,.34-.94,1.07s.4.74.94.81c.8,0,2.34-1.88,4.75,0C551.16,61.7,551.76,61.7,551.89,61Z" transform="translate(0 -14)"/><path class="cls-13" d="M531.46,79.25c-3.35-12.59.34-18.82.34-18.82s6.7-5.36,7.63-13.06c43.28,16.68,56.87-3.29,56.87-3.29a17.59,17.59,0,0,1-8.1-.13c4.62-.47,13.19-9.11,10-18.29,0,0-.94,5-8.18,4.83,0,0,4.16-1.55,5-3.89,0,0-5.23,2.88-17.42-4.49-1.07-.67-2.34-1.34-3.68-2.07a31.72,31.72,0,0,0-5.63-2.55C554.44,12,534.54,10,527.24,34.77a7,7,0,0,0-.4,1.41s-9.71-1.21-10,14.6c-.07,6,2.14,12.19,5,19.76C525,75.7,532.33,82.53,531.46,79.25Z" transform="translate(0 -14)"/><path class="cls-14" d="M567.1,126.94c.06,0,.06-.06.06-.13H567a.24.24,0,0,1-.07-.13C567,126.81,567,126.94,567.1,126.94Z" transform="translate(0 -14)"/><path class="cls-14" d="M567.3,130c1,4.22,2,8.37,3,12.53h0a7.41,7.41,0,0,1,2-.88c-.07-.26-.14-.53-.21-.73h-.13c-.07,0-.13.06-.2.06s-.07-.06,0-.06.07-.07.13-.07h.07c.07,0,.07-.07.13-.07s-.06-.33-.13-.47a.07.07,0,0,0-.07.07h-.06c-.07,0-.07-.07,0-.07a.06.06,0,0,0,.06-.06h.07c-.07-.2-.07-.4-.13-.61-.07,0-.07,0-.14.07h-.26c-.07,0-.07-.07,0-.07s.06-.06.13-.06.07-.07.13-.07h0a.07.07,0,0,0,.07-.07,3,3,0,0,0-.07-.33h-.2V139a.26.26,0,0,1,.14-.06h.06c-.06-.14-.06-.34-.13-.47a.79.79,0,0,1-.4.13c-.07,0-.07-.13,0-.13s.13-.07.2-.07.13-.07.2-.07h0c0-.06,0-.13-.07-.13s-.06-.2-.06-.27a.26.26,0,0,1-.21.07c-.06,0-.06-.14,0-.14h.14s.07,0,.07-.06-.07-.41-.14-.61a.24.24,0,0,1-.2.07c-.07.07-.2.07-.27.13s-.06-.06,0-.06.14-.07.27-.14a.26.26,0,0,1,.2-.06c-.07-.14-.07-.34-.13-.47s-.07,0-.07.06-.07.07-.13.07-.07-.07,0-.07.06-.06.13-.06l.07-.07c-.07-.2-.07-.33-.14-.54-.13.07-.26.07-.4.14a.07.07,0,0,1-.07-.07l.41-.2c-.07-.13-.07-.33-.14-.47l-.06.07a.07.07,0,0,0-.07.07s-.07-.07,0-.07l.07-.07.06-.07h0c-.06-.13-.06-.26-.13-.46a.27.27,0,0,1-.2.06c-.07,0-.14.07-.27.07s-.07-.07,0-.07.13-.06.2-.13a.24.24,0,0,1,.2-.07c-.07-.13-.07-.33-.13-.47a.25.25,0,0,1-.2.07c-.07,0-.07-.13,0-.13s.06,0,.13-.07l.07-.07c-.07-.13-.07-.33-.14-.47-.06.07-.13.07-.2.14a.43.43,0,0,1-.27.06s-.06-.06,0-.06a.54.54,0,0,1,.27-.14.27.27,0,0,1,.2-.06,3.91,3.91,0,0,0-.13-.54h-.07a.24.24,0,0,0-.13.07c-.07,0-.07-.07,0-.14s.07-.06.13-.06a.07.07,0,0,0,.07-.07c-.07-.2-.07-.34-.13-.54-.07.07-.14.07-.21.14s-.13.06-.2.06-.06-.06,0-.06.14-.07.2-.14.14-.06.21-.13h0v-.07c-.07-.13-.07-.33-.14-.47l-.07.07c-.06,0-.06.07-.13.07a.07.07,0,0,1-.07-.07c.07,0,.07-.07.14-.07s.06-.06.13-.06h0c-.07-.14-.07-.34-.13-.47a.27.27,0,0,1-.2.06c-.07,0-.2.07-.27.07s-.07-.07,0-.07a1.37,1.37,0,0,1,.27-.13c.06,0,.13-.07.2-.07-.07-.2-.07-.33-.14-.53-.06.06-.13.06-.26.06s-.07-.06,0-.06.13-.07.26-.14c-.06-.4-.2-.8-.26-1.2h0c-.07,0-.07.07-.14.07s-.07.06-.13.06-.07-.06,0-.06.06-.07.13-.07.07-.07.14-.07h0c-.07-.2-.07-.4-.14-.6h0c-.07.07-.13.07-.27.13s-.2.07-.26.14a.07.07,0,0,1-.07-.07c.07-.07.2-.13.27-.2a.32.32,0,0,1,.26-.14h0c0-.13-.06-.26-.06-.4s-.14.07-.2.14l-.07-.07a.34.34,0,0,1,.27-.13,2.36,2.36,0,0,1-.14-.67.25.25,0,0,1-.2.06c-.06.07-.13.07-.2.14s-.07-.07-.07-.14.14-.13.21-.13a.23.23,0,0,1,.2-.07c-.07-.33-.14-.67-.2-1.07V126c-.67.2-1.34.47-2,.67h0A12.5,12.5,0,0,0,567.3,130Zm1.61-.34c.06-.06.13-.06.2-.13s.13-.07.2-.07.07.07,0,.14a.27.27,0,0,1-.2.06c-.07,0-.14.07-.2.14S568.84,129.62,568.91,129.62Zm-1.88-3h0c0-.07.07-.07,0,0a.2.2,0,0,1,.27.13c0,.14,0,.27-.14.27s-.2,0-.2-.13S567,126.61,567,126.61Z" transform="translate(0 -14)"/><path class="cls-14" d="M567.16,126.74a.06.06,0,0,0-.06-.06h0v.13Z" transform="translate(0 -14)"/><path class="cls-14" d="M572.26,141.82l-1,.4c-.33.13-.6.33-.94.47h0c0,.13-.06.26-.06.4a8.16,8.16,0,0,1,1-.54c.34-.13.67-.33,1-.47h0c0-.06.06-.13.06-.2a.06.06,0,0,1-.06-.06Z" transform="translate(0 -14)"/><path class="cls-14" d="M570.18,142.55c-.27-1.14-.6-2.34-.87-3.48-.54-2.08-1-4.15-1.48-6.3s-1-4.15-1.4-6.23v.4h0c.27,1.14.53,2.35.8,3.49q1.41,6.23,3,12.46a.5.5,0,0,1-.07-.34Z" transform="translate(0 -14)"/><path class="cls-4" d="M569.17,129.62c.07,0,.14-.06.21-.06v-.14c-.07,0-.14.07-.21.07s-.13.07-.2.13,0,.14.07.07A.24.24,0,0,1,569.17,129.62Z" transform="translate(0 -14)"/><path class="cls-4" d="M569.38,129.22c-.27-1.2-.54-2.34-.88-3.48,0-.07-.06-.07-.06,0h-.07a11.66,11.66,0,0,0-2,.74v.06h0s-.07-.06-.07,0-.06.14-.06.27v.2c.2,1.07.47,2.15.73,3.22s.47,2.14.74,3.21c.47,2.15,1,4.22,1.54,6.37.27,1.2.6,2.34.87,3.55,0,.06.07.06.07,0h0c.33-.14.67-.34,1-.47s.67-.34,1-.47v-.07h0a.24.24,0,0,0,.07-.2v-.27C571.39,137.53,570.38,133.38,569.38,129.22Zm-3-2.74c.67-.21,1.34-.47,2-.67v-.07c.06.33.13.67.2,1.07-.07,0-.14.07-.2.07s-.14.06-.2.13a.08.08,0,0,0,.06.14c.07-.07.14-.07.2-.14s.14-.07.21-.07a2.73,2.73,0,0,1,.13.67.5.5,0,0,0-.27.14s0,.13.07.07.13-.07.2-.14c0,.14.07.27.07.4h0a.5.5,0,0,0-.27.14c-.07.06-.2.13-.27.2s0,.13.07.07.2-.07.27-.14.2-.07.26-.13h0c.07.2.07.4.14.6h0c-.07,0-.07.07-.14.07s-.06.06-.13.06,0,.14,0,.07A.21.21,0,0,0,569,129c.07,0,.07,0,.14-.06h0c.06.4.2.8.27,1.2-.07.07-.14.07-.27.14s0,.13,0,.06a1.41,1.41,0,0,1,.27-.06c.06.2.06.33.13.53-.07,0-.13.07-.2.07s-.14.07-.27.13,0,.14,0,.07.2-.07.27-.07.13-.06.2-.06.07.33.13.47h0c-.06,0-.06.06-.13.06s-.07.07-.13.07,0,.13.06.07.07-.07.14-.07l.06-.07c.07.14.07.34.14.47V132h0c-.07,0-.14.07-.2.13s-.14.07-.2.14v.06c.06,0,.13-.06.2-.06s.13-.07.2-.14c.06.2.06.34.13.54a.07.07,0,0,0-.07.07c-.06,0-.06.06-.13.06s0,.14,0,.14a.21.21,0,0,0,.13-.07h.07c.07.2.07.4.14.54s-.14.06-.21.06-.2.07-.26.14v.06c.06,0,.2-.06.26-.06s.14-.07.21-.14c.06.14.06.34.13.47l-.07.07c-.06,0-.06.07-.13.07s0,.13,0,.13a.24.24,0,0,0,.2-.07c.07.14.07.34.13.47s-.13.07-.2.07-.13.07-.2.13v.07c.07,0,.14-.07.27-.07s.13-.06.2-.06a2.64,2.64,0,0,1,.13.46h0l-.06.07-.07.07v.06s.07,0,.07-.06a.06.06,0,0,0,.06-.07c.07.13.07.34.14.47l-.4.2c-.07,0,0,.13.06.07a1,1,0,0,1,.41-.14c.06.2.06.34.13.54l-.07.07c-.06,0-.06.06-.13.06s0,.14,0,.07.07,0,.13-.07.07,0,.07-.06c.07.13.07.33.13.47s-.13.06-.2.06-.2.07-.27.14v.06a.46.46,0,0,0,.27-.13c.07,0,.14-.07.2-.07.07.2.07.4.14.61,0,0-.07,0-.07.06h-.13c-.07,0-.07.14,0,.14a.25.25,0,0,0,.2-.07c0,.07.06.2.06.27s0,.13.07.13h0c-.07,0-.13.07-.2.07s-.13.07-.2.07,0,.13,0,.13a1,1,0,0,0,.4-.13c.07.13.07.33.14.46h-.07c-.07,0-.07.07-.14.07v.07h.21a2.93,2.93,0,0,0,.06.33.06.06,0,0,0-.06.07h0c-.07,0-.07,0-.14.07s-.07.06-.13.06,0,.07,0,.07h.27a.2.2,0,0,0,.13-.07c.07.21.07.41.13.61h-.06s-.07,0-.07.06v.07h.07a.06.06,0,0,0,.06-.07c.07.14.07.34.14.47s-.07,0-.14.07h-.06c-.07,0-.07.07-.14.07s0,.13,0,.06.14-.06.2-.06h.14a7.47,7.47,0,0,0,.2.73,18.08,18.08,0,0,0-1.94.87h0c-1-4.15-2-8.37-3-12.52a22.77,22.77,0,0,0-.6-3.28Zm3.75,16.41q-1.6-6.24-3-12.46c-.26-1.14-.53-2.35-.8-3.49h0v-.4l1.41,6.23c.47,2.08,1,4.22,1.47,6.3.27,1.14.54,2.34.87,3.48v.07A.39.39,0,0,1,570.18,142.89Zm2.08-1a.23.23,0,0,1-.07.2h0a7.61,7.61,0,0,0-1,.47,8.16,8.16,0,0,0-1,.54c0-.14.07-.27.07-.4h0a6.77,6.77,0,0,0,.93-.47l1-.4h0A.06.06,0,0,1,572.26,141.88Z" transform="translate(0 -14)"/><path class="cls-4" d="M567.16,127a.34.34,0,0,0,.14-.27c0-.13-.14-.26-.2-.2H567a.39.39,0,0,0-.07.27C567,127,567.1,127.08,567.16,127Zm-.06-.4h0c.06,0,.06.07.13.07s-.07.06-.07,0S567.1,126.68,567.1,126.61Zm-.07.07c0,.06,0,.06.07.13s.06.07.06,0h.07c0,.07,0,.13-.07.13A.16.16,0,0,1,567,126.68Z" transform="translate(0 -14)"/><path d="M568.3,135.72s2.42.2,2.55-1.34-.34-.2-.34-.2-1.74,1.27-2.47,1.14S568,135.79,568.3,135.72Z" transform="translate(0 -14)"/><path class="cls-5" d="M568.37,136s2.41.2,2.55-1.34-.34-.2-.34-.2-1.74,1.27-2.48,1.14S568.17,136.05,568.37,136Z" transform="translate(0 -14)"/><path class="cls-15" d="M172.48,265H100l-9.74-9.74L80.51,265h-72A8.53,8.53,0,0,0,0,273.52v29A8.53,8.53,0,0,0,8.52,311h164a8.53,8.53,0,0,0,8.52-8.52v-29A8.53,8.53,0,0,0,172.48,265Z" transform="translate(0 -14)"/><path class="cls-15" d="M398.48,265H326l-9.74-9.74L306.51,265h-72a8.53,8.53,0,0,0-8.52,8.52v29a8.53,8.53,0,0,0,8.52,8.52h164a8.53,8.53,0,0,0,8.52-8.52v-29A8.53,8.53,0,0,0,398.48,265Z" transform="translate(0 -14)"/><path class="cls-15" d="M623.48,265H551l-9.74-9.74L531.51,265h-72a8.53,8.53,0,0,0-8.52,8.52v29a8.53,8.53,0,0,0,8.52,8.52h164a8.53,8.53,0,0,0,8.52-8.52v-29A8.53,8.53,0,0,0,623.48,265Z" transform="translate(0 -14)"/><path class="cls-16" d="M847.48,265H775l-9.74-9.74L755.51,265h-72a8.53,8.53,0,0,0-8.52,8.52v29a8.53,8.53,0,0,0,8.52,8.52h164a8.53,8.53,0,0,0,8.52-8.52v-29A8.53,8.53,0,0,0,847.48,265Z" transform="translate(0 -14)"/><path class="cls-16" d="M1073.48,265H1001l-9.74-9.74L981.51,265h-72a8.53,8.53,0,0,0-8.52,8.52v29a8.53,8.53,0,0,0,8.52,8.52h164a8.53,8.53,0,0,0,8.52-8.52v-29A8.53,8.53,0,0,0,1073.48,265Z" transform="translate(0 -14)"/><path class="cls-16" d="M1297.48,265H1225l-9.74-9.74-9.75,9.74h-72a8.53,8.53,0,0,0-8.52,8.52v29a8.53,8.53,0,0,0,8.52,8.52h164a8.53,8.53,0,0,0,8.52-8.52v-29A8.53,8.53,0,0,0,1297.48,265Z" transform="translate(0 -14)"/><circle class="cls-15" cx="91" cy="221" r="15"/><circle class="cls-15" cx="315" cy="221" r="15"/><circle class="cls-16" cx="766" cy="221" r="15"/><circle class="cls-16" cx="992" cy="221" r="15"/><circle class="cls-16" cx="1216" cy="221" r="15"/><line class="cls-17" x1="91" y1="221" x2="540" y2="221"/><line class="cls-18" x1="542" y1="221" x2="1216" y2="221"/><circle class="cls-15" cx="540" cy="221" r="15"/><path class="cls-1" d="M38.26,281h2.45l3.1,10.81L45.89,281H49l-3.73,16.2H42.43l-2.88-11.32-3,11.32H33.67L29.94,281h3.14l2.08,10.81Z" transform="translate(0 -14)"/><path class="cls-1" d="M50.51,296.46a3.58,3.58,0,0,1-.92-2.69,3.14,3.14,0,0,1,1-2.57,4.76,4.76,0,0,1,3.09-.86h2.9l.15,2.33h-3a1.65,1.65,0,0,0-1,.27,1,1,0,0,0-.35.83.92.92,0,0,0,.44.84,2.41,2.41,0,0,0,1.31.28,4.57,4.57,0,0,0,1.82-.28.92.92,0,0,0,.6-.87l.23,1.68a1.54,1.54,0,0,1-.57,1.06,3.25,3.25,0,0,1-1.27.65,5.69,5.69,0,0,1-1.61.22A3.87,3.87,0,0,1,50.51,296.46Zm6-6.61a1.48,1.48,0,0,0-.54-1.23,2.32,2.32,0,0,0-1.51-.44,4,4,0,0,0-1.28.21,3.79,3.79,0,0,0-1.13.59l-1.89-1.86A4.48,4.48,0,0,1,52,285.89a6.92,6.92,0,0,1,2.51-.44,6,6,0,0,1,2.59.51,3.7,3.7,0,0,1,1.63,1.47,4.58,4.58,0,0,1,.56,2.32v7.43H56.51Z" transform="translate(0 -14)"/><path class="cls-1" d="M62.29,285.62h3.28v11.56H62.29Zm6,2.88a2.42,2.42,0,0,0-.75-.11,1.78,1.78,0,0,0-1.43.6,2.46,2.46,0,0,0-.5,1.65l-.24-3a4.07,4.07,0,0,1,1.24-1.6,2.7,2.7,0,0,1,1.68-.58,3.64,3.64,0,0,1,1.31.23,2.92,2.92,0,0,1,1,.67l-1.78,2.49A1.46,1.46,0,0,0,68.25,288.5Z" transform="translate(0 -14)"/><path class="cls-1" d="M72,285.62h3v11.56H72Zm6.74,4.89a2.23,2.23,0,0,0-.51-1.57,1.82,1.82,0,0,0-1.41-.55,1.74,1.74,0,0,0-1.31.48,1.79,1.79,0,0,0-.46,1.33l-.24-2.57A4.2,4.2,0,0,1,76.13,286a3,3,0,0,1,1.8-.56,3.46,3.46,0,0,1,3.43,2.32,7.22,7.22,0,0,1,.46,2.73v6.68h-3Zm6.74,0a2.32,2.32,0,0,0-.49-1.57,2,2,0,0,0-2.73,0,2.19,2.19,0,0,0-.47,1.5l-.57-2.67a4.23,4.23,0,0,1,1.42-1.7,3.35,3.35,0,0,1,1.94-.6,3.79,3.79,0,0,1,2.14.59,3.71,3.71,0,0,1,1.35,1.73,7.42,7.42,0,0,1,.46,2.73v6.68h-3Z" transform="translate(0 -14)"/><path class="cls-1" d="M91.4,281h3V284h-3Zm0,4.64h3v11.56h-3Z" transform="translate(0 -14)"/><path class="cls-1" d="M97.29,285.62h3v11.56h-3Zm6.69,4.55a1.75,1.75,0,0,0-.49-1.31,1.9,1.9,0,0,0-1.37-.47,1.71,1.71,0,0,0-1.31.48,1.8,1.8,0,0,0-.47,1.33l-.23-2.57a4.4,4.4,0,0,1,1.25-1.63,3,3,0,0,1,1.84-.55,3.46,3.46,0,0,1,2.83,1.23,5.42,5.42,0,0,1,1,3.48v7h-3Z" transform="translate(0 -14)"/><path class="cls-1" d="M111.49,296.76a3.67,3.67,0,0,1-1.33-1.71,7.06,7.06,0,0,1-.46-2.7V290.5a7.22,7.22,0,0,1,.46-2.73,3.46,3.46,0,0,1,3.43-2.32,2.8,2.8,0,0,1,1.69.55,3.86,3.86,0,0,1,1.23,1.57l-.24,2.56a2.18,2.18,0,0,0-.2-1,1.32,1.32,0,0,0-.58-.63,1.83,1.83,0,0,0-.93-.22,1.61,1.61,0,0,0-1.33.59,2.51,2.51,0,0,0-.48,1.64v1.84a2.41,2.41,0,0,0,.48,1.6,1.63,1.63,0,0,0,1.33.57,1.94,1.94,0,0,0,.93-.21,1.34,1.34,0,0,0,.58-.62,2,2,0,0,0,.2-1l.16,2.64a3,3,0,0,1-1.09,1.46,2.92,2.92,0,0,1-1.75.52A3.68,3.68,0,0,1,111.49,296.76Zm1.26,5.12-1.08-.48A3.85,3.85,0,0,1,110,300l2-1.88a2.6,2.6,0,0,0,.94.65,2.75,2.75,0,0,0,1.13.23,2.32,2.32,0,0,0,1.57-.52,1.82,1.82,0,0,0,.6-1.45V285.62h3.06v11.22a5.79,5.79,0,0,1-.61,2.73,4.08,4.08,0,0,1-1.77,1.72,6.1,6.1,0,0,1-2.81.59Z" transform="translate(0 -14)"/><path class="cls-1" d="M131.51,292.65A1.72,1.72,0,0,0,132,294a1.85,1.85,0,0,0,1.33.46,1.75,1.75,0,0,0,1.32-.48,1.83,1.83,0,0,0,.46-1.35l.16,2.53a3.64,3.64,0,0,1-1.08,1.59,2.71,2.71,0,0,1-1.83.65,3.54,3.54,0,0,1-2.87-1.2,5.08,5.08,0,0,1-1-3.39v-7.14h3Zm3.59-7h3v11.56h-3Z" transform="translate(0 -14)"/><path class="cls-1" d="M141.15,285.62h3v16.26h-3Zm4,11.21a3,3,0,0,1-1.09-1.46l.15-2.64a2.16,2.16,0,0,0,.2,1,1.42,1.42,0,0,0,.59.62,1.88,1.88,0,0,0,.93.21,1.64,1.64,0,0,0,1.33-.57,2.46,2.46,0,0,0,.47-1.6v-1.84a2.56,2.56,0,0,0-.47-1.64,1.63,1.63,0,0,0-1.33-.59,1.78,1.78,0,0,0-.93.22,1.39,1.39,0,0,0-.59.63,2.31,2.31,0,0,0-.2,1l-.23-2.56A3.86,3.86,0,0,1,145.2,286a2.8,2.8,0,0,1,1.69-.55,3.46,3.46,0,0,1,3.43,2.32,7.43,7.43,0,0,1,.45,2.73v1.85a7.27,7.27,0,0,1-.45,2.7,3.48,3.48,0,0,1-3.43,2.3A2.92,2.92,0,0,1,145.14,296.83Z" transform="translate(0 -14)"/><path class="cls-1" d="M292.92,281h4v16.2h-2.77V284.6l.11.72-3.1,10.06h-2.7l-3.09-9.84.11-.94v12.58h-2.77V281h4l3.08,10.92Z" transform="translate(0 -14)"/><path class="cls-1" d="M302.24,296.76a4,4,0,0,1-1.71-1.72,5.89,5.89,0,0,1-.58-2.73v-1.88a5.74,5.74,0,0,1,.58-2.69,3.9,3.9,0,0,1,1.71-1.7,6.47,6.47,0,0,1,5.4,0,3.88,3.88,0,0,1,1.7,1.7,5.74,5.74,0,0,1,.59,2.69v1.92a5.79,5.79,0,0,1-.59,2.7,4,4,0,0,1-1.7,1.71,6.47,6.47,0,0,1-5.4,0Zm4.12-2.89a2.09,2.09,0,0,0,.52-1.52v-1.92a2,2,0,0,0-.52-1.5,1.88,1.88,0,0,0-1.43-.54,1.84,1.84,0,0,0-1.42.54,2.08,2.08,0,0,0-.51,1.5v1.92a2.17,2.17,0,0,0,.5,1.52,2.16,2.16,0,0,0,2.86,0Z" transform="translate(0 -14)"/><path class="cls-1" d="M318.85,285.62h3l-4.34,11.56h-2.16L311,285.62h3l2.39,7.25Z" transform="translate(0 -14)"/><path class="cls-1" d="M323.51,281h3.05V284h-3.05Zm0,4.64h3.05v11.56h-3.05Z" transform="translate(0 -14)"/><path class="cls-1" d="M329.4,285.62h3.05v11.56H329.4Zm6.69,4.55a1.75,1.75,0,0,0-.49-1.31,1.9,1.9,0,0,0-1.37-.47,1.71,1.71,0,0,0-1.31.48,1.8,1.8,0,0,0-.47,1.33l-.23-2.57a4.4,4.4,0,0,1,1.25-1.63,3,3,0,0,1,1.84-.55,3.46,3.46,0,0,1,2.83,1.23,5.42,5.42,0,0,1,1,3.48v7h-3.05Z" transform="translate(0 -14)"/><path class="cls-1" d="M343.6,296.76a3.67,3.67,0,0,1-1.33-1.71,7.06,7.06,0,0,1-.46-2.7V290.5a7.22,7.22,0,0,1,.46-2.73,3.46,3.46,0,0,1,3.43-2.32,2.8,2.8,0,0,1,1.69.55,3.86,3.86,0,0,1,1.23,1.57l-.24,2.56a2.18,2.18,0,0,0-.2-1,1.32,1.32,0,0,0-.58-.63,1.83,1.83,0,0,0-.93-.22,1.61,1.61,0,0,0-1.33.59,2.51,2.51,0,0,0-.48,1.64v1.84a2.41,2.41,0,0,0,.48,1.6,1.63,1.63,0,0,0,1.33.57,1.94,1.94,0,0,0,.93-.21,1.34,1.34,0,0,0,.58-.62,2,2,0,0,0,.2-1l.16,2.64a3,3,0,0,1-1.09,1.46,2.92,2.92,0,0,1-1.75.52A3.68,3.68,0,0,1,343.6,296.76Zm1.26,5.12-1.08-.48a3.85,3.85,0,0,1-1.69-1.37l2.05-1.88a2.6,2.6,0,0,0,.94.65,2.75,2.75,0,0,0,1.13.23,2.32,2.32,0,0,0,1.57-.52,1.82,1.82,0,0,0,.6-1.45V285.62h3.06v11.22a5.79,5.79,0,0,1-.61,2.73,4.08,4.08,0,0,1-1.77,1.72,6.1,6.1,0,0,1-2.81.59Z" transform="translate(0 -14)"/><path class="cls-1" d="M506.28,281h3.05v16.21h-3.05Zm1.21,6.75h5.64a1.43,1.43,0,0,0,.82-.23,1.53,1.53,0,0,0,.55-.67,2.58,2.58,0,0,0,.21-1,2.41,2.41,0,0,0-.19-1,1.49,1.49,0,0,0-.56-.67,1.42,1.42,0,0,0-.83-.24h-5.64V281h5.88a4.51,4.51,0,0,1,2.35.6,4.1,4.1,0,0,1,1.57,1.7,6.06,6.06,0,0,1,0,5.09,4,4,0,0,1-1.57,1.7,4.54,4.54,0,0,1-2.35.61h-5.88Zm3.41,2.44,3.26-.51,4.37,7.53h-3.7Z" transform="translate(0 -14)"/><path class="cls-1" d="M522.44,296.76a4,4,0,0,1-1.71-1.72,5.89,5.89,0,0,1-.58-2.73v-1.88a5.74,5.74,0,0,1,.58-2.69,3.9,3.9,0,0,1,1.71-1.7,6.47,6.47,0,0,1,5.4,0,3.93,3.93,0,0,1,1.7,1.7,5.74,5.74,0,0,1,.59,2.69v1.92a5.79,5.79,0,0,1-.59,2.7,4,4,0,0,1-1.7,1.71,6.47,6.47,0,0,1-5.4,0Zm4.12-2.89a2.14,2.14,0,0,0,.52-1.52v-1.92a2.09,2.09,0,0,0-.52-1.5,1.88,1.88,0,0,0-1.43-.54,1.84,1.84,0,0,0-1.42.54,2.08,2.08,0,0,0-.51,1.5v1.92a2.17,2.17,0,0,0,.5,1.52,1.85,1.85,0,0,0,1.43.54A1.88,1.88,0,0,0,526.56,293.87Z" transform="translate(0 -14)"/><path class="cls-1" d="M536,293.36a.85.85,0,0,0,.24.65.93.93,0,0,0,.69.23h.51v2.94h-1.56a2.86,2.86,0,0,1-2.16-.8,3.16,3.16,0,0,1-.77-2.26V281H536Z" transform="translate(0 -14)"/><path class="cls-1" d="M542.57,293.36a.85.85,0,0,0,.24.65.93.93,0,0,0,.69.23H544v2.94h-1.56a2.86,2.86,0,0,1-2.16-.8,3.11,3.11,0,0,1-.77-2.26V281h3.05Z" transform="translate(0 -14)"/><path class="cls-1" d="M546,281h3V284h-3Zm0,4.64h3v11.56h-3Z" transform="translate(0 -14)"/><path class="cls-1" d="M551.85,285.62h3v11.56h-3Zm6.68,4.55a1.74,1.74,0,0,0-.48-1.31,1.91,1.91,0,0,0-1.38-.47,1.71,1.71,0,0,0-1.3.48,1.8,1.8,0,0,0-.47,1.33l-.23-2.57a4.4,4.4,0,0,1,1.25-1.63,3,3,0,0,1,1.83-.55,3.43,3.43,0,0,1,2.83,1.23,5.36,5.36,0,0,1,1,3.48v7h-3.06Z" transform="translate(0 -14)"/><path class="cls-1" d="M566.05,296.76a3.67,3.67,0,0,1-1.33-1.71,7.06,7.06,0,0,1-.46-2.7V290.5a7.22,7.22,0,0,1,.46-2.73,3.46,3.46,0,0,1,3.43-2.32,2.82,2.82,0,0,1,1.69.55,4,4,0,0,1,1.23,1.57l-.24,2.56a2.18,2.18,0,0,0-.2-1,1.37,1.37,0,0,0-.58-.63,1.83,1.83,0,0,0-.93-.22,1.61,1.61,0,0,0-1.33.59,2.51,2.51,0,0,0-.48,1.64v1.84a2.41,2.41,0,0,0,.48,1.6,1.63,1.63,0,0,0,1.33.57,1.94,1.94,0,0,0,.93-.21,1.39,1.39,0,0,0,.58-.62,2,2,0,0,0,.2-1l.16,2.64a3,3,0,0,1-1.09,1.46,2.94,2.94,0,0,1-1.75.52A3.68,3.68,0,0,1,566.05,296.76Zm1.26,5.12-1.08-.48a3.85,3.85,0,0,1-1.69-1.37l2.05-1.88a2.65,2.65,0,0,0,.93.65,2.83,2.83,0,0,0,1.14.23,2.32,2.32,0,0,0,1.57-.52,1.82,1.82,0,0,0,.6-1.45V285.62h3.06v11.22a5.79,5.79,0,0,1-.61,2.73,4.08,4.08,0,0,1-1.77,1.72,6.12,6.12,0,0,1-2.82.59Z" transform="translate(0 -14)"/><path class="cls-1" d="M727.17,281h3.05v16.21h-3.05Zm1.21,6.75H734a1.41,1.41,0,0,0,.82-.23,1.55,1.55,0,0,0,.56-.67,2.58,2.58,0,0,0,.2-1,2.41,2.41,0,0,0-.19-1,1.54,1.54,0,0,0-.55-.67,1.48,1.48,0,0,0-.84-.24h-5.64V281h5.89a4.54,4.54,0,0,1,2.35.6,4.23,4.23,0,0,1,1.57,1.7,6.16,6.16,0,0,1,0,5.09,4.06,4.06,0,0,1-1.58,1.7,4.53,4.53,0,0,1-2.34.61h-5.89Zm3.41,2.44,3.27-.51,4.36,7.53h-3.7Z" transform="translate(0 -14)"/><path class="cls-1" d="M743.33,296.76a4,4,0,0,1-1.71-1.72,5.89,5.89,0,0,1-.58-2.73v-1.88a5.74,5.74,0,0,1,.58-2.69,3.9,3.9,0,0,1,1.71-1.7,6.47,6.47,0,0,1,5.4,0,4,4,0,0,1,1.71,1.7,5.87,5.87,0,0,1,.58,2.69v1.92a5.91,5.91,0,0,1-.58,2.7,4,4,0,0,1-1.71,1.71,6.47,6.47,0,0,1-5.4,0Zm4.13-2.89a2.13,2.13,0,0,0,.51-1.52v-1.92a2.08,2.08,0,0,0-.51-1.5,1.92,1.92,0,0,0-1.44-.54,1.85,1.85,0,0,0-1.42.54,2.08,2.08,0,0,0-.51,1.5v1.92a2.17,2.17,0,0,0,.5,1.52,1.86,1.86,0,0,0,1.43.54A1.92,1.92,0,0,0,747.46,293.87Z" transform="translate(0 -14)"/><path class="cls-1" d="M757.05,297.35l-1.18-.63a4.22,4.22,0,0,1-1.79-1.83,6.33,6.33,0,0,1-.61-2.9v-1.24a6.13,6.13,0,0,1,.61-2.86,4.12,4.12,0,0,1,1.79-1.81,5.91,5.91,0,0,1,2.83-.63,6.84,6.84,0,0,1,1.78.22,5.12,5.12,0,0,1,1.51.63,4,4,0,0,1,1.12,1l-2,1.92a2.94,2.94,0,0,0-1-.61,3.18,3.18,0,0,0-1.19-.22,2.46,2.46,0,0,0-1.79.62,2.29,2.29,0,0,0-.64,1.74V292a2.39,2.39,0,0,0,.64,1.79,2.43,2.43,0,0,0,1.79.63,3,3,0,0,0,1.2-.24,2.78,2.78,0,0,0,1-.66l2,2a4.16,4.16,0,0,1-1.13,1,5.32,5.32,0,0,1-1.5.62,7.3,7.3,0,0,1-1.78.21Z" transform="translate(0 -14)"/><path class="cls-1" d="M765.17,281h3.05v16.2h-3.05Zm1.42,12,5.4-7.4h3.23L767,296.38Zm2.74-1.81,2.52-1.51,3.93,7.48h-3.53Z" transform="translate(0 -14)"/><path class="cls-1" d="M777.07,281h3V284h-3Zm0,4.64h3v11.56h-3Z" transform="translate(0 -14)"/><path class="cls-1" d="M783,285.62h3v11.56h-3Zm6.68,4.55a1.74,1.74,0,0,0-.48-1.31,1.92,1.92,0,0,0-1.38-.47,1.74,1.74,0,0,0-1.31.48,1.79,1.79,0,0,0-.46,1.33l-.23-2.57A4.3,4.3,0,0,1,787,286a3,3,0,0,1,1.83-.55,3.44,3.44,0,0,1,2.83,1.23,5.36,5.36,0,0,1,1,3.48v7h-3.05Z" transform="translate(0 -14)"/><path class="cls-1" d="M797.16,296.76a3.68,3.68,0,0,1-1.34-1.71,7.27,7.27,0,0,1-.45-2.7V290.5a7.43,7.43,0,0,1,.45-2.73,3.48,3.48,0,0,1,3.44-2.32,2.79,2.79,0,0,1,1.68.55,3.86,3.86,0,0,1,1.23,1.57l-.23,2.56a2.31,2.31,0,0,0-.2-1,1.37,1.37,0,0,0-.58-.63,1.84,1.84,0,0,0-.94-.22,1.63,1.63,0,0,0-1.33.59,2.56,2.56,0,0,0-.47,1.64v1.84a2.46,2.46,0,0,0,.47,1.6,1.64,1.64,0,0,0,1.33.57,2,2,0,0,0,.94-.21,1.39,1.39,0,0,0,.58-.62,2.16,2.16,0,0,0,.2-1l.16,2.64a3,3,0,0,1-1.1,1.46,2.91,2.91,0,0,1-1.74.52A3.68,3.68,0,0,1,797.16,296.76Zm1.26,5.12-1.09-.48a3.88,3.88,0,0,1-1.68-1.37l2.05-1.88a2.65,2.65,0,0,0,.93.65,2.83,2.83,0,0,0,1.14.23,2.28,2.28,0,0,0,1.56-.52,1.8,1.8,0,0,0,.61-1.45V285.62h3v11.22a5.79,5.79,0,0,1-.6,2.73,4.08,4.08,0,0,1-1.77,1.72,6.12,6.12,0,0,1-2.82.59Z" transform="translate(0 -14)"/><path class="cls-1" d="M961.86,296.61a5.13,5.13,0,0,1-2.08-2.1,6.44,6.44,0,0,1-.74-3.13v-4.59a6.48,6.48,0,0,1,.74-3.14,5.11,5.11,0,0,1,2.08-2.09,6.86,6.86,0,0,1,6.2,0,5.11,5.11,0,0,1,2.08,2.09,6.48,6.48,0,0,1,.74,3.14v4.59a6.44,6.44,0,0,1-.74,3.13,5.13,5.13,0,0,1-2.08,2.1,6.86,6.86,0,0,1-6.2,0Zm4.55-2.66a2.43,2.43,0,0,0,1-1,3.12,3.12,0,0,0,.34-1.49v-4.75a3.12,3.12,0,0,0-.34-1.49,2.38,2.38,0,0,0-1-1,3.18,3.18,0,0,0-2.9,0,2.44,2.44,0,0,0-1,1,3.12,3.12,0,0,0-.34,1.49v4.75a3.12,3.12,0,0,0,.34,1.49,2.5,2.5,0,0,0,1,1,3.18,3.18,0,0,0,2.9,0Z" transform="translate(0 -14)"/><path class="cls-1" d="M973.88,285.62h3.06v11.56h-3.06Zm6.69,4.55a1.71,1.71,0,0,0-.49-1.31,1.9,1.9,0,0,0-1.37-.47,1.73,1.73,0,0,0-1.31.48,1.79,1.79,0,0,0-.46,1.33l-.24-2.57A4.32,4.32,0,0,1,978,286a2.91,2.91,0,0,1,1.83-.55,3.44,3.44,0,0,1,2.83,1.23,5.36,5.36,0,0,1,1,3.48v7h-3Z" transform="translate(0 -14)"/><path class="cls-1" d="M991.86,285.62h6.23v2.6h-6.23Zm1.23-1.57a3.23,3.23,0,0,1,.71-2.3A2.81,2.81,0,0,1,996,281h2.12v2.72H996.8a.54.54,0,0,0-.49.25,1.09,1.09,0,0,0-.17.63v12.6h-3Z" transform="translate(0 -14)"/><path class="cls-1" d="M1000.15,281h3.05V284h-3.05Zm0,4.64h3.05v11.56h-3.05Z" transform="translate(0 -14)"/><path class="cls-1" d="M1006,285.62h3.28v11.56H1006Zm6,2.88a2.35,2.35,0,0,0-.74-.11,1.77,1.77,0,0,0-1.43.6,2.47,2.47,0,0,0-.51,1.65l-.23-3a4.07,4.07,0,0,1,1.24-1.6,2.69,2.69,0,0,1,1.67-.58,3.6,3.6,0,0,1,1.31.23,2.92,2.92,0,0,1,1,.67l-1.78,2.49A1.46,1.46,0,0,0,1012,288.5Z" transform="translate(0 -14)"/><path class="cls-1" d="M1018.84,297.35l-1.18-.61a4.08,4.08,0,0,1-1.81-1.77,5.82,5.82,0,0,1-.63-2.8v-1.3a6.54,6.54,0,0,1,.6-2.93,4.16,4.16,0,0,1,1.74-1.85,5.52,5.52,0,0,1,2.76-.64,4.35,4.35,0,0,1,2.59.76,4.61,4.61,0,0,1,1.64,2.2,9.46,9.46,0,0,1,.57,3.48v.76h-7.91v-2.06h5.12l0-.27a2.66,2.66,0,0,0-.63-1.55,1.78,1.78,0,0,0-1.35-.55,2.19,2.19,0,0,0-1.71.66,2.62,2.62,0,0,0-.61,1.86v1.47a2.44,2.44,0,0,0,.66,1.83,2.55,2.55,0,0,0,1.86.65,3.7,3.7,0,0,0,2.3-.84l2,1.77a6.76,6.76,0,0,1-2,1.28,6.08,6.08,0,0,1-2.27.45Z" transform="translate(0 -14)"/><path class="cls-1" d="M1156.38,296.64a4.68,4.68,0,0,1-2-2.06,7.1,7.1,0,0,1-.69-3.26V281h3V291.4a3,3,0,0,0,.75,2.16,2.81,2.81,0,0,0,2.1.77,2.87,2.87,0,0,0,2.13-.77,3,3,0,0,0,.75-2.16V281h3v10.34a7,7,0,0,1-.7,3.26,4.73,4.73,0,0,1-2,2.06,6.79,6.79,0,0,1-3.21.71A6.71,6.71,0,0,1,1156.38,296.64Z" transform="translate(0 -14)"/><path class="cls-1" d="M1168.62,285.62h3.05v11.56h-3.05Zm6.68,4.55a1.74,1.74,0,0,0-.48-1.31,1.91,1.91,0,0,0-1.38-.47,1.74,1.74,0,0,0-1.31.48,1.83,1.83,0,0,0-.46,1.33l-.23-2.57a4.3,4.3,0,0,1,1.25-1.63,3,3,0,0,1,1.83-.55,3.44,3.44,0,0,1,2.83,1.23,5.36,5.36,0,0,1,1,3.48v7h-3.06Z" transform="translate(0 -14)"/><path class="cls-1" d="M1184.75,297.35l-1-.18a9.6,9.6,0,0,1-1.84-.55,6.45,6.45,0,0,1-1.51-.85l1.88-2.35a7.53,7.53,0,0,0,1.75.82,5.87,5.87,0,0,0,1.74.29,4.59,4.59,0,0,0,1.66-.24c.39-.16.59-.38.59-.66a.7.7,0,0,0-.26-.59,1.54,1.54,0,0,0-.66-.29c-.26-.05-.64-.1-1.12-.15l-.41,0-.42-.05H1185a12.75,12.75,0,0,1-2.07-.41,2.66,2.66,0,0,1-1.32-.94,3.26,3.26,0,0,1-.54-2,3.28,3.28,0,0,1,2.17-3.24,6.77,6.77,0,0,1,2.57-.43,8.66,8.66,0,0,1,1.75.18,9.6,9.6,0,0,1,1.68.51,8.07,8.07,0,0,1,1.48.8l-1.82,2.22a7.54,7.54,0,0,0-1.58-.66,6,6,0,0,0-1.58-.23,3.91,3.91,0,0,0-1.44.21c-.34.14-.51.34-.51.59a.49.49,0,0,0,.27.45,2,2,0,0,0,.68.24c.27.05.67.1,1.19.16l.2,0,.2,0h.1l.1,0a12.91,12.91,0,0,1,2.2.4,2.85,2.85,0,0,1,1.44,1,3.41,3.41,0,0,1,.59,2.16,3.42,3.42,0,0,1-2.27,3.37,7.16,7.16,0,0,1-2.68.45Z" transform="translate(0 -14)"/><path class="cls-1" d="M1192.3,285.62H1198v2.6h-5.66Zm1.9,10.84a3.29,3.29,0,0,1-.7-2.29V282.25h3v11.17a1.1,1.1,0,0,0,.16.65.6.6,0,0,0,.5.23h.75v2.94h-1.54A2.87,2.87,0,0,1,1194.2,296.46Z" transform="translate(0 -14)"/><path class="cls-1" d="M1202.59,296.76a3.92,3.92,0,0,1-1.7-1.72,5.89,5.89,0,0,1-.59-2.73v-1.88a5.74,5.74,0,0,1,.59-2.69,3.88,3.88,0,0,1,1.7-1.7,6.47,6.47,0,0,1,5.4,0,3.9,3.9,0,0,1,1.71,1.7,5.74,5.74,0,0,1,.58,2.69v1.92a5.79,5.79,0,0,1-.58,2.7,4,4,0,0,1-1.71,1.71,6.47,6.47,0,0,1-5.4,0Zm4.13-2.89a2.13,2.13,0,0,0,.51-1.52v-1.92a2.08,2.08,0,0,0-.51-1.5,1.89,1.89,0,0,0-1.44-.54,1.85,1.85,0,0,0-1.42.54,2.08,2.08,0,0,0-.51,1.5v1.92a2.13,2.13,0,0,0,.51,1.52,1.82,1.82,0,0,0,1.42.54A1.89,1.89,0,0,0,1206.72,293.87Z" transform="translate(0 -14)"/><path class="cls-1" d="M1213.07,285.62h3v16.26h-3Zm4,11.21a3,3,0,0,1-1.1-1.46l.16-2.64a2.16,2.16,0,0,0,.2,1,1.42,1.42,0,0,0,.59.62,1.88,1.88,0,0,0,.93.21,1.64,1.64,0,0,0,1.33-.57,2.46,2.46,0,0,0,.47-1.6v-1.84a2.56,2.56,0,0,0-.47-1.64,1.63,1.63,0,0,0-1.33-.59,1.78,1.78,0,0,0-.93.22,1.39,1.39,0,0,0-.59.63,2.31,2.31,0,0,0-.2,1l-.23-2.56a3.86,3.86,0,0,1,1.23-1.57,2.79,2.79,0,0,1,1.68-.55,3.48,3.48,0,0,1,3.44,2.32,7.43,7.43,0,0,1,.45,2.73v1.85a7.27,7.27,0,0,1-.45,2.7,3.5,3.5,0,0,1-3.44,2.3A2.91,2.91,0,0,1,1217.06,296.83Z" transform="translate(0 -14)"/><path class="cls-1" d="M1225.48,285.62h3v16.26h-3Zm4,11.21a3,3,0,0,1-1.09-1.46l.15-2.64a2.16,2.16,0,0,0,.2,1,1.42,1.42,0,0,0,.59.62,1.88,1.88,0,0,0,.93.21,1.64,1.64,0,0,0,1.33-.57,2.46,2.46,0,0,0,.47-1.6v-1.84a2.56,2.56,0,0,0-.47-1.64,1.63,1.63,0,0,0-1.33-.59,1.78,1.78,0,0,0-.93.22,1.39,1.39,0,0,0-.59.63,2.31,2.31,0,0,0-.2,1l-.23-2.56a3.86,3.86,0,0,1,1.23-1.57,2.79,2.79,0,0,1,1.68-.55,3.48,3.48,0,0,1,3.44,2.32,7.43,7.43,0,0,1,.45,2.73v1.85a7.27,7.27,0,0,1-.45,2.7,3.5,3.5,0,0,1-3.44,2.3A2.91,2.91,0,0,1,1229.47,296.83Z" transform="translate(0 -14)"/><path class="cls-1" d="M1238.25,296.46a3.58,3.58,0,0,1-.92-2.69,3.14,3.14,0,0,1,1-2.57,4.76,4.76,0,0,1,3.09-.86h2.9l.15,2.33h-3a1.65,1.65,0,0,0-1,.27,1,1,0,0,0-.35.83.92.92,0,0,0,.44.84,2.41,2.41,0,0,0,1.31.28,4.57,4.57,0,0,0,1.82-.28.92.92,0,0,0,.6-.87l.23,1.68a1.54,1.54,0,0,1-.57,1.06,3.25,3.25,0,0,1-1.27.65,5.69,5.69,0,0,1-1.61.22A3.87,3.87,0,0,1,1238.25,296.46Zm6-6.61a1.48,1.48,0,0,0-.54-1.23,2.32,2.32,0,0,0-1.51-.44,4,4,0,0,0-1.28.21,3.79,3.79,0,0,0-1.13.59l-1.89-1.86a4.48,4.48,0,0,1,1.83-1.23,6.92,6.92,0,0,1,2.51-.44,6,6,0,0,1,2.59.51,3.7,3.7,0,0,1,1.63,1.47,4.58,4.58,0,0,1,.56,2.32v7.43h-2.77Z" transform="translate(0 -14)"/><path class="cls-1" d="M1250,281h3v16.2h-3Zm4,15.85a3,3,0,0,1-1.09-1.46l.15-2.64a2.16,2.16,0,0,0,.2,1,1.42,1.42,0,0,0,.59.62,1.88,1.88,0,0,0,.93.21,1.64,1.64,0,0,0,1.33-.57,2.41,2.41,0,0,0,.47-1.6v-1.84a2.5,2.5,0,0,0-.47-1.64,1.63,1.63,0,0,0-1.33-.59,1.78,1.78,0,0,0-.93.22,1.39,1.39,0,0,0-.59.63,2.31,2.31,0,0,0-.2,1l-.23-2.56a3.86,3.86,0,0,1,1.23-1.57,2.8,2.8,0,0,1,1.69-.55,3.46,3.46,0,0,1,3.43,2.32,7.42,7.42,0,0,1,.46,2.73v1.85a7.26,7.26,0,0,1-.46,2.7,3.48,3.48,0,0,1-3.43,2.3A2.92,2.92,0,0,1,1254,296.83Z" transform="translate(0 -14)"/><path class="cls-1" d="M1265.49,293.36a.85.85,0,0,0,.24.65.93.93,0,0,0,.69.23h.51v2.94h-1.56a2.86,2.86,0,0,1-2.16-.8,3.16,3.16,0,0,1-.77-2.26V281h3Z" transform="translate(0 -14)"/><path class="cls-1" d="M1272.33,297.35l-1.18-.61a4.08,4.08,0,0,1-1.81-1.77,5.82,5.82,0,0,1-.63-2.8v-1.3a6.54,6.54,0,0,1,.6-2.93,4.16,4.16,0,0,1,1.74-1.85,5.51,5.51,0,0,1,2.75-.64,4.39,4.39,0,0,1,2.6.76,4.61,4.61,0,0,1,1.64,2.2,9.47,9.47,0,0,1,.56,3.48v.76h-7.9v-2.06h5.12l0-.27a2.8,2.8,0,0,0-.63-1.55,1.78,1.78,0,0,0-1.36-.55,2.22,2.22,0,0,0-1.71.66,2.67,2.67,0,0,0-.6,1.86v1.47a2.44,2.44,0,0,0,.66,1.83,2.54,2.54,0,0,0,1.85.65,3.7,3.7,0,0,0,1.22-.22,3.8,3.8,0,0,0,1.09-.62l2,1.77a6.6,6.6,0,0,1-2,1.28,6.09,6.09,0,0,1-2.28.45Z" transform="translate(0 -14)"/></svg>