<svg id="Capa_1" data-name="Capa 1" xmlns="http://www.w3.org/2000/svg" xmlns:xlink="http://www.w3.org/1999/xlink" viewBox="0 0 813.1 607"><defs><style>.cls-1{fill:#002333;}.cls-2{fill:#00ff84;}.cls-3{fill:#00233f;}.cls-4{fill:none;stroke:#1a4c61;stroke-linecap:round;stroke-linejoin:round;stroke-width:3px;}.cls-5{opacity:0.85;}.cls-6{fill:#fff;}.cls-10,.cls-11,.cls-12,.cls-13,.cls-7,.cls-8,.cls-9{opacity:0.9;}.cls-7{fill:url(#Degradado_sin_nombre_15);}.cls-8{fill:url(#Degradado_sin_nombre_2);}.cls-9{fill:url(#Degradado_sin_nombre_3);}.cls-10{fill:url(#Degradado_sin_nombre_4);}.cls-11{fill:url(#Degradado_sin_nombre_5);}.cls-12{fill:url(#Degradado_sin_nombre_7);}.cls-13{fill:url(#Degradado_sin_nombre_8);}</style><linearGradient id="Degradado_sin_nombre_15" x1="665.37" y1="123.74" x2="665.37" y2="541.45" gradientUnits="userSpaceOnUse"><stop offset="0" stop-color="#00ff84"/><stop offset="1" stop-color="#00e4ff"/></linearGradient><linearGradient id="Degradado_sin_nombre_2" x1="583.37" y1="123.74" x2="583.37" y2="541.45" gradientUnits="userSpaceOnUse"><stop offset="0.58" stop-color="#00ff84"/><stop offset="1" stop-color="#00e4ff"/></linearGradient><linearGradient id="Degradado_sin_nombre_3" x1="499.37" y1="123.74" x2="499.37" y2="541.45" gradientUnits="userSpaceOnUse"><stop offset="0.44" stop-color="#00ff84"/><stop offset="1" stop-color="#00e4ff"/></linearGradient><linearGradient id="Degradado_sin_nombre_4" x1="414.37" y1="123.74" x2="414.37" y2="541.45" gradientUnits="userSpaceOnUse"><stop offset="0.2" stop-color="#00ff84"/><stop offset="1" stop-color="#00e4ff"/></linearGradient><linearGradient id="Degradado_sin_nombre_5" x1="330.37" y1="123.74" x2="330.37" y2="541.45" gradientUnits="userSpaceOnUse"><stop offset="0.7" stop-color="#00ff84"/><stop offset="1" stop-color="#00e4ff"/></linearGradient><linearGradient id="Degradado_sin_nombre_7" x1="247.37" y1="123.74" x2="247.37" y2="541.45" gradientUnits="userSpaceOnUse"><stop offset="0.45" stop-color="#00ff84"/><stop offset="1" stop-color="#00e4ff"/></linearGradient><linearGradient id="Degradado_sin_nombre_8" x1="163.37" y1="123.74" x2="163.37" y2="541.45" gradientUnits="userSpaceOnUse"><stop offset="0.95" stop-color="#00ff84"/><stop offset="1" stop-color="#00e4ff"/></linearGradient></defs><title>skillPoints</title><rect class="cls-1" width="813.1" height="607" rx="14.65"/><path class="cls-2" d="M36.91,57.72l-1.6-.34a13.3,13.3,0,0,1-3-1,11.63,11.63,0,0,1-2.56-1.64l2.11-3.16A9.54,9.54,0,0,0,35,53.36a10.91,10.91,0,0,0,3.67.61,6.88,6.88,0,0,0,3.74-.86,2.76,2.76,0,0,0,1.34-2.44h0a2.49,2.49,0,0,0-.6-1.76,3.41,3.41,0,0,0-1.55-1,17.7,17.7,0,0,0-2.47-.57l-.1,0-.1,0-.3,0a24.08,24.08,0,0,1-4-.94,5.69,5.69,0,0,1-2.64-2,6.38,6.38,0,0,1-1.09-4h0a7.18,7.18,0,0,1,1-3.91,6.45,6.45,0,0,1,3-2.46,11.68,11.68,0,0,1,4.7-.85,12.1,12.1,0,0,1,2.59.29,14,14,0,0,1,2.54.85,14.4,14.4,0,0,1,2.43,1.38L45.25,39a11.28,11.28,0,0,0-2.83-1.51,8.4,8.4,0,0,0-2.81-.51,6.37,6.37,0,0,0-3.53.83,2.67,2.67,0,0,0-1.25,2.36v0a2.46,2.46,0,0,0,.64,1.8,3.91,3.91,0,0,0,1.61,1c.65.2,1.55.42,2.71.65l.12,0,.13,0,.18,0,.18,0a19.94,19.94,0,0,1,3.73,1.07,5.9,5.9,0,0,1,2.51,2,6.36,6.36,0,0,1,1,3.79v0a6.91,6.91,0,0,1-1.06,3.86,6.6,6.6,0,0,1-3.08,2.44,12.83,12.83,0,0,1-4.86.83Z" transform="translate(-0.13)"/><path class="cls-2" d="M51.78,33.42h4v24h-4Zm1.79,17.7L62,40.3h4.38L53.77,55.62Zm4-3,3-2.25,6.67,11.64H62.77Z" transform="translate(-0.13)"/><path class="cls-2" d="M69.58,33.42h3.94v3.95H69.58Zm0,6.88h3.94V57.47H69.58Z" transform="translate(-0.13)"/><path class="cls-2" d="M82.15,52.43a1.38,1.38,0,0,0,.32,1,1.18,1.18,0,0,0,.89.33h1.18v3.79H82.39a4,4,0,0,1-3.09-1.19A4.77,4.77,0,0,1,78.2,53V33.42h4Z" transform="translate(-0.13)"/><path class="cls-2" d="M92,52.43a1.38,1.38,0,0,0,.32,1,1.18,1.18,0,0,0,.89.33h1.18v3.79H92.2a4,4,0,0,1-3.09-1.19A4.77,4.77,0,0,1,88,53V33.42H92Z" transform="translate(-0.13)"/><path class="cls-2" d="M106.92,40.3h4V64.45h-4ZM112.33,57a4.5,4.5,0,0,1-1.69-2.17l.23-3.76a3.64,3.64,0,0,0,.35,1.66,2.39,2.39,0,0,0,1,1,3.18,3.18,0,0,0,1.6.37,2.88,2.88,0,0,0,2.29-.93,3.85,3.85,0,0,0,.81-2.63V47.32a4,4,0,0,0-.81-2.69,2.83,2.83,0,0,0-2.29-1,3.41,3.41,0,0,0-1.6.35,2.39,2.39,0,0,0-1,1,3.74,3.74,0,0,0-.35,1.67l-.35-3.55a5.83,5.83,0,0,1,1.93-2.33,4.67,4.67,0,0,1,2.66-.82,5.64,5.64,0,0,1,3.12.85,5.27,5.27,0,0,1,2,2.47,10.28,10.28,0,0,1,.68,3.93v3.24a9.83,9.83,0,0,1-.69,3.88,5.14,5.14,0,0,1-2,2.46,5.75,5.75,0,0,1-3.16.84A4.65,4.65,0,0,1,112.33,57Z" transform="translate(-0.13)"/><path class="cls-2" d="M128.18,56.85a5.9,5.9,0,0,1-2.48-2.56,8.84,8.84,0,0,1-.85-4V47.45a8.65,8.65,0,0,1,.85-4,5.88,5.88,0,0,1,2.48-2.53,9.24,9.24,0,0,1,7.83,0,5.88,5.88,0,0,1,2.48,2.53,8.65,8.65,0,0,1,.85,4v2.84a8.71,8.71,0,0,1-.85,4A6,6,0,0,1,136,56.85a9.24,9.24,0,0,1-7.83,0ZM134.53,53a3.88,3.88,0,0,0,.86-2.69V47.45a3.8,3.8,0,0,0-.86-2.66,3.6,3.6,0,0,0-4.87,0,3.8,3.8,0,0,0-.86,2.66v2.84a3.88,3.88,0,0,0,.86,2.69,3.07,3.07,0,0,0,2.44,1A3.11,3.11,0,0,0,134.53,53Z" transform="translate(-0.13)"/><path class="cls-2" d="M143.69,33.42h3.94v3.95h-3.94Zm0,6.88h3.94V57.47h-3.94Z" transform="translate(-0.13)"/><path class="cls-2" d="M152.31,40.3h4V57.47h-4Zm10.17,6.77a3.25,3.25,0,0,0-.82-2.38,3.12,3.12,0,0,0-2.35-.85,3,3,0,0,0-2.25.79,3,3,0,0,0-.79,2.22l-.35-3.55a6.17,6.17,0,0,1,2-2.42,4.76,4.76,0,0,1,2.79-.83,5.22,5.22,0,0,1,4.26,1.83,7.94,7.94,0,0,1,1.51,5.17V57.47h-4Z" transform="translate(-0.13)"/><path class="cls-2" d="M169.91,40.3H178v3.46h-8.08Zm2.78,16.11a5,5,0,0,1-1-3.4V35.31h4V52.46a1.67,1.67,0,0,0,.24,1,.85.85,0,0,0,.73.34H178v3.79h-2.12A4,4,0,0,1,172.69,56.41Z" transform="translate(-0.13)"/><path class="cls-2" d="M187.07,57.72l-1.39-.29a11.57,11.57,0,0,1-2.61-.85,9.76,9.76,0,0,1-2.19-1.37l2.4-3A10.75,10.75,0,0,0,186,53.64a8,8,0,0,0,2.66.48,6.11,6.11,0,0,0,2.73-.49,1.54,1.54,0,0,0,.94-1.42,1.24,1.24,0,0,0-.47-1.06,2.62,2.62,0,0,0-1.16-.49c-.47-.09-1.13-.17-2-.25l-.45,0-.44-.05h-.27a16.94,16.94,0,0,1-3-.55,3.89,3.89,0,0,1-1.94-1.37,4.58,4.58,0,0,1-.79-2.89,5.35,5.35,0,0,1,.79-3,4.82,4.82,0,0,1,2.31-1.84,10,10,0,0,1,3.73-.62,13,13,0,0,1,2.59.26,12.17,12.17,0,0,1,2.4.75,11.63,11.63,0,0,1,2.18,1.21l-2.37,2.88A10.6,10.6,0,0,0,191,44a8.21,8.21,0,0,0-2.39-.38,4.94,4.94,0,0,0-2.36.45,1.43,1.43,0,0,0-.81,1.32,1,1,0,0,0,.44.86,2.91,2.91,0,0,0,1.12.41c.45.07,1.09.14,1.94.22l.26,0,.26,0h.11a.27.27,0,0,1,.13,0,17.68,17.68,0,0,1,3.16.54A4.24,4.24,0,0,1,195,49a4.93,4.93,0,0,1,.87,3.15,5.45,5.45,0,0,1-.82,3.07,5,5,0,0,1-2.46,1.88,10.91,10.91,0,0,1-4,.64Z" transform="translate(-0.13)"/><rect class="cls-3" x="105.87" y="123" width="617" height="421"/><line class="cls-4" x1="725.37" y1="124.5" x2="105.37" y2="124.5"/><line class="cls-4" x1="725.37" y1="164.5" x2="105.37" y2="164.5"/><line class="cls-4" x1="725.37" y1="257.5" x2="105.37" y2="257.5"/><line class="cls-4" x1="725.37" y1="352.5" x2="105.37" y2="352.5"/><line class="cls-4" x1="725.37" y1="448.5" x2="105.37" y2="448.5"/><line class="cls-4" x1="725.37" y1="544.5" x2="105.37" y2="544.5"/><line class="cls-4" x1="104.37" y1="125.5" x2="104.37" y2="549.5"/><line class="cls-4" x1="161.37" y1="550.5" x2="161.37" y2="544.5"/><line class="cls-4" x1="247.37" y1="550.5" x2="247.37" y2="544.5"/><line class="cls-4" x1="330.37" y1="550.5" x2="330.37" y2="544.5"/><line class="cls-4" x1="415.37" y1="550.5" x2="415.37" y2="544.5"/><line class="cls-4" x1="499.37" y1="550.5" x2="499.37" y2="544.5"/><line class="cls-4" x1="582.37" y1="550.5" x2="582.37" y2="544.5"/><line class="cls-4" x1="666.37" y1="550.5" x2="666.37" y2="544.5"/><line class="cls-4" x1="725.37" y1="550.5" x2="725.37" y2="544.5"/><g class="cls-5"><path class="cls-6" d="M76.37,170.29a5,5,0,0,1-2.14-1.92,5.39,5.39,0,0,1-.76-2.88v-.33a5.31,5.31,0,0,1,.78-2.78,5.09,5.09,0,0,1,2.07-2,4.44,4.44,0,0,1-1.77-1.64,4.21,4.21,0,0,1-.68-2.27V156a5.09,5.09,0,0,1,.72-2.72,4.77,4.77,0,0,1,2-1.82,7.35,7.35,0,0,1,6,0,4.77,4.77,0,0,1,2,1.82A5.09,5.09,0,0,1,85.3,156v.49a4.2,4.2,0,0,1-.68,2.29,4.52,4.52,0,0,1-1.8,1.62,5.3,5.3,0,0,1,2.1,2,5.23,5.23,0,0,1,.79,2.78v.33a5.39,5.39,0,0,1-.76,2.88,5.05,5.05,0,0,1-2.14,1.92,8,8,0,0,1-6.44,0Zm4.73-2.78a2.45,2.45,0,0,0,1-1,2.78,2.78,0,0,0,.36-1.42v-.19a2.6,2.6,0,0,0-.36-1.38,2.46,2.46,0,0,0-1-.93,3.57,3.57,0,0,0-3,0,2.4,2.4,0,0,0-1,.93,2.69,2.69,0,0,0-.36,1.39v.21a2.8,2.8,0,0,0,.36,1.42,2.47,2.47,0,0,0,1,1,3.29,3.29,0,0,0,1.51.33A3.2,3.2,0,0,0,81.1,167.51Zm-.22-8.67a2.07,2.07,0,0,0,.87-.91,2.84,2.84,0,0,0,.31-1.36v-.19a2.55,2.55,0,0,0-.31-1.28,2,2,0,0,0-.87-.85,2.67,2.67,0,0,0-1.29-.3,2.74,2.74,0,0,0-1.3.3,2.16,2.16,0,0,0-.87.85,2.67,2.67,0,0,0-.3,1.29v.21a2.91,2.91,0,0,0,.3,1.34,2.22,2.22,0,0,0,.87.9,2.53,2.53,0,0,0,1.3.32A2.47,2.47,0,0,0,80.88,158.84Z" transform="translate(-0.13)"/><path class="cls-6" d="M90.78,169.49a5.6,5.6,0,0,1-1.47-4.13v-9a5.55,5.55,0,0,1,1.48-4.13,7,7,0,0,1,8.58,0,5.6,5.6,0,0,1,1.47,4.14v9a5.6,5.6,0,0,1-1.47,4.14A5.84,5.84,0,0,1,95.08,171,5.78,5.78,0,0,1,90.78,169.49Zm6.21-2.4a3.43,3.43,0,0,0,.61-2.2v-8a3.46,3.46,0,0,0-.61-2.21,2.79,2.79,0,0,0-3.83,0,3.46,3.46,0,0,0-.61,2.21v8a3.43,3.43,0,0,0,.61,2.2,2.77,2.77,0,0,0,3.83,0Z" transform="translate(-0.13)"/></g><g class="cls-5"><path class="cls-6" d="M76.54,265.27a4.63,4.63,0,0,1-1.93-2A7.27,7.27,0,0,1,74,260h0a11,11,0,0,1,.26-2.29,14.8,14.8,0,0,1,.76-2.4c0-.13.11-.26.17-.4l.18-.38,4.15-8.5h3.59l-4.89,9.84-.46-.49a2.42,2.42,0,0,1,1-1,3.19,3.19,0,0,1,1.52-.35,5.07,5.07,0,0,1,2.7.69,4.4,4.4,0,0,1,1.72,2,7.82,7.82,0,0,1,.59,3.18h0a7.24,7.24,0,0,1-.67,3.26,4.54,4.54,0,0,1-1.93,2.06,6.09,6.09,0,0,1-3,.71A6.15,6.15,0,0,1,76.54,265.27Zm4.82-3.11a2.88,2.88,0,0,0,.62-2h0a3.45,3.45,0,0,0-.63-2.22,2.25,2.25,0,0,0-1.84-.78,2,2,0,0,0-1.71.79,3.51,3.51,0,0,0-.61,2.22v0a2.79,2.79,0,0,0,.63,2,2.24,2.24,0,0,0,1.76.69A2.28,2.28,0,0,0,81.36,262.16Z" transform="translate(-0.13)"/><path class="cls-6" d="M90.09,264.49a5.6,5.6,0,0,1-1.47-4.13v-9a5.59,5.59,0,0,1,1.48-4.13,7,7,0,0,1,8.59,0,5.6,5.6,0,0,1,1.47,4.14v9a5.56,5.56,0,0,1-1.48,4.14,7,7,0,0,1-8.59,0Zm6.21-2.4a3.43,3.43,0,0,0,.62-2.2v-8a3.46,3.46,0,0,0-.62-2.21,2.78,2.78,0,0,0-3.82,0,3.46,3.46,0,0,0-.61,2.21v8a3.43,3.43,0,0,0,.61,2.2,2.75,2.75,0,0,0,3.82,0Z" transform="translate(-0.13)"/></g><g class="cls-5"><path class="cls-6" d="M73.31,356.83,79.66,343h3.53L77,356.67h9.27v3.07h-13Zm8.24-5.67h3.2v11.62h-3.2Z" transform="translate(-0.13)"/><path class="cls-6" d="M90.87,361.49a5.6,5.6,0,0,1-1.47-4.13v-9a5.55,5.55,0,0,1,1.48-4.13,7,7,0,0,1,8.58,0,5.6,5.6,0,0,1,1.47,4.14v9a5.56,5.56,0,0,1-1.48,4.14,7,7,0,0,1-8.58,0Zm6.21-2.4a3.43,3.43,0,0,0,.61-2.2v-8a3.46,3.46,0,0,0-.61-2.21,2.77,2.77,0,0,0-3.83,0,3.46,3.46,0,0,0-.61,2.21v8a3.43,3.43,0,0,0,.61,2.2,2.77,2.77,0,0,0,3.83,0Z" transform="translate(-0.13)"/></g><g class="cls-5"><path class="cls-6" d="M74,454.89l6.83-9a6.27,6.27,0,0,0,.82-1.43A3.93,3.93,0,0,0,82,443v0a2,2,0,0,0-.6-1.53,2.52,2.52,0,0,0-1.72-.54,2.36,2.36,0,0,0-1.73.65,3.08,3.08,0,0,0-.8,1.87H73.77a7.21,7.21,0,0,1,1-3,5.15,5.15,0,0,1,2-1.93,6.11,6.11,0,0,1,2.88-.66,7.17,7.17,0,0,1,3.08.6,4.34,4.34,0,0,1,1.95,1.76A5.43,5.43,0,0,1,85.3,443v0a7,7,0,0,1-.45,2.42,9.23,9.23,0,0,1-1.26,2.3l-5.29,7h7.11v3.11H74Z" transform="translate(-0.13)"/><path class="cls-6" d="M90.14,456.49a5.6,5.6,0,0,1-1.47-4.13v-9a5.55,5.55,0,0,1,1.48-4.13,7,7,0,0,1,8.58,0,5.6,5.6,0,0,1,1.48,4.14v9a5.6,5.6,0,0,1-1.48,4.14,7,7,0,0,1-8.59,0Zm6.21-2.4a3.43,3.43,0,0,0,.61-2.2v-8a3.46,3.46,0,0,0-.61-2.21,2.77,2.77,0,0,0-3.83,0,3.52,3.52,0,0,0-.61,2.21v8a3.49,3.49,0,0,0,.61,2.2,2.77,2.77,0,0,0,3.83,0Z" transform="translate(-0.13)"/></g><g class="cls-5"><path class="cls-6" d="M83,553.49a5.6,5.6,0,0,1-1.47-4.13v-9A5.55,5.55,0,0,1,83,536.26a7,7,0,0,1,8.58,0A5.56,5.56,0,0,1,93,540.39v9a5.6,5.6,0,0,1-1.48,4.14,7,7,0,0,1-8.59,0Zm6.21-2.4a3.43,3.43,0,0,0,.61-2.2v-8a3.46,3.46,0,0,0-.61-2.21,2.77,2.77,0,0,0-3.83,0,3.52,3.52,0,0,0-.61,2.21v8a3.49,3.49,0,0,0,.61,2.2,2.77,2.77,0,0,0,3.83,0Z" transform="translate(-0.13)"/></g><g class="cls-5"><path class="cls-6" d="M133.59,570.22l-1.16-.25a9.62,9.62,0,0,1-2.16-.72,8.37,8.37,0,0,1-1.84-1.18l1.51-2.28a7.18,7.18,0,0,0,2.25,1.28,8.05,8.05,0,0,0,2.65.44,5,5,0,0,0,2.7-.62,2,2,0,0,0,1-1.76h0a1.84,1.84,0,0,0-.43-1.27,2.41,2.41,0,0,0-1.13-.69,13.55,13.55,0,0,0-1.78-.42H135l-.21,0A16.47,16.47,0,0,1,132,562a4,4,0,0,1-1.91-1.41,4.54,4.54,0,0,1-.79-2.87v0a5.19,5.19,0,0,1,.74-2.81,4.63,4.63,0,0,1,2.15-1.78,9.23,9.23,0,0,1,5.26-.4,9.45,9.45,0,0,1,1.84.61,9.89,9.89,0,0,1,1.75,1l-1.39,2.36a8.25,8.25,0,0,0-2-1.09,5.94,5.94,0,0,0-2-.37,4.58,4.58,0,0,0-2.55.6,1.93,1.93,0,0,0-.9,1.7h0a1.81,1.81,0,0,0,.47,1.31,2.89,2.89,0,0,0,1.16.7c.47.14,1.12.3,1.95.47h.09l.09,0,.13,0,.14,0a13.46,13.46,0,0,1,2.69.78,4.22,4.22,0,0,1,1.81,1.45,4.62,4.62,0,0,1,.73,2.74v0a4.91,4.91,0,0,1-.77,2.78,4.77,4.77,0,0,1-2.22,1.77,9.2,9.2,0,0,1-3.51.6Z" transform="translate(-0.13)"/><path class="cls-6" d="M147.76,570.22l-1.24-.65a4.39,4.39,0,0,1-1.9-1.89,6.37,6.37,0,0,1-.66-3v-1.4a7.15,7.15,0,0,1,.63-3.14,4.4,4.4,0,0,1,1.83-2,5.69,5.69,0,0,1,2.88-.69,4.6,4.6,0,0,1,2.72.8,4.94,4.94,0,0,1,1.72,2.3,10,10,0,0,1,.59,3.63V565h-8.42v-2.09h5.77v-.13a3.6,3.6,0,0,0-.73-2,2,2,0,0,0-1.64-.72,2.49,2.49,0,0,0-2,.81,3.37,3.37,0,0,0-.71,2.29v1.57a2.66,2.66,0,0,0,2.92,2.93,3.77,3.77,0,0,0,1.39-.27,4.25,4.25,0,0,0,1.23-.74l1.87,1.74a7.14,7.14,0,0,1-2.12,1.37,6.27,6.27,0,0,1-2.37.48Z" transform="translate(-0.13)"/><path class="cls-6" d="M157.43,557.64h2.86v17.44h-2.86Zm3.91,12a3.22,3.22,0,0,1-1.22-1.57l.17-2.71a2.6,2.6,0,0,0,.25,1.2,1.73,1.73,0,0,0,.73.76,2.31,2.31,0,0,0,1.16.26,2.08,2.08,0,0,0,1.64-.66,2.81,2.81,0,0,0,.59-1.9v-2.33a2.88,2.88,0,0,0-.59-1.94,2,2,0,0,0-1.64-.69,2.42,2.42,0,0,0-1.16.26,1.68,1.68,0,0,0-.73.76,2.6,2.6,0,0,0-.25,1.2l-.25-2.57a4.12,4.12,0,0,1,1.39-1.67,3.28,3.28,0,0,1,1.91-.6,4.12,4.12,0,0,1,2.26.61,3.83,3.83,0,0,1,1.42,1.79,7.3,7.3,0,0,1,.49,2.84V565a7.16,7.16,0,0,1-.49,2.8,3.88,3.88,0,0,1-1.45,1.77,4.13,4.13,0,0,1-2.28.61A3.41,3.41,0,0,1,161.34,569.66Z" transform="translate(-0.13)"/><path class="cls-6" d="M179,562.46v2.72h-8.26v-2.72Z" transform="translate(-0.13)"/><path class="cls-6" d="M186.42,570h-2.86V555.92l-2.29,1.16v-3l2.53-1.4h2.62Z" transform="translate(-0.13)"/><path class="cls-6" d="M196.09,561.42l.29.43a1.81,1.81,0,0,1-.9.8,3.51,3.51,0,0,1-1.43.26,4.05,4.05,0,0,1-2.25-.63,4.22,4.22,0,0,1-1.5-1.79,6.24,6.24,0,0,1-.54-2.67h0a6.52,6.52,0,0,1,.59-2.88,4,4,0,0,1,1.7-1.81,6.06,6.06,0,0,1,5.36,0A4.14,4.14,0,0,1,199.1,555a6.58,6.58,0,0,1,.59,2.9h0a8.61,8.61,0,0,1-.25,1.94,14.39,14.39,0,0,1-.7,2.14,3.05,3.05,0,0,1-.13.32c-.05.11-.09.22-.14.32L195.06,570h-3Zm.19-1.81a2.85,2.85,0,0,0,.55-1.88h0a2.72,2.72,0,0,0-.55-1.83,2.22,2.22,0,0,0-3.11,0,2.72,2.72,0,0,0-.55,1.83h0a2.8,2.8,0,0,0,.55,1.87,2.16,2.16,0,0,0,3.11,0Z" transform="translate(-0.13)"/></g><g class="cls-5"><path class="cls-6" d="M212.68,570.22l-1.15-.25a9.45,9.45,0,0,1-2.16-.72,8.68,8.68,0,0,1-1.85-1.18l1.52-2.28a7.18,7.18,0,0,0,2.25,1.28,8,8,0,0,0,2.65.44,5,5,0,0,0,2.7-.62,2,2,0,0,0,1-1.76h0a1.79,1.79,0,0,0-.43-1.27,2.37,2.37,0,0,0-1.12-.69,13.55,13.55,0,0,0-1.78-.42h-.14l-.22,0a16.56,16.56,0,0,1-2.86-.68,4,4,0,0,1-1.91-1.41,4.54,4.54,0,0,1-.79-2.87v0a5.19,5.19,0,0,1,.74-2.81,4.59,4.59,0,0,1,2.15-1.78,8.45,8.45,0,0,1,3.39-.61,8.58,8.58,0,0,1,1.87.21,9.68,9.68,0,0,1,1.84.61,9.89,9.89,0,0,1,1.75,1l-1.39,2.36a8.43,8.43,0,0,0-2-1.09,5.94,5.94,0,0,0-2-.37,4.58,4.58,0,0,0-2.55.6,1.93,1.93,0,0,0-.9,1.7h0a1.81,1.81,0,0,0,.46,1.31,2.93,2.93,0,0,0,1.17.7c.46.14,1.12.3,1.95.47h.09l.09,0,.13,0,.13,0a13.37,13.37,0,0,1,2.7.78,4.22,4.22,0,0,1,1.81,1.45,4.62,4.62,0,0,1,.72,2.74v0a4.9,4.9,0,0,1-.76,2.78,4.77,4.77,0,0,1-2.22,1.77,9.2,9.2,0,0,1-3.51.6Z" transform="translate(-0.13)"/><path class="cls-6" d="M226.86,570.22l-1.24-.65a4.39,4.39,0,0,1-1.9-1.89,6.37,6.37,0,0,1-.66-3v-1.4a7.15,7.15,0,0,1,.63-3.14,4.38,4.38,0,0,1,1.82-2,5.75,5.75,0,0,1,2.89-.69,4.62,4.62,0,0,1,2.72.8,4.94,4.94,0,0,1,1.72,2.3,10,10,0,0,1,.59,3.63V565H225v-2.09h5.77l0-.13a3.6,3.6,0,0,0-.72-2,2.05,2.05,0,0,0-1.64-.72,2.51,2.51,0,0,0-2,.81,3.37,3.37,0,0,0-.7,2.29v1.57a3,3,0,0,0,.76,2.17,2.91,2.91,0,0,0,2.15.76,3.74,3.74,0,0,0,1.39-.27,4.3,4.3,0,0,0,1.24-.74l1.86,1.74a6.89,6.89,0,0,1-2.12,1.37,6.2,6.2,0,0,1-2.37.48Z" transform="translate(-0.13)"/><path class="cls-6" d="M236.53,557.64h2.86v17.44h-2.86Zm3.91,12a3.22,3.22,0,0,1-1.22-1.57l.17-2.71a2.6,2.6,0,0,0,.25,1.2,1.68,1.68,0,0,0,.73.76,2.28,2.28,0,0,0,1.15.26,2.09,2.09,0,0,0,1.65-.66,2.81,2.81,0,0,0,.59-1.9v-2.33a2.88,2.88,0,0,0-.59-1.94,2,2,0,0,0-1.65-.69,2.38,2.38,0,0,0-1.15.26,1.63,1.63,0,0,0-.73.76,2.6,2.6,0,0,0-.25,1.2l-.26-2.57a4.22,4.22,0,0,1,1.4-1.67,3.26,3.26,0,0,1,1.91-.6,4.07,4.07,0,0,1,2.25.61,3.84,3.84,0,0,1,1.43,1.79,7.3,7.3,0,0,1,.49,2.84V565a7.16,7.16,0,0,1-.49,2.8,3.89,3.89,0,0,1-1.46,1.77,4.09,4.09,0,0,1-2.28.61A3.38,3.38,0,0,1,240.44,569.66Z" transform="translate(-0.13)"/><path class="cls-6" d="M258.1,562.46v2.72h-8.27v-2.72Z" transform="translate(-0.13)"/><path class="cls-6" d="M261.18,567.51l6-8a5,5,0,0,0,.72-1.26,3.3,3.3,0,0,0,.26-1.21v0a1.74,1.74,0,0,0-.53-1.35,2.19,2.19,0,0,0-1.51-.48,2.07,2.07,0,0,0-1.53.58,2.7,2.7,0,0,0-.7,1.64H261a6.51,6.51,0,0,1,.83-2.67,4.58,4.58,0,0,1,1.77-1.7,5.3,5.3,0,0,1,2.53-.58,6.21,6.21,0,0,1,2.71.53,3.82,3.82,0,0,1,1.72,1.55,4.79,4.79,0,0,1,.59,2.44v0a6.26,6.26,0,0,1-.4,2.13,8.14,8.14,0,0,1-1.11,2L265,567.31h6.26V570h-10Z" transform="translate(-0.13)"/><path class="cls-6" d="M275.37,568.92a4.94,4.94,0,0,1-1.29-3.63v-7.9a4.87,4.87,0,0,1,1.3-3.63,6.15,6.15,0,0,1,7.55,0,4.9,4.9,0,0,1,1.3,3.64v7.9a4.91,4.91,0,0,1-1.3,3.63,6.15,6.15,0,0,1-7.56,0Zm5.47-2.11a3,3,0,0,0,.54-1.94v-7.06a3,3,0,0,0-.54-1.94,2.45,2.45,0,0,0-3.37,0,3,3,0,0,0-.54,1.94v7.06a3,3,0,0,0,.54,1.94,2.45,2.45,0,0,0,3.37,0Z" transform="translate(-0.13)"/></g><g class="cls-5"><path class="cls-6" d="M301.37,570.22l-1.16-.25a9.45,9.45,0,0,1-2.16-.72,8.37,8.37,0,0,1-1.84-1.18l1.51-2.28a7.18,7.18,0,0,0,2.25,1.28,8.05,8.05,0,0,0,2.65.44,5,5,0,0,0,2.7-.62,2,2,0,0,0,1-1.76h0a1.84,1.84,0,0,0-.43-1.27,2.46,2.46,0,0,0-1.13-.69,13.55,13.55,0,0,0-1.78-.42h-.14l-.21,0a16.47,16.47,0,0,1-2.87-.68,4,4,0,0,1-1.91-1.41,4.54,4.54,0,0,1-.79-2.87v0a5.19,5.19,0,0,1,.74-2.81,4.59,4.59,0,0,1,2.15-1.78,9.23,9.23,0,0,1,5.26-.4,9.45,9.45,0,0,1,1.84.61,9.89,9.89,0,0,1,1.75,1l-1.39,2.36a8.25,8.25,0,0,0-2-1.09,5.94,5.94,0,0,0-2-.37,4.58,4.58,0,0,0-2.55.6,1.93,1.93,0,0,0-.9,1.7h0a1.81,1.81,0,0,0,.47,1.31,2.89,2.89,0,0,0,1.16.7c.47.14,1.12.3,1.95.47h.09l.09,0,.13,0,.13,0a13.37,13.37,0,0,1,2.7.78,4.22,4.22,0,0,1,1.81,1.45,4.62,4.62,0,0,1,.73,2.74v0a4.91,4.91,0,0,1-.77,2.78,4.77,4.77,0,0,1-2.22,1.77,9.2,9.2,0,0,1-3.51.6Z" transform="translate(-0.13)"/><path class="cls-6" d="M315.54,570.22l-1.24-.65a4.39,4.39,0,0,1-1.9-1.89,6.37,6.37,0,0,1-.66-3v-1.4a7.15,7.15,0,0,1,.63-3.14,4.4,4.4,0,0,1,1.83-2,5.69,5.69,0,0,1,2.88-.69,4.62,4.62,0,0,1,2.72.8,4.94,4.94,0,0,1,1.72,2.3,10,10,0,0,1,.59,3.63V565h-8.42v-2.09h5.77v-.13a3.6,3.6,0,0,0-.73-2,2,2,0,0,0-1.64-.72,2.49,2.49,0,0,0-2,.81,3.37,3.37,0,0,0-.71,2.29v1.57a2.66,2.66,0,0,0,2.92,2.93,3.77,3.77,0,0,0,1.39-.27,4.38,4.38,0,0,0,1.23-.74l1.87,1.74a7.14,7.14,0,0,1-2.12,1.37,6.27,6.27,0,0,1-2.37.48Z" transform="translate(-0.13)"/><path class="cls-6" d="M325.21,557.64h2.86v17.44h-2.86Zm3.91,12a3.22,3.22,0,0,1-1.22-1.57l.17-2.71a2.6,2.6,0,0,0,.25,1.2,1.73,1.73,0,0,0,.73.76,2.31,2.31,0,0,0,1.16.26,2.08,2.08,0,0,0,1.64-.66,2.81,2.81,0,0,0,.59-1.9v-2.33a2.88,2.88,0,0,0-.59-1.94,2,2,0,0,0-1.64-.69,2.42,2.42,0,0,0-1.16.26,1.68,1.68,0,0,0-.73.76,2.6,2.6,0,0,0-.25,1.2l-.25-2.57a4.12,4.12,0,0,1,1.39-1.67,3.28,3.28,0,0,1,1.91-.6,4.12,4.12,0,0,1,2.26.61,3.83,3.83,0,0,1,1.42,1.79,7.3,7.3,0,0,1,.49,2.84V565a7.16,7.16,0,0,1-.49,2.8,3.88,3.88,0,0,1-1.45,1.77,4.14,4.14,0,0,1-2.29.61A3.4,3.4,0,0,1,329.12,569.66Z" transform="translate(-0.13)"/><path class="cls-6" d="M346.78,562.46v2.72h-8.26v-2.72Z" transform="translate(-0.13)"/><path class="cls-6" d="M349.86,567.51l6-8a5,5,0,0,0,.72-1.26,3.3,3.3,0,0,0,.26-1.21v0a1.74,1.74,0,0,0-.53-1.35,2.19,2.19,0,0,0-1.51-.48,2.07,2.07,0,0,0-1.53.58,2.76,2.76,0,0,0-.7,1.64h-2.93a6.51,6.51,0,0,1,.83-2.67,4.58,4.58,0,0,1,1.77-1.7,5.3,5.3,0,0,1,2.53-.58,6.18,6.18,0,0,1,2.71.53,3.82,3.82,0,0,1,1.72,1.55,4.79,4.79,0,0,1,.59,2.44v0a6,6,0,0,1-.4,2.13,8.14,8.14,0,0,1-1.11,2l-4.65,6.12h6.25V570h-10Z" transform="translate(-0.13)"/><path class="cls-6" d="M367.19,570h-2.85V555.92l-2.3,1.16v-3l2.54-1.4h2.61Z" transform="translate(-0.13)"/></g><g class="cls-5"><path class="cls-6" d="M381.11,570.22,380,570a9.45,9.45,0,0,1-2.16-.72,8.37,8.37,0,0,1-1.84-1.18l1.51-2.28a7.18,7.18,0,0,0,2.25,1.28,8,8,0,0,0,2.65.44,5,5,0,0,0,2.7-.62,2,2,0,0,0,1-1.76h0a1.79,1.79,0,0,0-.43-1.27,2.37,2.37,0,0,0-1.12-.69,13.55,13.55,0,0,0-1.78-.42h-.14l-.22,0a16.56,16.56,0,0,1-2.86-.68,4,4,0,0,1-1.91-1.41,4.54,4.54,0,0,1-.79-2.87v0a5.19,5.19,0,0,1,.74-2.81,4.59,4.59,0,0,1,2.15-1.78,8.45,8.45,0,0,1,3.39-.61,8.58,8.58,0,0,1,1.87.21,9.68,9.68,0,0,1,1.84.61,9.89,9.89,0,0,1,1.75,1l-1.39,2.36a8.43,8.43,0,0,0-2-1.09,5.94,5.94,0,0,0-2-.37,4.58,4.58,0,0,0-2.55.6,1.93,1.93,0,0,0-.9,1.7h0a1.77,1.77,0,0,0,.47,1.31,2.82,2.82,0,0,0,1.16.7c.47.14,1.12.3,1.95.47h.09l.09,0,.13,0,.13,0a13.37,13.37,0,0,1,2.7.78,4.22,4.22,0,0,1,1.81,1.45,4.62,4.62,0,0,1,.72,2.74v0a4.9,4.9,0,0,1-.76,2.78,4.77,4.77,0,0,1-2.22,1.77,9.2,9.2,0,0,1-3.51.6Z" transform="translate(-0.13)"/><path class="cls-6" d="M395.29,570.22l-1.24-.65a4.39,4.39,0,0,1-1.9-1.89,6.37,6.37,0,0,1-.66-3v-1.4a7.15,7.15,0,0,1,.63-3.14,4.4,4.4,0,0,1,1.83-2,5.69,5.69,0,0,1,2.88-.69,4.62,4.62,0,0,1,2.72.8,4.94,4.94,0,0,1,1.72,2.3,10,10,0,0,1,.59,3.63V565h-8.42v-2.09h5.77l0-.13a3.6,3.6,0,0,0-.72-2,2.05,2.05,0,0,0-1.64-.72,2.51,2.51,0,0,0-2,.81,3.42,3.42,0,0,0-.7,2.29v1.57a2.92,2.92,0,0,0,.77,2.17,2.87,2.87,0,0,0,2.14.76,3.83,3.83,0,0,0,1.4-.27,4.38,4.38,0,0,0,1.23-.74l1.87,1.74a7.14,7.14,0,0,1-2.12,1.37,6.28,6.28,0,0,1-2.38.48Z" transform="translate(-0.13)"/><path class="cls-6" d="M405,557.64h2.86v17.44H405Zm3.91,12a3.22,3.22,0,0,1-1.22-1.57l.17-2.71a2.6,2.6,0,0,0,.25,1.2,1.68,1.68,0,0,0,.73.76,2.28,2.28,0,0,0,1.15.26,2.09,2.09,0,0,0,1.65-.66,2.81,2.81,0,0,0,.59-1.9v-2.33a2.88,2.88,0,0,0-.59-1.94,2,2,0,0,0-1.65-.69,2.38,2.38,0,0,0-1.15.26,1.63,1.63,0,0,0-.73.76,2.6,2.6,0,0,0-.25,1.2l-.25-2.57a4.12,4.12,0,0,1,1.39-1.67,3.26,3.26,0,0,1,1.91-.6,4.12,4.12,0,0,1,2.26.61,3.83,3.83,0,0,1,1.42,1.79,7.3,7.3,0,0,1,.49,2.84V565a7.16,7.16,0,0,1-.49,2.8,3.89,3.89,0,0,1-1.46,1.77,4.09,4.09,0,0,1-2.28.61A3.4,3.4,0,0,1,408.87,569.66Z" transform="translate(-0.13)"/><path class="cls-6" d="M426.53,562.46v2.72h-8.26v-2.72Z" transform="translate(-0.13)"/><path class="cls-6" d="M429.61,567.51l6-8a5,5,0,0,0,.72-1.26,3.3,3.3,0,0,0,.26-1.21v0a1.74,1.74,0,0,0-.53-1.35,2.19,2.19,0,0,0-1.51-.48,2.07,2.07,0,0,0-1.53.58,2.7,2.7,0,0,0-.7,1.64H429.4a6.51,6.51,0,0,1,.83-2.67,4.58,4.58,0,0,1,1.77-1.7,5.3,5.3,0,0,1,2.53-.58,6.21,6.21,0,0,1,2.71.53,3.82,3.82,0,0,1,1.72,1.55,4.79,4.79,0,0,1,.59,2.44v0a6.26,6.26,0,0,1-.4,2.13,8.14,8.14,0,0,1-1.11,2l-4.66,6.12h6.26V570h-10Z" transform="translate(-0.13)"/><path class="cls-6" d="M442.25,567.51l6-8a5.36,5.36,0,0,0,.73-1.26,3.28,3.28,0,0,0,.25-1.21v0a1.74,1.74,0,0,0-.53-1.35,2.17,2.17,0,0,0-1.51-.48,2,2,0,0,0-1.52.58,2.64,2.64,0,0,0-.7,1.64H442a6.37,6.37,0,0,1,.84-2.67,4.49,4.49,0,0,1,1.76-1.7,5.35,5.35,0,0,1,2.54-.58,6.24,6.24,0,0,1,2.71.53,3.74,3.74,0,0,1,1.71,1.55,4.79,4.79,0,0,1,.59,2.44v0a6,6,0,0,1-.4,2.13,8.1,8.1,0,0,1-1.1,2L446,567.31h6.26V570h-10Z" transform="translate(-0.13)"/></g><g class="cls-5"><path class="cls-6" d="M466,570.22l-1.15-.25a9.45,9.45,0,0,1-2.16-.72,8.37,8.37,0,0,1-1.84-1.18l1.51-2.28a7.18,7.18,0,0,0,2.25,1.28,8.05,8.05,0,0,0,2.65.44,5,5,0,0,0,2.7-.62,2,2,0,0,0,1-1.76h0a1.84,1.84,0,0,0-.42-1.27,2.46,2.46,0,0,0-1.13-.69,13.55,13.55,0,0,0-1.78-.42h-.14l-.21,0a16.47,16.47,0,0,1-2.87-.68,4,4,0,0,1-1.91-1.41,4.54,4.54,0,0,1-.79-2.87v0a5.19,5.19,0,0,1,.74-2.81,4.59,4.59,0,0,1,2.15-1.78,9.23,9.23,0,0,1,5.26-.4,9.45,9.45,0,0,1,1.84.61,9.89,9.89,0,0,1,1.75,1L472,556.67a8.25,8.25,0,0,0-2-1.09,5.94,5.94,0,0,0-2-.37,4.58,4.58,0,0,0-2.55.6,1.93,1.93,0,0,0-.9,1.7h0a1.81,1.81,0,0,0,.47,1.31,2.89,2.89,0,0,0,1.16.7c.47.14,1.12.3,2,.47h.09l.09,0,.13,0,.13,0a13.37,13.37,0,0,1,2.7.78,4.22,4.22,0,0,1,1.81,1.45,4.62,4.62,0,0,1,.72,2.74v0a4.9,4.9,0,0,1-.76,2.78,4.77,4.77,0,0,1-2.22,1.77,9.2,9.2,0,0,1-3.51.6Z" transform="translate(-0.13)"/><path class="cls-6" d="M480.14,570.22l-1.24-.65a4.39,4.39,0,0,1-1.9-1.89,6.37,6.37,0,0,1-.66-3v-1.4a7.15,7.15,0,0,1,.63-3.14,4.4,4.4,0,0,1,1.83-2,5.69,5.69,0,0,1,2.88-.69,4.62,4.62,0,0,1,2.72.8,4.94,4.94,0,0,1,1.72,2.3,10,10,0,0,1,.59,3.63V565h-8.42v-2.09h5.77l0-.13a3.6,3.6,0,0,0-.72-2,2,2,0,0,0-1.64-.72,2.49,2.49,0,0,0-2,.81,3.37,3.37,0,0,0-.71,2.29v1.57a2.92,2.92,0,0,0,.77,2.17,2.88,2.88,0,0,0,2.15.76,3.77,3.77,0,0,0,1.39-.27,4.38,4.38,0,0,0,1.23-.74l1.87,1.74a7.14,7.14,0,0,1-2.12,1.37,6.27,6.27,0,0,1-2.37.48Z" transform="translate(-0.13)"/><path class="cls-6" d="M489.81,557.64h2.86v17.44h-2.86Zm3.91,12a3.22,3.22,0,0,1-1.22-1.57l.17-2.71a2.6,2.6,0,0,0,.25,1.2,1.68,1.68,0,0,0,.73.76,2.28,2.28,0,0,0,1.15.26,2.09,2.09,0,0,0,1.65-.66A2.81,2.81,0,0,0,497,565v-2.33a2.88,2.88,0,0,0-.59-1.94,2,2,0,0,0-1.65-.69,2.38,2.38,0,0,0-1.15.26,1.63,1.63,0,0,0-.73.76,2.6,2.6,0,0,0-.25,1.2l-.25-2.57a4.12,4.12,0,0,1,1.39-1.67,3.26,3.26,0,0,1,1.91-.6,4.12,4.12,0,0,1,2.26.61,3.83,3.83,0,0,1,1.42,1.79,7.3,7.3,0,0,1,.49,2.84V565a7.16,7.16,0,0,1-.49,2.8,3.88,3.88,0,0,1-1.45,1.77,4.14,4.14,0,0,1-2.29.61A3.4,3.4,0,0,1,493.72,569.66Z" transform="translate(-0.13)"/><path class="cls-6" d="M511.38,562.46v2.72h-8.26v-2.72Z" transform="translate(-0.13)"/><path class="cls-6" d="M514.46,567.51l6-8a5,5,0,0,0,.72-1.26,3.3,3.3,0,0,0,.26-1.21v0a1.74,1.74,0,0,0-.53-1.35,2.19,2.19,0,0,0-1.51-.48,2.07,2.07,0,0,0-1.53.58,2.7,2.7,0,0,0-.7,1.64h-2.93a6.51,6.51,0,0,1,.83-2.67,4.58,4.58,0,0,1,1.77-1.7,5.3,5.3,0,0,1,2.53-.58,6.21,6.21,0,0,1,2.71.53,3.82,3.82,0,0,1,1.72,1.55,4.79,4.79,0,0,1,.59,2.44v0a6.26,6.26,0,0,1-.4,2.13,8.14,8.14,0,0,1-1.11,2l-4.65,6.12h6.25V570h-10Z" transform="translate(-0.13)"/><path class="cls-6" d="M530.51,570.22l-1.17-.55a4.5,4.5,0,0,1-1.87-1.61,5.42,5.42,0,0,1-.83-2.52h2.93a2.44,2.44,0,0,0,.39,1.07,2,2,0,0,0,.78.64,2.75,2.75,0,0,0,1.11.21,2.24,2.24,0,0,0,1.66-.58,2.19,2.19,0,0,0,.58-1.64v-.47a2.74,2.74,0,0,0-.51-1.77,1.84,1.84,0,0,0-1.49-.63h-1.35v-2.72h1.35a1.56,1.56,0,0,0,1.27-.54,2.33,2.33,0,0,0,.45-1.53v-.41a1.91,1.91,0,0,0-.49-1.42,1.8,1.8,0,0,0-1.36-.49,2,2,0,0,0-1,.22,1.92,1.92,0,0,0-.73.69,3.21,3.21,0,0,0-.43,1.13h-2.91a6.21,6.21,0,0,1,.88-2.59,4.42,4.42,0,0,1,1.76-1.65,5.17,5.17,0,0,1,2.45-.56,4.89,4.89,0,0,1,3.51,1.18,4.34,4.34,0,0,1,1.25,3.33v.41a3.74,3.74,0,0,1-.65,2.18,3.86,3.86,0,0,1-1.87,1.38,3.27,3.27,0,0,1,2.07,1.35,4.62,4.62,0,0,1,.74,2.69v.41a5.33,5.33,0,0,1-.59,2.59,3.92,3.92,0,0,1-1.73,1.64,6.11,6.11,0,0,1-2.72.56Z" transform="translate(-0.13)"/></g><g class="cls-5"><path class="cls-6" d="M549.83,570.22l-1.15-.25a9.45,9.45,0,0,1-2.16-.72,8.68,8.68,0,0,1-1.85-1.18l1.52-2.28a7.18,7.18,0,0,0,2.25,1.28,8,8,0,0,0,2.65.44,5,5,0,0,0,2.7-.62,2,2,0,0,0,1-1.76h0a1.79,1.79,0,0,0-.43-1.27,2.37,2.37,0,0,0-1.12-.69,13.55,13.55,0,0,0-1.78-.42h-.14l-.22,0a16.56,16.56,0,0,1-2.86-.68,4,4,0,0,1-1.91-1.41,4.54,4.54,0,0,1-.79-2.87v0a5.19,5.19,0,0,1,.74-2.81,4.59,4.59,0,0,1,2.15-1.78,8.45,8.45,0,0,1,3.39-.61,8.58,8.58,0,0,1,1.87.21,9.68,9.68,0,0,1,1.84.61,9.89,9.89,0,0,1,1.75,1l-1.39,2.36a8.43,8.43,0,0,0-2-1.09,5.94,5.94,0,0,0-2-.37,4.58,4.58,0,0,0-2.55.6,1.93,1.93,0,0,0-.9,1.7h0a1.81,1.81,0,0,0,.46,1.31,2.86,2.86,0,0,0,1.17.7c.46.14,1.12.3,1.95.47H552l.09,0,.13,0,.13,0a13.37,13.37,0,0,1,2.7.78,4.22,4.22,0,0,1,1.81,1.45,4.62,4.62,0,0,1,.72,2.74v0a4.9,4.9,0,0,1-.76,2.78,4.77,4.77,0,0,1-2.22,1.77,9.2,9.2,0,0,1-3.51.6Z" transform="translate(-0.13)"/><path class="cls-6" d="M564,570.22l-1.24-.65a4.34,4.34,0,0,1-1.9-1.89,6.37,6.37,0,0,1-.66-3v-1.4a7.15,7.15,0,0,1,.63-3.14,4.33,4.33,0,0,1,1.82-2,5.72,5.72,0,0,1,2.89-.69,4.62,4.62,0,0,1,2.72.8,4.94,4.94,0,0,1,1.72,2.3,10,10,0,0,1,.59,3.63V565h-8.42v-2.09h5.76v-.13a3.53,3.53,0,0,0-.73-2,2,2,0,0,0-1.63-.72,2.51,2.51,0,0,0-2,.81,3.37,3.37,0,0,0-.7,2.29v1.57a2.65,2.65,0,0,0,2.91,2.93,3.74,3.74,0,0,0,1.39-.27,4.44,4.44,0,0,0,1.24-.74l1.86,1.74a6.89,6.89,0,0,1-2.12,1.37,6.2,6.2,0,0,1-2.37.48Z" transform="translate(-0.13)"/><path class="cls-6" d="M573.68,557.64h2.86v17.44h-2.86Zm3.91,12a3.22,3.22,0,0,1-1.22-1.57l.17-2.71a2.6,2.6,0,0,0,.25,1.2,1.71,1.71,0,0,0,.72.76,2.34,2.34,0,0,0,1.16.26,2.09,2.09,0,0,0,1.65-.66,2.81,2.81,0,0,0,.59-1.9v-2.33a2.88,2.88,0,0,0-.59-1.94,2,2,0,0,0-1.65-.69,2.45,2.45,0,0,0-1.16.26,1.66,1.66,0,0,0-.72.76,2.6,2.6,0,0,0-.25,1.2l-.26-2.57a4.14,4.14,0,0,1,1.4-1.67,3.26,3.26,0,0,1,1.91-.6,4.07,4.07,0,0,1,2.25.61,3.84,3.84,0,0,1,1.43,1.79,7.3,7.3,0,0,1,.49,2.84V565a7.15,7.15,0,0,1-.5,2.8,3.81,3.81,0,0,1-1.45,1.77,4.09,4.09,0,0,1-2.28.61A3.38,3.38,0,0,1,577.59,569.66Z" transform="translate(-0.13)"/><path class="cls-6" d="M595.25,562.46v2.72H587v-2.72Z" transform="translate(-0.13)"/><path class="cls-6" d="M598.33,567.51l6-8a5,5,0,0,0,.72-1.26,3.3,3.3,0,0,0,.26-1.21v0a1.74,1.74,0,0,0-.53-1.35,2.2,2.2,0,0,0-1.52-.48,2.06,2.06,0,0,0-1.52.58,2.7,2.7,0,0,0-.7,1.64h-2.93a6.36,6.36,0,0,1,.83-2.67,4.58,4.58,0,0,1,1.77-1.7,5.28,5.28,0,0,1,2.53-.58A6.21,6.21,0,0,1,606,553a3.74,3.74,0,0,1,1.71,1.55,4.7,4.7,0,0,1,.6,2.44v0a6.26,6.26,0,0,1-.4,2.13,8.14,8.14,0,0,1-1.11,2l-4.66,6.12h6.26V570h-10Z" transform="translate(-0.13)"/><path class="cls-6" d="M610.27,564.82l5.59-12.13H619l-5.45,12h8.16v2.7H610.27Zm7.25-5h2.82v10.22h-2.82Z" transform="translate(-0.13)"/></g><g class="cls-5"><path class="cls-6" d="M634.77,570.22l-1.15-.25a9.45,9.45,0,0,1-2.16-.72,8.68,8.68,0,0,1-1.85-1.18l1.52-2.28a7.18,7.18,0,0,0,2.25,1.28,8,8,0,0,0,2.65.44,5,5,0,0,0,2.7-.62,2,2,0,0,0,1-1.76h0a1.79,1.79,0,0,0-.43-1.27,2.37,2.37,0,0,0-1.12-.69,13.55,13.55,0,0,0-1.78-.42h-.14l-.22,0a16.56,16.56,0,0,1-2.86-.68,4,4,0,0,1-1.91-1.41,4.54,4.54,0,0,1-.79-2.87v0a5.19,5.19,0,0,1,.74-2.81,4.59,4.59,0,0,1,2.15-1.78,8.45,8.45,0,0,1,3.39-.61,8.58,8.58,0,0,1,1.87.21,9.68,9.68,0,0,1,1.84.61,9.89,9.89,0,0,1,1.75,1l-1.39,2.36a8.43,8.43,0,0,0-2-1.09,5.94,5.94,0,0,0-2-.37,4.58,4.58,0,0,0-2.55.6,1.93,1.93,0,0,0-.9,1.7h0a1.81,1.81,0,0,0,.46,1.31,2.86,2.86,0,0,0,1.17.7c.46.14,1.12.3,2,.47h.09l.09,0,.13,0,.13,0a13.37,13.37,0,0,1,2.7.78,4.22,4.22,0,0,1,1.81,1.45,4.62,4.62,0,0,1,.72,2.74v0a4.9,4.9,0,0,1-.76,2.78,4.77,4.77,0,0,1-2.22,1.77,9.2,9.2,0,0,1-3.51.6Z" transform="translate(-0.13)"/><path class="cls-6" d="M649,570.22l-1.24-.65a4.39,4.39,0,0,1-1.9-1.89,6.37,6.37,0,0,1-.66-3v-1.4a7.15,7.15,0,0,1,.63-3.14,4.38,4.38,0,0,1,1.82-2,5.75,5.75,0,0,1,2.89-.69,4.62,4.62,0,0,1,2.72.8,4.94,4.94,0,0,1,1.72,2.3,10,10,0,0,1,.59,3.63V565H647.1v-2.09h5.77l0-.13a3.6,3.6,0,0,0-.72-2,2.05,2.05,0,0,0-1.64-.72,2.51,2.51,0,0,0-2,.81,3.37,3.37,0,0,0-.7,2.29v1.57a2.65,2.65,0,0,0,2.91,2.93,3.74,3.74,0,0,0,1.39-.27,4.44,4.44,0,0,0,1.24-.74l1.86,1.74a6.89,6.89,0,0,1-2.12,1.37,6.2,6.2,0,0,1-2.37.48Z" transform="translate(-0.13)"/><path class="cls-6" d="M658.62,557.64h2.86v17.44h-2.86Zm3.91,12a3.22,3.22,0,0,1-1.22-1.57l.17-2.71a2.6,2.6,0,0,0,.25,1.2,1.68,1.68,0,0,0,.73.76,2.28,2.28,0,0,0,1.15.26,2.09,2.09,0,0,0,1.65-.66,2.81,2.81,0,0,0,.59-1.9v-2.33a2.88,2.88,0,0,0-.59-1.94,2,2,0,0,0-1.65-.69,2.38,2.38,0,0,0-1.15.26,1.63,1.63,0,0,0-.73.76,2.6,2.6,0,0,0-.25,1.2l-.26-2.57a4.22,4.22,0,0,1,1.4-1.67,3.26,3.26,0,0,1,1.91-.6,4.07,4.07,0,0,1,2.25.61,3.84,3.84,0,0,1,1.43,1.79,7.3,7.3,0,0,1,.49,2.84V565a7.16,7.16,0,0,1-.49,2.8,3.89,3.89,0,0,1-1.46,1.77,4.09,4.09,0,0,1-2.28.61A3.38,3.38,0,0,1,662.53,569.66Z" transform="translate(-0.13)"/><path class="cls-6" d="M680.19,562.46v2.72h-8.27v-2.72Z" transform="translate(-0.13)"/><path class="cls-6" d="M683.27,567.51l6-8a5,5,0,0,0,.72-1.26,3.3,3.3,0,0,0,.26-1.21v0a1.74,1.74,0,0,0-.53-1.35,2.2,2.2,0,0,0-1.52-.48,2.06,2.06,0,0,0-1.52.58,2.7,2.7,0,0,0-.7,1.64h-2.93a6.51,6.51,0,0,1,.83-2.67,4.58,4.58,0,0,1,1.77-1.7,5.3,5.3,0,0,1,2.53-.58,6.21,6.21,0,0,1,2.71.53,3.82,3.82,0,0,1,1.72,1.55,4.79,4.79,0,0,1,.59,2.44v0a6.26,6.26,0,0,1-.4,2.13,8.14,8.14,0,0,1-1.11,2L687,567.31h6.26V570h-10Z" transform="translate(-0.13)"/><path class="cls-6" d="M698.72,569.66A4.39,4.39,0,0,1,697,568a6.18,6.18,0,0,1-.82-2.58H699a2.33,2.33,0,0,0,.67,1.49,2.07,2.07,0,0,0,1.47.53,1.91,1.91,0,0,0,1.57-.67,2.89,2.89,0,0,0,.56-1.9v-1.45a2.93,2.93,0,0,0-.54-1.89,1.78,1.78,0,0,0-1.5-.67,2.17,2.17,0,0,0-1.21.36,2.46,2.46,0,0,0-.85,1h-2.64v-9.56h9.09v2.73H699.4v3.49a2.69,2.69,0,0,1,1-.57,3.73,3.73,0,0,1,1.22-.21,4.62,4.62,0,0,1,2.43.62,4,4,0,0,1,1.55,1.82,7.09,7.09,0,0,1,.53,2.88v1.45a6.49,6.49,0,0,1-.59,2.88,4.15,4.15,0,0,1-1.72,1.82,5.38,5.38,0,0,1-2.69.63A5.17,5.17,0,0,1,698.72,569.66Z" transform="translate(-0.13)"/></g><rect class="cls-7" x="639.87" y="123" width="51" height="421"/><rect class="cls-8" x="557.87" y="367" width="51" height="177"/><rect class="cls-9" x="473.87" y="310" width="51" height="234"/><rect class="cls-10" x="388.87" y="210" width="51" height="334"/><rect class="cls-11" x="304.87" y="415" width="51" height="129"/><rect class="cls-12" x="221.87" y="310" width="51" height="234"/><rect class="cls-13" x="137.87" y="519" width="51" height="25"/></svg>