<svg id="Capa_1" data-name="Capa 1" xmlns="http://www.w3.org/2000/svg" viewBox="0 0 813.1 607"><defs><style>.cls-1{fill:#002333;}.cls-2{fill:#00ff84;}.cls-3{opacity:0.85;}.cls-4{fill:#fff;}.cls-5{fill:#ff6f00;}.cls-6{fill:#786ccb;}.cls-7{fill:#00bbec;}.cls-8{fill:#ff4476;}.cls-9{fill:#898e8d;}.cls-10{fill:#b30472;}.cls-11{fill:#47baea;}.cls-12{fill:#b049ea;}.cls-13{fill:#61ca81;}.cls-14{fill:#e8df21;}.cls-15{fill:#89c984;}.cls-16{fill:#898d8c;}.cls-17{fill:#004fea;}.cls-18{fill:#5ce9ea;}.cls-19{fill:#c00446;}.cls-20{fill:#e5de3e;}.cls-21{fill:#e56f17;}.cls-22{fill:#98e948;}.cls-23{fill:#6804ea;}</style></defs><title>skillCloud</title><rect class="cls-1" width="813.1" height="607" rx="14.65"/><path class="cls-2" d="M47.46,33.42H52v24h-3.7V39.13l.16,1.06L43.23,54.46H40.05L34.79,40.52,35,39.13V57.47H31.25v-24h4.57l5.82,16Z" transform="translate(-0.13)"/><path class="cls-2" d="M55.5,40.3h3.86l5.52,14.92-2.36,3.66ZM71,40.3,63.56,61.49a5.28,5.28,0,0,1-1.05,1.86,3.55,3.55,0,0,1-1.58,1,7.73,7.73,0,0,1-2.32.3h-.84V60.82h.84a2.1,2.1,0,0,0,2.22-1.53l6.35-19Z" transform="translate(-0.13)"/><path class="cls-2" d="M88.77,57.72l-1.59-.34a13.22,13.22,0,0,1-3-1,11.33,11.33,0,0,1-2.55-1.64l2.1-3.16a9.54,9.54,0,0,0,3.11,1.78,10.91,10.91,0,0,0,3.67.61,6.94,6.94,0,0,0,3.75-.86,2.77,2.77,0,0,0,1.33-2.44h0A2.49,2.49,0,0,0,95,48.9a3.41,3.41,0,0,0-1.55-1A17.37,17.37,0,0,0,91,47.37l-.1,0-.1,0-.29,0a23.83,23.83,0,0,1-4-.94,5.66,5.66,0,0,1-2.65-2,6.38,6.38,0,0,1-1.09-4h0a7.18,7.18,0,0,1,1-3.91,6.45,6.45,0,0,1,3-2.46,11.68,11.68,0,0,1,4.7-.85,12.1,12.1,0,0,1,2.59.29,14,14,0,0,1,2.54.85A14.4,14.4,0,0,1,99,35.69L97.11,39a11.28,11.28,0,0,0-2.83-1.51,8.4,8.4,0,0,0-2.81-.51,6.37,6.37,0,0,0-3.53.83,2.67,2.67,0,0,0-1.25,2.36v0a2.46,2.46,0,0,0,.64,1.8,3.88,3.88,0,0,0,1.62,1,27.27,27.27,0,0,0,2.7.65l.12,0,.13,0,.18,0,.18,0A19.94,19.94,0,0,1,96,44.75a5.84,5.84,0,0,1,2.51,2,6.36,6.36,0,0,1,1,3.79v0a6.91,6.91,0,0,1-1.06,3.86,6.6,6.6,0,0,1-3.08,2.44,12.79,12.79,0,0,1-4.86.83Z" transform="translate(-0.13)"/><path class="cls-2" d="M103.64,33.42h4v24h-4Zm1.79,17.7,8.42-10.82h4.38l-12.6,15.32Zm4-3,3-2.25,6.67,11.64h-4.45Z" transform="translate(-0.13)"/><path class="cls-2" d="M121.44,33.42h3.94v3.95h-3.94Zm0,6.88h3.94V57.47h-3.94Z" transform="translate(-0.13)"/><path class="cls-2" d="M134,52.43a1.38,1.38,0,0,0,.31,1,1.18,1.18,0,0,0,.89.33h1.18v3.79h-2.15a4,4,0,0,1-3.09-1.19,4.77,4.77,0,0,1-1.1-3.36V33.42h4Z" transform="translate(-0.13)"/><path class="cls-2" d="M143.82,52.43a1.38,1.38,0,0,0,.32,1,1.18,1.18,0,0,0,.89.33h1.18v3.79h-2.15A4,4,0,0,1,141,56.33a4.77,4.77,0,0,1-1.1-3.36V33.42h3.95Z" transform="translate(-0.13)"/><path class="cls-2" d="M164.54,57.72l-1.93-1.08a7.26,7.26,0,0,1-3-3.1,10.37,10.37,0,0,1-1-4.78v-6.6a10.38,10.38,0,0,1,1-4.79,7.35,7.35,0,0,1,3-3.11,9.13,9.13,0,0,1,4.54-1.09,8.32,8.32,0,0,1,3.93.93A8,8,0,0,1,174,36.77a10.77,10.77,0,0,1,1.59,4.13h-4.07a5.83,5.83,0,0,0-.94-2,4.49,4.49,0,0,0-1.53-1.33,4.05,4.05,0,0,0-1.91-.46,4.32,4.32,0,0,0-2.37.62,4,4,0,0,0-1.55,1.76,6.25,6.25,0,0,0-.55,2.7v6.6a6.24,6.24,0,0,0,.55,2.69,4,4,0,0,0,1.55,1.76,4.49,4.49,0,0,0,2.37.61,4.22,4.22,0,0,0,1.93-.45,4.33,4.33,0,0,0,1.53-1.31,5.32,5.32,0,0,0,.92-2.06h4.07A10.81,10.81,0,0,1,174,54.12a7.9,7.9,0,0,1-2.93,2.68,8.35,8.35,0,0,1-3.91.92Z" transform="translate(-0.13)"/><path class="cls-2" d="M183.69,52.43a1.38,1.38,0,0,0,.32,1,1.16,1.16,0,0,0,.89.33h1.17v3.79h-2.15a4,4,0,0,1-3.08-1.19,4.73,4.73,0,0,1-1.1-3.36V33.42h3.95Z" transform="translate(-0.13)"/><path class="cls-2" d="M192.39,56.85a5.87,5.87,0,0,1-2.49-2.56,9,9,0,0,1-.85-4V47.45a8.78,8.78,0,0,1,.85-4,5.85,5.85,0,0,1,2.49-2.53,9.22,9.22,0,0,1,7.82,0,5.83,5.83,0,0,1,2.48,2.53,8.65,8.65,0,0,1,.85,4v2.84a8.71,8.71,0,0,1-.85,4,5.9,5.9,0,0,1-2.48,2.54,9.22,9.22,0,0,1-7.82,0ZM198.73,53a3.88,3.88,0,0,0,.86-2.69V47.45a3.8,3.8,0,0,0-.86-2.66,3.58,3.58,0,0,0-4.86,0,3.75,3.75,0,0,0-.86,2.66v2.84a3.88,3.88,0,0,0,.85,2.69,3.6,3.6,0,0,0,4.87,0Z" transform="translate(-0.13)"/><path class="cls-2" d="M211.55,50.74a3.25,3.25,0,0,0,.81,2.36,3,3,0,0,0,2.28.83,3.11,3.11,0,0,0,2.27-.78,3,3,0,0,0,.79-2.26l.24,3.67a5.07,5.07,0,0,1-1.66,2.25,4.41,4.41,0,0,1-2.83.91,5.36,5.36,0,0,1-4.32-1.8,7.65,7.65,0,0,1-1.53-5.1V40.3h4ZM217.7,40.3h3.94V57.47H217.7Z" transform="translate(-0.13)"/><path class="cls-2" d="M228.63,56.9a5.34,5.34,0,0,1-2-2.46,9.93,9.93,0,0,1-.69-3.9V47.27a10.26,10.26,0,0,1,.68-3.92,5.31,5.31,0,0,1,2-2.48,5.6,5.6,0,0,1,3.12-.85,4.63,4.63,0,0,1,2.65.81,5.8,5.8,0,0,1,1.93,2.28L236,46.77a3.8,3.8,0,0,0-.35-1.69,2.46,2.46,0,0,0-1-1.06,3.29,3.29,0,0,0-1.6-.36,2.82,2.82,0,0,0-2.28,1,4,4,0,0,0-.81,2.68v3.24a3.9,3.9,0,0,0,.81,2.64,2.87,2.87,0,0,0,2.28.94,3.18,3.18,0,0,0,1.6-.38,2.41,2.41,0,0,0,1-1.06A3.74,3.74,0,0,0,236,51l.23,3.77a4.71,4.71,0,0,1-1.64,2.16,4.6,4.6,0,0,1-2.74.81A5.69,5.69,0,0,1,228.63,56.9ZM236,33.42h4v24h-4Z" transform="translate(-0.13)"/><g class="cls-3"><path class="cls-4" d="M575.69,547.93h2.9v15.39h-2.9Zm1.35,6.36h9v2.8h-9Zm7.08-6.36H587v15.39h-2.9Z" transform="translate(-0.13)"/><path class="cls-4" d="M592.05,562.92a3.81,3.81,0,0,1-1.61-1.64,5.43,5.43,0,0,1-.56-2.58v-1.79a5.35,5.35,0,0,1,.56-2.56,3.76,3.76,0,0,1,1.61-1.62,6.18,6.18,0,0,1,5.14,0,3.73,3.73,0,0,1,1.62,1.62,5.47,5.47,0,0,1,.55,2.56v1.82a5.47,5.47,0,0,1-.55,2.56,3.8,3.8,0,0,1-1.62,1.63,6.18,6.18,0,0,1-5.14,0Zm3.93-2.75a2,2,0,0,0,.48-1.44v-1.82a2,2,0,0,0-.48-1.43,1.81,1.81,0,0,0-1.37-.51,1.76,1.76,0,0,0-1.35.51,2,2,0,0,0-.48,1.43v1.82a2,2,0,0,0,.48,1.44,1.75,1.75,0,0,0,1.35.52A1.82,1.82,0,0,0,596,560.17Z" transform="translate(-0.13)"/><path class="cls-4" d="M607.84,552.33h2.89l-4.12,11h-2.06l-4.13-11h2.89l2.27,6.89Z" transform="translate(-0.13)"/><path class="cls-4" d="M615.34,563.48l-1.13-.58a3.93,3.93,0,0,1-1.72-1.68,5.65,5.65,0,0,1-.59-2.66v-1.24a6.32,6.32,0,0,1,.56-2.78,3.93,3.93,0,0,1,1.66-1.76,5.31,5.31,0,0,1,2.62-.61,4.16,4.16,0,0,1,2.46.72,4.37,4.37,0,0,1,1.56,2.09,9.07,9.07,0,0,1,.54,3.31V559h-7.52v-2h4.87l0-.25a2.58,2.58,0,0,0-.6-1.47,1.65,1.65,0,0,0-1.28-.52,2.14,2.14,0,0,0-1.63.62,2.55,2.55,0,0,0-.57,1.77v1.4a2.32,2.32,0,0,0,.63,1.74,2.38,2.38,0,0,0,1.76.61,3.29,3.29,0,0,0,1.15-.21,3.43,3.43,0,0,0,1-.58l1.89,1.68a6.23,6.23,0,0,1-1.92,1.21,5.74,5.74,0,0,1-2.16.43Z" transform="translate(-0.13)"/><path class="cls-4" d="M623.84,552.33H627v11h-3.11Zm5.66,2.74a2.17,2.17,0,0,0-.71-.1,1.69,1.69,0,0,0-1.36.57,2.34,2.34,0,0,0-.48,1.57l-.22-2.86a3.87,3.87,0,0,1,1.18-1.53,2.6,2.6,0,0,1,1.59-.55,3.52,3.52,0,0,1,1.25.22,2.88,2.88,0,0,1,1,.64l-1.7,2.36A1.43,1.43,0,0,0,629.5,555.07Z" transform="translate(-0.13)"/><path class="cls-4" d="M640.77,562.92a3.77,3.77,0,0,1-1.62-1.64,5.55,5.55,0,0,1-.55-2.58v-1.79a5.47,5.47,0,0,1,.55-2.56,3.73,3.73,0,0,1,1.62-1.62,6.18,6.18,0,0,1,5.14,0,3.73,3.73,0,0,1,1.62,1.62,5.47,5.47,0,0,1,.55,2.56v1.82a5.47,5.47,0,0,1-.55,2.56,3.8,3.8,0,0,1-1.62,1.63,6.18,6.18,0,0,1-5.14,0Zm3.92-2.75a2,2,0,0,0,.49-1.44v-1.82a2,2,0,0,0-.49-1.43,2.06,2.06,0,0,0-2.71,0,2,2,0,0,0-.48,1.43v1.82a2.06,2.06,0,0,0,.47,1.44,2,2,0,0,0,2.72,0Z" transform="translate(-0.13)"/><path class="cls-4" d="M656.56,552.33h2.89l-4.13,11h-2.05l-4.13-11H652l2.27,6.89Z" transform="translate(-0.13)"/><path class="cls-4" d="M664.06,563.48l-1.13-.58a3.88,3.88,0,0,1-1.72-1.68,5.53,5.53,0,0,1-.59-2.66v-1.24a6.32,6.32,0,0,1,.56-2.78,4,4,0,0,1,1.65-1.76,5.37,5.37,0,0,1,2.62-.61,4.19,4.19,0,0,1,2.47.72,4.37,4.37,0,0,1,1.56,2.09,9.07,9.07,0,0,1,.54,3.31V559H662.5v-2h4.87l0-.25a2.58,2.58,0,0,0-.6-1.47,1.66,1.66,0,0,0-1.29-.52,2.12,2.12,0,0,0-1.62.62,2.5,2.5,0,0,0-.58,1.77v1.4a2.32,2.32,0,0,0,.63,1.74,2.43,2.43,0,0,0,1.77.61,3.33,3.33,0,0,0,1.15-.21,3.43,3.43,0,0,0,1-.58l1.89,1.68a6.16,6.16,0,0,1-1.93,1.21,5.65,5.65,0,0,1-2.15.43Z" transform="translate(-0.13)"/><path class="cls-4" d="M672.56,552.33h3.11v11h-3.11Zm5.66,2.74a2.17,2.17,0,0,0-.71-.1,1.69,1.69,0,0,0-1.36.57,2.34,2.34,0,0,0-.48,1.57l-.22-2.86a3.78,3.78,0,0,1,1.18-1.53,2.6,2.6,0,0,1,1.59-.55,3.47,3.47,0,0,1,1.24.22,2.78,2.78,0,0,1,1,.64l-1.69,2.36A1.43,1.43,0,0,0,678.22,555.07Z" transform="translate(-0.13)"/><path class="cls-4" d="M686.79,552.33h5.37v2.48h-5.37Zm1.8,10.31a3.13,3.13,0,0,1-.67-2.18V549.14h2.9v10.6a1,1,0,0,0,.16.62.52.52,0,0,0,.46.22h.72v2.79H690.7A2.73,2.73,0,0,1,688.59,562.64Z" transform="translate(-0.13)"/><path class="cls-4" d="M694.7,547.93h2.9v15.39h-2.9Zm6.36,8.73a1.67,1.67,0,0,0-.47-1.25,1.81,1.81,0,0,0-1.3-.44,1.68,1.68,0,0,0-1.25.45,1.74,1.74,0,0,0-.44,1.26l-.22-2.43a4.18,4.18,0,0,1,1.19-1.56,2.89,2.89,0,0,1,1.74-.52,3.26,3.26,0,0,1,2.69,1.17,5.1,5.1,0,0,1,1,3.31v6.67h-2.9Z" transform="translate(-0.13)"/><path class="cls-4" d="M709.94,563.48l-1.13-.58a3.88,3.88,0,0,1-1.72-1.68,5.53,5.53,0,0,1-.59-2.66v-1.24a6.32,6.32,0,0,1,.56-2.78,4,4,0,0,1,1.65-1.76,5.37,5.37,0,0,1,2.62-.61,4.19,4.19,0,0,1,2.47.72,4.37,4.37,0,0,1,1.56,2.09,9.07,9.07,0,0,1,.54,3.31V559h-7.52v-2h4.87l0-.25a2.58,2.58,0,0,0-.6-1.47,1.66,1.66,0,0,0-1.29-.52,2.12,2.12,0,0,0-1.62.62,2.5,2.5,0,0,0-.58,1.77v1.4a2.32,2.32,0,0,0,.63,1.74,2.43,2.43,0,0,0,1.77.61,3.33,3.33,0,0,0,1.15-.21,3.43,3.43,0,0,0,1-.58l1.89,1.68a6.16,6.16,0,0,1-1.93,1.21,5.65,5.65,0,0,1-2.15.43Z" transform="translate(-0.13)"/><path class="cls-4" d="M727.34,563.48l-1.12-.6a4,4,0,0,1-1.69-1.74,6,6,0,0,1-.59-2.75v-1.18a5.84,5.84,0,0,1,.59-2.72,3.9,3.9,0,0,1,1.69-1.72,5.62,5.62,0,0,1,2.69-.6,6.71,6.71,0,0,1,1.7.21,5.26,5.26,0,0,1,1.43.6,3.88,3.88,0,0,1,1.06.95l-1.87,1.82a3,3,0,0,0-1-.58,3.28,3.28,0,0,0-1.13-.2,2.34,2.34,0,0,0-1.7.59,2.17,2.17,0,0,0-.61,1.65v1.18a2.27,2.27,0,0,0,.61,1.7,2.3,2.3,0,0,0,1.7.6,2.94,2.94,0,0,0,1.14-.23,2.88,2.88,0,0,0,.94-.63l1.87,1.92a4,4,0,0,1-1.07.94,5.24,5.24,0,0,1-1.43.59,7.05,7.05,0,0,1-1.69.2Z" transform="translate(-0.13)"/><path class="cls-4" d="M734.9,547.93h2.9v2.9h-2.9Zm0,4.4h2.9v11h-2.9Z" transform="translate(-0.13)"/><path class="cls-4" d="M740.5,552.33h3.11v11H740.5Zm5.66,2.74a2.17,2.17,0,0,0-.71-.1,1.7,1.7,0,0,0-1.36.57,2.34,2.34,0,0,0-.48,1.57l-.22-2.86a3.87,3.87,0,0,1,1.18-1.53,2.6,2.6,0,0,1,1.59-.55,3.52,3.52,0,0,1,1.25.22,2.88,2.88,0,0,1,1,.64l-1.7,2.36A1.43,1.43,0,0,0,746.16,555.07Z" transform="translate(-0.13)"/><path class="cls-4" d="M752.62,563.48l-1.12-.6a4,4,0,0,1-1.7-1.74,6.1,6.1,0,0,1-.58-2.75v-1.18a6,6,0,0,1,.58-2.72,4,4,0,0,1,1.7-1.72,5.62,5.62,0,0,1,2.69-.6,6.71,6.71,0,0,1,1.7.21,5.26,5.26,0,0,1,1.43.6,3.88,3.88,0,0,1,1.06.95l-1.87,1.82a3,3,0,0,0-1-.58,3.28,3.28,0,0,0-1.13-.2,2.34,2.34,0,0,0-1.7.59,2.17,2.17,0,0,0-.61,1.65v1.18a2.27,2.27,0,0,0,.61,1.7,2.3,2.3,0,0,0,1.7.6,2.94,2.94,0,0,0,1.14-.23,2.88,2.88,0,0,0,.94-.63l1.87,1.92a4,4,0,0,1-1.07.94,5.24,5.24,0,0,1-1.43.59,7.05,7.05,0,0,1-1.69.2Z" transform="translate(-0.13)"/><path class="cls-4" d="M763.24,559.69a.78.78,0,0,0,.23.62.91.91,0,0,0,.65.22h.48v2.79h-1.48a2.69,2.69,0,0,1-2-.76,3,3,0,0,1-.73-2.15V547.93h2.9Z" transform="translate(-0.13)"/><path class="cls-4" d="M769.74,563.48l-1.13-.58a3.93,3.93,0,0,1-1.72-1.68,5.65,5.65,0,0,1-.59-2.66v-1.24a6.32,6.32,0,0,1,.56-2.78,3.93,3.93,0,0,1,1.66-1.76,5.31,5.31,0,0,1,2.62-.61,4.16,4.16,0,0,1,2.46.72,4.37,4.37,0,0,1,1.56,2.09,9.07,9.07,0,0,1,.54,3.31V559h-7.52v-2h4.87l0-.25a2.58,2.58,0,0,0-.6-1.47,1.65,1.65,0,0,0-1.28-.52,2.14,2.14,0,0,0-1.63.62,2.55,2.55,0,0,0-.58,1.77v1.4a2.32,2.32,0,0,0,.63,1.74,2.43,2.43,0,0,0,1.77.61,3.33,3.33,0,0,0,1.15-.21,3.43,3.43,0,0,0,1-.58l1.89,1.68a6.23,6.23,0,0,1-1.92,1.21,5.74,5.74,0,0,1-2.16.43Z" transform="translate(-0.13)"/><path class="cls-4" d="M781.46,563.48l-.93-.17a8.5,8.5,0,0,1-1.75-.52,6.65,6.65,0,0,1-1.44-.81l1.79-2.24a7.21,7.21,0,0,0,1.66.79,5.57,5.57,0,0,0,1.65.27,4.19,4.19,0,0,0,1.58-.23c.37-.15.56-.36.56-.63a.68.68,0,0,0-.24-.56,1.74,1.74,0,0,0-.63-.27,10.24,10.24,0,0,0-1.07-.14l-.38,0-.4,0-.09,0h-.09a10.81,10.81,0,0,1-2-.39,2.49,2.49,0,0,1-1.25-.89,3,3,0,0,1-.52-1.92,3.11,3.11,0,0,1,2.07-3.08,6.5,6.5,0,0,1,2.43-.41,8.6,8.6,0,0,1,1.67.17,9.45,9.45,0,0,1,1.59.49,7.91,7.91,0,0,1,1.41.76l-1.73,2.11a7,7,0,0,0-1.5-.63,5.79,5.79,0,0,0-1.5-.22,3.81,3.81,0,0,0-1.37.2c-.32.14-.48.33-.48.56a.46.46,0,0,0,.26.43,1.78,1.78,0,0,0,.64.23l1.13.15.19,0,.19,0h.19a13.82,13.82,0,0,1,2.08.38,2.79,2.79,0,0,1,1.38.93,3.28,3.28,0,0,1,.56,2.06,3.42,3.42,0,0,1-.55,2,3.35,3.35,0,0,1-1.61,1.24,6.67,6.67,0,0,1-2.55.43Z" transform="translate(-0.13)"/><path class="cls-4" d="M596.28,572.33h5.38v2.48h-5.38Zm1.8,10.31a3.18,3.18,0,0,1-.67-2.18V569.14h2.9v10.6a1.07,1.07,0,0,0,.16.62.54.54,0,0,0,.47.22h.72v2.79H600.2A2.75,2.75,0,0,1,598.08,582.64Z" transform="translate(-0.13)"/><path class="cls-4" d="M606.05,582.92a3.81,3.81,0,0,1-1.61-1.64,5.43,5.43,0,0,1-.56-2.58v-1.79a5.35,5.35,0,0,1,.56-2.56,3.76,3.76,0,0,1,1.61-1.62,6.18,6.18,0,0,1,5.14,0,3.73,3.73,0,0,1,1.62,1.62,5.47,5.47,0,0,1,.55,2.56v1.82a5.47,5.47,0,0,1-.55,2.56,3.8,3.8,0,0,1-1.62,1.63,6.18,6.18,0,0,1-5.14,0Zm3.93-2.75a2,2,0,0,0,.48-1.44v-1.82a2,2,0,0,0-.48-1.43,1.81,1.81,0,0,0-1.37-.51,1.76,1.76,0,0,0-1.35.51,2,2,0,0,0-.48,1.43v1.82a2,2,0,0,0,.48,1.44,1.75,1.75,0,0,0,1.35.52A1.82,1.82,0,0,0,610,580.17Z" transform="translate(-0.13)"/><path class="cls-4" d="M625.05,583.48l-.93-.17a8.88,8.88,0,0,1-1.75-.52,6.65,6.65,0,0,1-1.44-.81l1.79-2.24a7.41,7.41,0,0,0,1.66.79,5.58,5.58,0,0,0,1.66.27,4.13,4.13,0,0,0,1.57-.23c.38-.15.56-.36.56-.63a.68.68,0,0,0-.24-.56,1.69,1.69,0,0,0-.62-.27,10.63,10.63,0,0,0-1.07-.14l-.39,0-.4,0-.09,0h-.09a11.18,11.18,0,0,1-2-.39,2.49,2.49,0,0,1-1.25-.89,3.09,3.09,0,0,1-.51-1.92,3.12,3.12,0,0,1,2.06-3.08,6.52,6.52,0,0,1,2.44-.41,8.5,8.5,0,0,1,1.66.17,9.29,9.29,0,0,1,1.6.49,8.67,8.67,0,0,1,1.41.76L629,575.7a7,7,0,0,0-1.5-.63,5.93,5.93,0,0,0-1.51-.22,3.75,3.75,0,0,0-1.36.2c-.33.14-.49.33-.49.56a.47.47,0,0,0,.26.43,1.84,1.84,0,0,0,.65.23l1.12.15.19,0,.19,0h.19a14,14,0,0,1,2.09.38,2.77,2.77,0,0,1,1.37.93,3.22,3.22,0,0,1,.57,2.06,3.5,3.5,0,0,1-.55,2,3.45,3.45,0,0,1-1.61,1.24,6.74,6.74,0,0,1-2.55.43Z" transform="translate(-0.13)"/><path class="cls-4" d="M636.2,583.48l-1.13-.58a3.93,3.93,0,0,1-1.72-1.68,5.65,5.65,0,0,1-.59-2.66v-1.24a6.32,6.32,0,0,1,.56-2.78,3.93,3.93,0,0,1,1.66-1.76,5.31,5.31,0,0,1,2.62-.61,4.16,4.16,0,0,1,2.46.72,4.37,4.37,0,0,1,1.56,2.09,9.07,9.07,0,0,1,.54,3.31V579h-7.52v-2h4.87l0-.25a2.58,2.58,0,0,0-.6-1.47,1.65,1.65,0,0,0-1.28-.52,2.14,2.14,0,0,0-1.63.62,2.55,2.55,0,0,0-.58,1.77v1.4a2.32,2.32,0,0,0,.63,1.74,2.43,2.43,0,0,0,1.77.61,3.33,3.33,0,0,0,1.15-.21,3.43,3.43,0,0,0,1-.58l1.89,1.68a6.23,6.23,0,0,1-1.92,1.21,5.74,5.74,0,0,1-2.16.43Z" transform="translate(-0.13)"/><path class="cls-4" d="M647.82,583.48l-1.12-.58a3.9,3.9,0,0,1-1.73-1.68,5.65,5.65,0,0,1-.59-2.66v-1.24a6.18,6.18,0,0,1,.57-2.78,4,4,0,0,1,1.65-1.76,5.34,5.34,0,0,1,2.62-.61,4.21,4.21,0,0,1,2.47.72,4.5,4.5,0,0,1,1.56,2.09,9.3,9.3,0,0,1,.53,3.31V579h-7.51v-2h4.87l0-.25a2.51,2.51,0,0,0-.59-1.47,1.66,1.66,0,0,0-1.29-.52,2.14,2.14,0,0,0-1.63.62,2.55,2.55,0,0,0-.57,1.77v1.4a2.32,2.32,0,0,0,.63,1.74,2.42,2.42,0,0,0,1.76.61,3.61,3.61,0,0,0,2.19-.79l1.9,1.68a6.28,6.28,0,0,1-1.93,1.21,5.66,5.66,0,0,1-2.16.43Z" transform="translate(-0.13)"/><path class="cls-4" d="M661,572.33h2.73l3.7,9.55-1.83,2.34Zm10.15,0-4.89,13.56a3.45,3.45,0,0,1-.68,1.19,2.17,2.17,0,0,1-1,.63,4.74,4.74,0,0,1-1.47.2h-.65v-2.82h.65a1.38,1.38,0,0,0,.78-.21,1.29,1.29,0,0,0,.47-.67l4.07-11.88Z" transform="translate(-0.13)"/><path class="cls-4" d="M674.26,582.92a3.77,3.77,0,0,1-1.62-1.64,5.55,5.55,0,0,1-.55-2.58v-1.79a5.47,5.47,0,0,1,.55-2.56,3.73,3.73,0,0,1,1.62-1.62,6.18,6.18,0,0,1,5.14,0,3.73,3.73,0,0,1,1.62,1.62,5.47,5.47,0,0,1,.55,2.56v1.82a5.47,5.47,0,0,1-.55,2.56,3.8,3.8,0,0,1-1.62,1.63,6.18,6.18,0,0,1-5.14,0Zm3.92-2.75a2,2,0,0,0,.49-1.44v-1.82a2,2,0,0,0-.49-1.43,1.79,1.79,0,0,0-1.36-.51,1.76,1.76,0,0,0-1.35.51,2,2,0,0,0-.48,1.43v1.82a2.06,2.06,0,0,0,.47,1.44,2,2,0,0,0,2.72,0Z" transform="translate(-0.13)"/><path class="cls-4" d="M686.85,579a1.67,1.67,0,0,0,.45,1.24,1.77,1.77,0,0,0,1.27.44,1.66,1.66,0,0,0,1.25-.45,1.74,1.74,0,0,0,.44-1.29l.15,2.4a3.36,3.36,0,0,1-1,1.52,2.59,2.59,0,0,1-1.74.61,3.37,3.37,0,0,1-2.73-1.14,4.8,4.8,0,0,1-1-3.22v-6.79h2.9Zm3.41-6.68h2.89v11h-2.89Z" transform="translate(-0.13)"/><path class="cls-4" d="M696,572.33h3.11v11H696Zm5.66,2.74a2.15,2.15,0,0,0-.7-.1,1.68,1.68,0,0,0-1.36.57,2.29,2.29,0,0,0-.49,1.57l-.22-2.86a4,4,0,0,1,1.18-1.53,2.64,2.64,0,0,1,1.59-.55,3.52,3.52,0,0,1,1.25.22,2.88,2.88,0,0,1,1,.64l-1.7,2.36A1.43,1.43,0,0,0,701.67,575.07Z" transform="translate(-0.13)"/><path class="cls-4" d="M714.3,583.48l-.93-.17a8.59,8.59,0,0,1-1.74-.52,6.21,6.21,0,0,1-1.44-.81l1.78-2.24a7.28,7.28,0,0,0,1.67.79,5.57,5.57,0,0,0,1.65.27,4.19,4.19,0,0,0,1.58-.23c.37-.15.56-.36.56-.63a.66.66,0,0,0-.25-.56,1.69,1.69,0,0,0-.62-.27,10.63,10.63,0,0,0-1.07-.14l-.39,0-.39,0-.09,0h-.09a10.81,10.81,0,0,1-2-.39,2.47,2.47,0,0,1-1.26-.89,3.09,3.09,0,0,1-.51-1.92,3.31,3.31,0,0,1,.53-1.89,3.25,3.25,0,0,1,1.53-1.19,6.55,6.55,0,0,1,2.44-.41,8.6,8.6,0,0,1,1.67.17,9.45,9.45,0,0,1,1.59.49,7.91,7.91,0,0,1,1.41.76l-1.73,2.11a7,7,0,0,0-1.5-.63,5.8,5.8,0,0,0-1.51-.22,3.75,3.75,0,0,0-1.36.2c-.33.14-.49.33-.49.56a.47.47,0,0,0,.26.43,1.84,1.84,0,0,0,.65.23l1.12.15.2,0,.19,0H716a13.82,13.82,0,0,1,2.08.38,2.77,2.77,0,0,1,1.37.93,3.22,3.22,0,0,1,.57,2.06,3.23,3.23,0,0,1-2.16,3.2,6.74,6.74,0,0,1-2.55.43Z" transform="translate(-0.13)"/><path class="cls-4" d="M722.33,567.93h2.9v15.39h-2.9Zm1.35,11.43,5.13-7h3.07l-7.8,10.23Zm2.61-1.71,2.39-1.44,3.74,7.11h-3.36Z" transform="translate(-0.13)"/><path class="cls-4" d="M733.63,567.93h2.91v2.9h-2.91Zm0,4.4h2.91v11h-2.91Z" transform="translate(-0.13)"/><path class="cls-4" d="M742.14,579.69a.81.81,0,0,0,.22.62.93.93,0,0,0,.65.22h.49v2.79H742a2.69,2.69,0,0,1-2-.76,3,3,0,0,1-.73-2.15V567.93h2.9Z" transform="translate(-0.13)"/><path class="cls-4" d="M748.41,579.69a.81.81,0,0,0,.23.62.93.93,0,0,0,.65.22h.49v2.79H748.3a2.71,2.71,0,0,1-2.06-.76,3,3,0,0,1-.73-2.15V567.93h2.9Z" transform="translate(-0.13)"/><path class="cls-4" d="M754.9,583.48l-.93-.17a8.88,8.88,0,0,1-1.75-.52,6.65,6.65,0,0,1-1.44-.81l1.79-2.24a7.28,7.28,0,0,0,1.67.79,5.47,5.47,0,0,0,1.65.27,4.13,4.13,0,0,0,1.57-.23q.57-.23.57-.63a.69.69,0,0,0-.25-.56,1.69,1.69,0,0,0-.62-.27,10.63,10.63,0,0,0-1.07-.14l-.39,0-.4,0-.09,0h-.08a10.81,10.81,0,0,1-2-.39,2.47,2.47,0,0,1-1.26-.89,3.09,3.09,0,0,1-.51-1.92,3.12,3.12,0,0,1,2.06-3.08,6.52,6.52,0,0,1,2.44-.41,8.5,8.5,0,0,1,1.66.17,9.29,9.29,0,0,1,1.6.49,7.91,7.91,0,0,1,1.41.76l-1.73,2.11a7,7,0,0,0-1.5-.63,5.93,5.93,0,0,0-1.51-.22,3.75,3.75,0,0,0-1.36.2c-.33.14-.49.33-.49.56a.47.47,0,0,0,.26.43,1.84,1.84,0,0,0,.65.23l1.12.15.19,0,.19,0h.2a14.07,14.07,0,0,1,2.08.38,2.77,2.77,0,0,1,1.37.93,3.22,3.22,0,0,1,.57,2.06,3.5,3.5,0,0,1-.55,2,3.45,3.45,0,0,1-1.61,1.24,6.74,6.74,0,0,1-2.55.43Z" transform="translate(-0.13)"/><path class="cls-4" d="M762.45,580.42h2.9v2.9h-2.9Z" transform="translate(-0.13)"/></g><circle class="cls-5" cx="430.87" cy="172" r="66"/><circle class="cls-6" cx="343.87" cy="295" r="78"/><circle class="cls-7" cx="432.37" cy="420.5" r="67.5"/><circle class="cls-8" cx="299.37" cy="156.5" r="60.5"/><circle class="cls-8" cx="200.37" cy="169.5" r="30.5"/><circle class="cls-9" cx="231.37" cy="241.5" r="40.5"/><circle class="cls-10" cx="231.37" cy="348.5" r="39.5"/><circle class="cls-11" cx="165.37" cy="294.5" r="37.5"/><circle class="cls-12" cx="201.37" cy="419.5" r="29.5"/><circle class="cls-12" cx="298.37" cy="434.5" r="60.5"/><circle class="cls-13" cx="556.37" cy="182.5" r="53.5"/><circle class="cls-14" cx="497.37" cy="296.5" r="68.5"/><circle class="cls-6" cx="297.87" cy="528" r="26"/><circle class="cls-6" cx="367.37" cy="512.5" r="37.5"/><circle class="cls-15" cx="459.87" cy="522" r="30"/><circle class="cls-16" cx="413.87" cy="569" r="28"/><circle class="cls-10" cx="594.87" cy="464" r="29"/><circle class="cls-17" cx="523.37" cy="485.5" r="37.5"/><circle class="cls-18" cx="545.37" cy="400.5" r="41.5"/><circle class="cls-19" cx="601.37" cy="335.5" r="37.5"/><circle class="cls-20" cx="675.37" cy="367.5" r="26.5"/><circle class="cls-21" cx="623.87" cy="405" r="30"/><circle class="cls-22" cx="665.87" cy="308" r="26"/><circle class="cls-22" cx="618.37" cy="256.5" r="37.5"/><circle class="cls-19" cx="646.87" cy="188" r="29"/><circle class="cls-23" cx="582.37" cy="100.5" r="26.5"/><circle class="cls-20" cx="511.37" cy="96.5" r="37.5"/><circle class="cls-18" cx="443.87" cy="68" r="30"/><circle class="cls-23" cx="371.37" cy="80.5" r="37.5"/><circle class="cls-17" cx="302.87" cy="62" r="26"/></svg>