<?xml version="1.0" encoding="utf-8"?>
<!-- Generator: Adobe Illustrator 23.0.0, SVG Export Plug-In . SVG Version: 6.00 Build 0)  -->
<svg version="1.1" id="Capa_1" xmlns="http://www.w3.org/2000/svg" xmlns:xlink="http://www.w3.org/1999/xlink" x="0px" y="0px"
	 viewBox="0 0 813 607" style="enable-background:new 0 0 813 607;" xml:space="preserve">
<style type="text/css">
	.st0{fill:#002333;}
	.st1{opacity:0.85;}
	.st2{fill:#FFFFFF;}
	.st3{fill:#00FF84;}
	.st4{fill:none;stroke:#1A4C61;stroke-width:3;stroke-linecap:round;stroke-linejoin:round;stroke-miterlimit:10;}
	.st5{opacity:0.9;fill:url(#SVGID_1_);}
	.st6{fill:#E5FFE0;stroke:url(#SVGID_2_);stroke-miterlimit:10;}
	.st7{fill:#E5FFE0;stroke:url(#SVGID_3_);stroke-miterlimit:10;}
	.st8{fill:#E5FFE0;stroke:url(#SVGID_4_);stroke-miterlimit:10;}
	.st9{fill:#E5FFE0;stroke:url(#SVGID_5_);stroke-miterlimit:10;}
	.st10{fill:#E5FFE0;stroke:url(#SVGID_6_);stroke-miterlimit:10;}
	.st11{fill:#E5FFE0;stroke:url(#SVGID_7_);stroke-miterlimit:10;}
	.st12{fill:#E5FFE0;stroke:url(#SVGID_8_);stroke-miterlimit:10;}
</style>
<g>
	<path class="st0" d="M798.6,607H14.8c-8.1,0-14.6-6.6-14.6-14.6V14.6C0.1,6.6,6.7,0,14.8,0h783.8c8.1,0,14.6,6.6,14.6,14.6v577.7
		C813.2,600.4,806.7,607,798.6,607z"/>
	<g>
		<g class="st1">
			<g>
				<g>
					<path class="st2" d="M75.1,357.4h2.6v16h-2.6V357.4z M76.6,370.9h3.7c1.1,0,1.9-0.3,2.5-0.8c0.6-0.5,0.9-1.3,0.9-2.3v-4.7
						c0-1-0.3-1.8-0.9-2.3c-0.6-0.5-1.4-0.8-2.5-0.8h-3.7v-2.5h3.7c1.3,0,2.4,0.2,3.4,0.7s1.6,1.1,2.1,2s0.7,1.9,0.7,3.1v4.5
						c0,1.2-0.2,2.2-0.7,3.1c-0.5,0.9-1.2,1.5-2.1,2c-0.9,0.5-2.1,0.7-3.4,0.7h-3.7V370.9z"/>
					<path class="st2" d="M89.7,362h2.7v11.4h-2.7V362z M95.4,364.5c-0.3-0.1-0.6-0.1-0.9-0.1c-0.7,0-1.2,0.2-1.5,0.6
						s-0.5,0.9-0.5,1.6l-0.2-2.6c0.3-0.7,0.8-1.2,1.3-1.6s1.1-0.6,1.8-0.6c0.5,0,1,0.1,1.4,0.2s0.8,0.4,1.1,0.7l-1.6,2.2
						C95.9,364.7,95.7,364.6,95.4,364.5z"/>
					<path class="st2" d="M99.7,372.7c-0.7-0.6-1-1.5-1-2.7c0-1.1,0.3-2,1-2.5c0.7-0.6,1.7-0.8,3-0.8h3.1l0.2,2.1h-3.2
						c-0.5,0-0.9,0.1-1.2,0.3c-0.3,0.2-0.4,0.6-0.4,1c0,0.5,0.2,0.8,0.5,1.1c0.3,0.2,0.8,0.3,1.5,0.3c0.8,0,1.5-0.1,1.9-0.3
						c0.4-0.2,0.6-0.5,0.6-0.9l0.2,1.6c-0.1,0.4-0.3,0.7-0.7,0.9c-0.3,0.2-0.7,0.4-1.1,0.5c-0.4,0.1-0.9,0.2-1.4,0.2
						C101.4,373.6,100.4,373.3,99.7,372.7z M105.7,366.2c0-0.6-0.2-1.1-0.6-1.5c-0.4-0.4-0.9-0.5-1.6-0.5c-0.4,0-0.9,0.1-1.3,0.2
						c-0.4,0.1-0.8,0.3-1.1,0.6l-1.8-1.5c0.4-0.5,1-0.9,1.8-1.2c0.7-0.3,1.5-0.4,2.4-0.4c1,0,1.8,0.2,2.5,0.5
						c0.7,0.3,1.2,0.8,1.6,1.5c0.4,0.6,0.5,1.4,0.5,2.3v7.4h-2.4V366.2z"/>
					<path class="st2" d="M110.3,362h2.6l2,7.6l2.6-7.6h1.7l2.6,7.6l2-7.6h2.6l-3.5,11.4h-2l-2.6-7.7l-2.6,7.7h-2L110.3,362z"/>
					<path class="st2" d="M128.7,357.4h2.6v2.6h-2.6V357.4z M128.7,362h2.6v11.4h-2.6V362z"/>
					<path class="st2" d="M134.5,362h2.6v11.4h-2.6V362z M141.3,366.5c0-0.7-0.2-1.2-0.6-1.6c-0.4-0.4-0.9-0.6-1.6-0.6
						c-0.6,0-1.1,0.2-1.5,0.5s-0.5,0.8-0.5,1.5l-0.2-2.4c0.3-0.7,0.8-1.2,1.3-1.6c0.5-0.4,1.1-0.6,1.9-0.6c1.2,0,2.2,0.4,2.8,1.2
						c0.7,0.8,1,2,1,3.4v6.9h-2.6V366.5z"/>
					<path class="st2" d="M148.6,373c-0.6-0.4-1-0.9-1.3-1.6c-0.3-0.7-0.5-1.6-0.5-2.6v-2.2c0-1,0.2-1.9,0.5-2.6
						c0.3-0.7,0.7-1.3,1.3-1.7c0.6-0.4,1.3-0.6,2.1-0.6c0.6,0,1.2,0.2,1.8,0.5c0.5,0.4,1,0.9,1.3,1.5l-0.2,2.4
						c0-0.4-0.1-0.8-0.2-1.1c-0.2-0.3-0.4-0.5-0.7-0.7c-0.3-0.2-0.7-0.2-1.1-0.2c-0.7,0-1.2,0.2-1.5,0.6c-0.4,0.4-0.5,1-0.5,1.8v2.2
						c0,0.8,0.2,1.3,0.5,1.8c0.4,0.4,0.9,0.6,1.5,0.6c0.4,0,0.8-0.1,1.1-0.2c0.3-0.2,0.5-0.4,0.7-0.7c0.2-0.3,0.2-0.7,0.2-1.1
						l0.2,2.5c-0.2,0.6-0.6,1.1-1.1,1.4c-0.5,0.4-1.1,0.5-1.8,0.5C149.8,373.6,149.1,373.4,148.6,373z M149.7,378.1
						c0,0-0.3-0.2-1-0.5c-0.7-0.3-1.2-0.8-1.6-1.4l1.8-1.6c0.3,0.3,0.6,0.6,1,0.8c0.4,0.2,0.8,0.3,1.2,0.3c0.8,0,1.3-0.2,1.8-0.6
						c0.4-0.4,0.7-1,0.7-1.7V362h2.6v11.1c0,1.1-0.2,2-0.6,2.7c-0.4,0.8-1,1.3-1.7,1.7s-1.7,0.6-2.7,0.6
						C150.2,378.1,149.7,378.1,149.7,378.1z"/>
				</g>
			</g>
		</g>
		<g>
			<g>
				<g>
					<path class="st3" d="M36.9,57.7c0,0-0.5-0.1-1.6-0.3c-1.1-0.2-2.1-0.6-3-1c-0.9-0.4-1.8-1-2.6-1.6l2.1-3.2
						c0.9,0.8,2,1.4,3.1,1.8c1.2,0.4,2.4,0.6,3.7,0.6c1.6,0,2.9-0.3,3.7-0.9c0.9-0.6,1.3-1.4,1.3-2.4v0c0-0.7-0.2-1.3-0.6-1.8
						s-0.9-0.8-1.6-1s-1.5-0.4-2.5-0.6c0,0-0.1,0-0.1,0c0,0-0.1,0-0.1,0l-0.3,0c-1.6-0.3-2.9-0.6-4-0.9c-1-0.4-1.9-1-2.6-2
						s-1.1-2.3-1.1-4v0c0-1.5,0.3-2.8,1-3.9c0.7-1.1,1.7-1.9,3-2.5c1.3-0.6,2.9-0.8,4.7-0.8c0.9,0,1.7,0.1,2.6,0.3s1.7,0.5,2.5,0.8
						c0.8,0.4,1.6,0.8,2.4,1.4l-1.9,3.3c-0.9-0.7-1.9-1.2-2.8-1.5c-1-0.3-1.9-0.5-2.8-0.5c-1.5,0-2.7,0.3-3.5,0.8
						c-0.8,0.6-1.2,1.3-1.2,2.4v0c0,0.8,0.2,1.4,0.6,1.8c0.4,0.4,1,0.8,1.6,1c0.6,0.2,1.5,0.4,2.7,0.7c0,0,0.1,0,0.1,0
						c0,0,0.1,0,0.1,0c0.1,0,0.1,0,0.2,0c0.1,0,0.1,0,0.2,0c1.5,0.3,2.7,0.7,3.7,1.1c1,0.4,1.8,1.1,2.5,2c0.7,0.9,1,2.2,1,3.8v0
						c0,1.5-0.4,2.8-1.1,3.9c-0.7,1.1-1.7,1.9-3.1,2.4c-1.3,0.6-3,0.8-4.9,0.8C37.5,57.7,36.9,57.7,36.9,57.7z"/>
					<path class="st3" d="M51.8,33.4h4v24.1h-4V33.4z M53.6,51.1L62,40.3h4.4L53.8,55.6L53.6,51.1z M57.6,48.1l3-2.3l6.7,11.6h-4.4
						L57.6,48.1z"/>
					<path class="st3" d="M69.6,33.4h3.9v4h-3.9V33.4z M69.6,40.3h3.9v17.2h-3.9V40.3z"/>
					<path class="st3" d="M82.2,52.4c0,0.4,0.1,0.7,0.3,1c0.2,0.2,0.5,0.3,0.9,0.3h1.2v3.8h-2.2c-1.3,0-2.4-0.4-3.1-1.2
						c-0.7-0.8-1.1-1.9-1.1-3.4V33.4h4V52.4z"/>
					<path class="st3" d="M92,52.4c0,0.4,0.1,0.7,0.3,1c0.2,0.2,0.5,0.3,0.9,0.3h1.2v3.8h-2.2c-1.3,0-2.4-0.4-3.1-1.2
						C88.4,55.5,88,54.4,88,53V33.4h4V52.4z"/>
					<path class="st3" d="M106.9,40.3h4v24.2h-4V40.3z M112.3,57c-0.8-0.5-1.3-1.2-1.7-2.2l0.2-3.8c0,0.7,0.1,1.2,0.3,1.7
						c0.2,0.5,0.6,0.8,1,1.1c0.4,0.2,1,0.4,1.6,0.4c1,0,1.7-0.3,2.3-0.9c0.5-0.6,0.8-1.5,0.8-2.6v-3.2c0-1.2-0.3-2.1-0.8-2.7
						c-0.5-0.6-1.3-1-2.3-1c-0.6,0-1.2,0.1-1.6,0.4c-0.4,0.2-0.8,0.6-1,1.1c-0.2,0.5-0.3,1-0.3,1.7l-0.3-3.6c0.5-1,1.1-1.8,1.9-2.3
						c0.8-0.5,1.7-0.8,2.7-0.8c1.2,0,2.3,0.3,3.1,0.8s1.5,1.4,2,2.5c0.5,1.1,0.7,2.4,0.7,3.9v3.2c0,1.5-0.2,2.8-0.7,3.9
						c-0.5,1.1-1.1,1.9-2,2.5c-0.9,0.6-1.9,0.8-3.2,0.8C114,57.7,113.1,57.5,112.3,57z"/>
					<path class="st3" d="M125.3,40.3h4.1v17.2h-4.1V40.3z M133.9,44.1c-0.4-0.1-0.8-0.2-1.3-0.2c-1,0-1.8,0.3-2.3,0.9
						c-0.5,0.6-0.8,1.4-0.8,2.5l-0.3-3.9c0.5-1,1.1-1.8,1.9-2.4c0.8-0.6,1.7-0.9,2.6-0.9c0.7,0,1.4,0.1,2,0.3s1.1,0.6,1.6,1
						l-2.4,3.3C134.6,44.4,134.3,44.2,133.9,44.1z"/>
					<path class="st3" d="M142.6,56.8c-1.1-0.6-1.9-1.4-2.5-2.6c-0.6-1.1-0.9-2.5-0.9-4v-2.8c0-1.6,0.3-2.9,0.9-4
						c0.6-1.1,1.4-2,2.5-2.5c1.1-0.6,2.4-0.9,3.9-0.9c1.5,0,2.8,0.3,3.9,0.9c1.1,0.6,1.9,1.4,2.5,2.5c0.6,1.1,0.9,2.4,0.9,4v2.8
						c0,1.6-0.3,2.9-0.9,4c-0.6,1.1-1.4,2-2.5,2.5c-1.1,0.6-2.4,0.9-3.9,0.9C145,57.7,143.7,57.4,142.6,56.8z M149,53
						c0.6-0.6,0.9-1.5,0.9-2.7v-2.8c0-1.1-0.3-2-0.9-2.7c-0.6-0.6-1.4-0.9-2.4-0.9c-1,0-1.9,0.3-2.4,0.9c-0.6,0.6-0.9,1.5-0.9,2.7
						v2.8c0,1.2,0.3,2.1,0.9,2.7s1.4,1,2.4,1C147.6,53.9,148.4,53.6,149,53z"/>
					<path class="st3" d="M156.9,40.3h8.9v3.4h-8.9V40.3z M158.8,38c0-1.5,0.4-2.7,1.1-3.4c0.7-0.8,1.8-1.1,3.2-1.1h2.8V37h-2.2
						c-0.3,0-0.6,0.1-0.7,0.4c-0.2,0.2-0.2,0.6-0.2,0.9v19.1h-4V38z"/>
					<path class="st3" d="M168.9,33.4h3.9v4h-3.9V33.4z M168.9,40.3h3.9v17.2h-3.9V40.3z"/>
					<path class="st3" d="M181.5,52.4c0,0.4,0.1,0.7,0.3,1c0.2,0.2,0.5,0.3,0.9,0.3h1.2v3.8h-2.2c-1.3,0-2.4-0.4-3.1-1.2
						c-0.7-0.8-1.1-1.9-1.1-3.4V33.4h4V52.4z"/>
					<path class="st3" d="M192.1,57.7c0,0-0.6-0.3-1.7-0.9c-1.1-0.6-2-1.5-2.6-2.6c-0.6-1.2-0.9-2.5-0.9-4.2v-1.9
						c0-1.7,0.3-3.1,0.9-4.4c0.6-1.2,1.4-2.1,2.5-2.7c1.1-0.6,2.4-0.9,4-0.9c1.5,0,2.7,0.4,3.8,1.1c1,0.7,1.8,1.8,2.4,3.2
						s0.8,3.1,0.8,5v1.1h-11.7v-2.9h8l0-0.2c-0.1-1.2-0.4-2.1-1-2.8s-1.3-1-2.3-1c-1.2,0-2.1,0.4-2.8,1.1c-0.7,0.7-1,1.8-1,3.2v2.2
						c0,1.3,0.4,2.3,1.1,3c0.7,0.7,1.7,1.1,3,1.1c0.7,0,1.3-0.1,1.9-0.4s1.2-0.6,1.7-1l2.6,2.4c-0.9,0.8-1.9,1.4-2.9,1.9
						s-2.2,0.7-3.3,0.7C192.9,57.7,192.1,57.7,192.1,57.7z"/>
				</g>
			</g>
		</g>
		<g class="st1">
			<g>
				<g>
					<path class="st2" d="M374.1,52c0,0-0.4-0.2-1.3-0.7c-0.9-0.5-1.5-1.2-2-2.1c-0.5-0.9-0.7-2-0.7-3.2v-4.4c0-1.2,0.2-2.3,0.7-3.2
						c0.5-0.9,1.1-1.6,2-2.1c0.9-0.5,1.9-0.7,3-0.7c1,0,1.8,0.2,2.6,0.6c0.8,0.4,1.4,1,2,1.8c0.5,0.8,0.9,1.7,1.1,2.8h-2.7
						c-0.1-0.5-0.3-1-0.6-1.4c-0.3-0.4-0.6-0.7-1-0.9c-0.4-0.2-0.8-0.3-1.3-0.3c-0.6,0-1.1,0.1-1.6,0.4c-0.4,0.3-0.8,0.7-1,1.2
						c-0.2,0.5-0.4,1.1-0.4,1.8v4.4c0,0.7,0.1,1.3,0.4,1.8c0.2,0.5,0.6,0.9,1,1.2s1,0.4,1.6,0.4c0.5,0,0.9-0.1,1.3-0.3
						c0.4-0.2,0.7-0.5,1-0.9c0.3-0.4,0.5-0.8,0.6-1.4h2.7c-0.2,1.1-0.6,2-1.1,2.8c-0.5,0.8-1.2,1.4-2,1.8s-1.7,0.6-2.6,0.6
						C374.7,52,374.1,52,374.1,52z"/>
					<path class="st2" d="M384.3,40.4h2.7v11.4h-2.7V40.4z M390,42.9c-0.3-0.1-0.6-0.1-0.9-0.1c-0.7,0-1.2,0.2-1.5,0.6
						c-0.4,0.4-0.5,0.9-0.5,1.6l-0.2-2.6c0.3-0.7,0.8-1.2,1.3-1.6c0.5-0.4,1.1-0.6,1.8-0.6c0.5,0,1,0.1,1.4,0.2s0.8,0.4,1.1,0.7
						l-1.6,2.2C390.5,43.2,390.2,43,390,42.9z"/>
					<path class="st2" d="M397.1,52c0,0-0.4-0.2-1.1-0.6s-1.3-1-1.8-1.7c-0.4-0.8-0.6-1.7-0.6-2.8v-1.3c0-1.1,0.2-2.1,0.6-2.9
						c0.4-0.8,0.9-1.4,1.7-1.8c0.7-0.4,1.6-0.6,2.7-0.6c1,0,1.8,0.2,2.5,0.7c0.7,0.5,1.2,1.2,1.6,2.1c0.4,0.9,0.5,2,0.5,3.4v0.8
						h-7.8v-1.9h5.3l0-0.1c-0.1-0.8-0.3-1.4-0.7-1.9c-0.4-0.4-0.9-0.7-1.5-0.7c-0.8,0-1.4,0.2-1.8,0.7c-0.4,0.5-0.7,1.2-0.7,2.1V47
						c0,0.9,0.2,1.5,0.7,2c0.5,0.5,1.1,0.7,2,0.7c0.4,0,0.9-0.1,1.3-0.2s0.8-0.4,1.1-0.7l1.7,1.6c-0.6,0.5-1.2,1-2,1.3
						c-0.7,0.3-1.5,0.4-2.2,0.4C397.6,52,397.1,52,397.1,52z"/>
					<path class="st2" d="M406.4,51.2c-0.7-0.6-1-1.5-1-2.7c0-1.1,0.3-2,1-2.5c0.7-0.6,1.7-0.8,3-0.8h3.1l0.2,2.1h-3.2
						c-0.5,0-0.9,0.1-1.2,0.3c-0.3,0.2-0.4,0.6-0.4,1c0,0.5,0.2,0.8,0.5,1.1c0.3,0.2,0.8,0.3,1.5,0.3c0.8,0,1.5-0.1,1.9-0.3
						c0.4-0.2,0.6-0.5,0.6-0.9l0.2,1.6c-0.1,0.4-0.3,0.7-0.7,0.9s-0.7,0.4-1.1,0.5c-0.4,0.1-0.9,0.2-1.4,0.2
						C408.1,52,407.1,51.7,406.4,51.2z M412.4,44.6c0-0.6-0.2-1.1-0.6-1.5c-0.4-0.4-0.9-0.5-1.6-0.5c-0.4,0-0.9,0.1-1.3,0.2
						c-0.4,0.1-0.8,0.3-1.1,0.6l-1.8-1.5c0.4-0.5,1-0.9,1.8-1.2s1.5-0.4,2.4-0.4c1,0,1.8,0.2,2.5,0.5c0.7,0.3,1.2,0.8,1.6,1.5
						c0.4,0.6,0.5,1.4,0.5,2.3v7.4h-2.4V44.6z"/>
					<path class="st2" d="M417.1,40.4h5.4v2.3h-5.4V40.4z M419,51.2c-0.4-0.5-0.7-1.3-0.7-2.3V37.1h2.6v11.4c0,0.3,0.1,0.5,0.2,0.6
						s0.3,0.2,0.5,0.2h0.9v2.5h-1.4C420.2,51.9,419.5,51.7,419,51.2z"/>
					<path class="st2" d="M425.3,35.8h2.6v2.6h-2.6V35.8z M425.3,40.4h2.6v11.4h-2.6V40.4z"/>
					<path class="st2" d="M437.7,40.4h2.7l-4.3,11.4h-1.9l-4.3-11.4h2.7l2.6,7.7L437.7,40.4z"/>
					<path class="st2" d="M445.5,52c0,0-0.4-0.2-1.1-0.6s-1.3-1-1.8-1.7c-0.4-0.8-0.6-1.7-0.6-2.8v-1.3c0-1.1,0.2-2.1,0.6-2.9
						s0.9-1.4,1.7-1.8c0.7-0.4,1.6-0.6,2.7-0.6c1,0,1.8,0.2,2.5,0.7c0.7,0.5,1.2,1.2,1.6,2.1c0.4,0.9,0.5,2,0.5,3.4v0.8h-7.8v-1.9
						h5.3l0-0.1c-0.1-0.8-0.3-1.4-0.7-1.9c-0.4-0.4-0.9-0.7-1.5-0.7c-0.8,0-1.4,0.2-1.8,0.7s-0.7,1.2-0.7,2.1V47
						c0,0.9,0.2,1.5,0.7,2c0.5,0.5,1.1,0.7,2,0.7c0.4,0,0.9-0.1,1.3-0.2s0.8-0.4,1.1-0.7l1.7,1.6c-0.6,0.5-1.2,1-2,1.3
						s-1.5,0.4-2.2,0.4C446.1,52,445.5,52,445.5,52z"/>
				</g>
			</g>
		</g>
		<g class="st1">
			<g>
				<g>
					<path class="st2" d="M621.8,140.2h2.6v16h-2.6V140.2z M623.1,153.7h9.3v2.5h-9.3V153.7z"/>
					<path class="st2" d="M637.7,156.4c0,0-0.4-0.2-1.1-0.6s-1.3-1-1.8-1.7c-0.4-0.8-0.6-1.7-0.6-2.8v-1.3c0-1.1,0.2-2.1,0.6-2.9
						s0.9-1.4,1.7-1.8c0.7-0.4,1.6-0.6,2.7-0.6c1,0,1.8,0.2,2.5,0.7c0.7,0.5,1.2,1.2,1.6,2.1c0.4,0.9,0.5,2,0.5,3.4v0.8H636v-1.9
						h5.3l0-0.1c-0.1-0.8-0.3-1.4-0.7-1.9c-0.4-0.4-0.9-0.7-1.5-0.7c-0.8,0-1.4,0.2-1.8,0.7s-0.7,1.2-0.7,2.1v1.5
						c0,0.9,0.2,1.5,0.7,2c0.5,0.5,1.1,0.7,2,0.7c0.4,0,0.9-0.1,1.3-0.2s0.8-0.4,1.1-0.7l1.7,1.6c-0.6,0.5-1.2,1-2,1.3
						s-1.5,0.4-2.2,0.4C638.3,156.4,637.7,156.4,637.7,156.4z"/>
					<path class="st2" d="M645.8,144.7h5.4v2.3h-5.4V144.7z M647.6,155.5c-0.4-0.5-0.7-1.3-0.7-2.3v-11.8h2.6v11.4
						c0,0.3,0.1,0.5,0.2,0.6s0.3,0.2,0.5,0.2h0.9v2.5h-1.4C648.8,156.2,648.1,156,647.6,155.5z"/>
					<path class="st2" d="M653.2,144.7h5.4v2.3h-5.4V144.7z M655,155.5c-0.4-0.5-0.7-1.3-0.7-2.3v-11.8h2.6v11.4
						c0,0.3,0.1,0.5,0.2,0.6s0.3,0.2,0.5,0.2h0.9v2.5h-1.4C656.2,156.2,655.5,156,655,155.5z"/>
					<path class="st2" d="M664.6,156.4c0,0-0.4-0.2-1.1-0.6s-1.3-1-1.8-1.7c-0.4-0.8-0.6-1.7-0.6-2.8v-1.3c0-1.1,0.2-2.1,0.6-2.9
						s0.9-1.4,1.7-1.8c0.7-0.4,1.6-0.6,2.7-0.6c1,0,1.8,0.2,2.5,0.7c0.7,0.5,1.2,1.2,1.6,2.1c0.4,0.9,0.5,2,0.5,3.4v0.8h-7.8v-1.9
						h5.3l0-0.1c-0.1-0.8-0.3-1.4-0.7-1.9c-0.4-0.4-0.9-0.7-1.5-0.7c-0.8,0-1.4,0.2-1.8,0.7s-0.7,1.2-0.7,2.1v1.5
						c0,0.9,0.2,1.5,0.7,2c0.5,0.5,1.1,0.7,2,0.7c0.4,0,0.9-0.1,1.3-0.2s0.8-0.4,1.1-0.7l1.7,1.6c-0.6,0.5-1.2,1-2,1.3
						s-1.5,0.4-2.2,0.4C665.1,156.4,664.6,156.4,664.6,156.4z"/>
					<path class="st2" d="M673.5,144.7h2.7v11.4h-2.7V144.7z M679.2,147.2c-0.3-0.1-0.6-0.1-0.9-0.1c-0.7,0-1.2,0.2-1.5,0.6
						c-0.4,0.4-0.5,0.9-0.5,1.6l-0.2-2.6c0.3-0.7,0.8-1.2,1.3-1.6c0.5-0.4,1.1-0.6,1.8-0.6c0.5,0,1,0.1,1.4,0.2s0.8,0.4,1.1,0.7
						l-1.6,2.2C679.7,147.5,679.5,147.3,679.2,147.2z"/>
					<path class="st2" d="M683.1,140.2h2.6v2.6h-2.6V140.2z M683.1,144.7h2.6v11.4h-2.6V144.7z"/>
					<path class="st2" d="M688.8,144.7h2.6v11.4h-2.6V144.7z M695.6,149.3c0-0.7-0.2-1.2-0.6-1.6c-0.4-0.4-0.9-0.6-1.6-0.6
						c-0.6,0-1.1,0.2-1.5,0.5s-0.5,0.8-0.5,1.5l-0.2-2.4c0.3-0.7,0.8-1.2,1.3-1.6s1.1-0.6,1.9-0.6c1.2,0,2.2,0.4,2.8,1.2s1,2,1,3.4
						v6.9h-2.6V149.3z"/>
					<path class="st2" d="M702.9,155.8c-0.6-0.4-1-0.9-1.3-1.6c-0.3-0.7-0.5-1.6-0.5-2.6v-2.2c0-1,0.2-1.9,0.5-2.6s0.7-1.3,1.3-1.7
						c0.6-0.4,1.3-0.6,2.1-0.6c0.6,0,1.2,0.2,1.8,0.5c0.5,0.4,1,0.9,1.3,1.5l-0.2,2.4c0-0.4-0.1-0.8-0.2-1.1s-0.4-0.5-0.7-0.7
						s-0.7-0.2-1.1-0.2c-0.7,0-1.2,0.2-1.5,0.6c-0.4,0.4-0.5,1-0.5,1.8v2.2c0,0.8,0.2,1.3,0.5,1.8c0.4,0.4,0.9,0.6,1.5,0.6
						c0.4,0,0.8-0.1,1.1-0.2s0.5-0.4,0.7-0.7s0.2-0.7,0.2-1.1l0.2,2.5c-0.2,0.6-0.6,1.1-1.1,1.4c-0.5,0.4-1.1,0.5-1.8,0.5
						C704.2,156.4,703.5,156.2,702.9,155.8z M704.1,160.8c0,0-0.3-0.2-1-0.5s-1.2-0.8-1.6-1.4l1.8-1.6c0.3,0.3,0.6,0.6,1,0.8
						c0.4,0.2,0.8,0.3,1.2,0.3c0.8,0,1.3-0.2,1.8-0.6c0.4-0.4,0.7-1,0.7-1.7v-11.4h2.6v11.1c0,1.1-0.2,2-0.6,2.7
						c-0.4,0.8-1,1.3-1.7,1.7c-0.8,0.4-1.7,0.6-2.7,0.6C704.5,160.8,704.1,160.8,704.1,160.8z"/>
				</g>
			</g>
		</g>
		<g class="st1">
			<g>
				<g>
					<path class="st2" d="M667.7,382.8H665v-16h2.7V382.8z"/>
					<path class="st2" d="M673.7,379.5c0,0.3,0.1,0.5,0.2,0.6c0.1,0.2,0.3,0.2,0.6,0.2h0.8v2.5h-1.4c-0.9,0-1.6-0.3-2.1-0.8
						s-0.7-1.3-0.7-2.2v-13h2.6V379.5z"/>
					<path class="st2" d="M680.3,379.5c0,0.3,0.1,0.5,0.2,0.6c0.1,0.2,0.3,0.2,0.6,0.2h0.8v2.5h-1.4c-0.9,0-1.6-0.3-2.1-0.8
						s-0.7-1.3-0.7-2.2v-13h2.6V379.5z"/>
					<path class="st2" d="M686.8,378.4c0,0.7,0.2,1.2,0.5,1.6s0.9,0.6,1.5,0.6s1.2-0.2,1.5-0.5s0.5-0.9,0.5-1.5l0.2,2.4
						c-0.2,0.6-0.6,1.1-1.1,1.5s-1.1,0.6-1.9,0.6c-1.2,0-2.2-0.4-2.9-1.2c-0.7-0.8-1-1.9-1-3.4v-7h2.6V378.4z M690.9,371.4h2.6v11.4
						h-2.6V371.4z"/>
					<path class="st2" d="M699.9,383c0,0-0.3-0.1-0.9-0.2c-0.6-0.1-1.2-0.3-1.7-0.6c-0.5-0.3-1-0.6-1.5-0.9l1.6-2
						c0.6,0.4,1.2,0.7,1.8,0.9s1.2,0.3,1.8,0.3c0.8,0,1.4-0.1,1.8-0.3c0.4-0.2,0.6-0.5,0.6-0.9c0-0.3-0.1-0.6-0.3-0.7
						c-0.2-0.2-0.5-0.3-0.8-0.3c-0.3-0.1-0.8-0.1-1.3-0.2c-0.1,0-0.2,0-0.3,0c-0.1,0-0.2,0-0.3,0c0,0-0.1,0-0.1,0s-0.1,0-0.1,0
						c-0.8-0.1-1.5-0.2-2-0.4s-0.9-0.5-1.3-0.9s-0.5-1.1-0.5-1.9c0-0.8,0.2-1.5,0.5-2c0.3-0.5,0.9-0.9,1.5-1.2
						c0.7-0.3,1.5-0.4,2.5-0.4c0.6,0,1.2,0.1,1.7,0.2c0.6,0.1,1.1,0.3,1.6,0.5c0.5,0.2,1,0.5,1.5,0.8l-1.6,1.9
						c-0.5-0.3-1.1-0.6-1.6-0.7s-1.1-0.3-1.6-0.3c-0.7,0-1.2,0.1-1.6,0.3c-0.4,0.2-0.5,0.5-0.5,0.9c0,0.3,0.1,0.4,0.3,0.6
						c0.2,0.1,0.4,0.2,0.7,0.3s0.7,0.1,1.3,0.1c0.1,0,0.1,0,0.2,0c0.1,0,0.1,0,0.2,0c0,0,0,0,0.1,0s0.1,0,0.1,0
						c0.8,0.1,1.5,0.2,2.1,0.4c0.6,0.2,1,0.5,1.4,1s0.6,1.2,0.6,2.1c0,0.8-0.2,1.5-0.6,2c-0.4,0.6-0.9,1-1.6,1.3
						c-0.7,0.3-1.6,0.4-2.7,0.4C700.3,383,699.9,383,699.9,383z"/>
					<path class="st2" d="M707.6,371.4h5.4v2.3h-5.4V371.4z M709.4,382.1c-0.4-0.5-0.7-1.3-0.7-2.3v-11.8h2.6v11.4
						c0,0.3,0.1,0.5,0.2,0.6s0.3,0.2,0.5,0.2h0.9v2.5h-1.4C710.6,382.9,709.9,382.6,709.4,382.1z"/>
					<path class="st2" d="M715.8,371.4h2.7v11.4h-2.7V371.4z M721.5,373.9c-0.3-0.1-0.6-0.1-0.9-0.1c-0.7,0-1.2,0.2-1.5,0.6
						s-0.5,0.9-0.5,1.6l-0.2-2.6c0.3-0.7,0.8-1.2,1.3-1.6c0.5-0.4,1.1-0.6,1.8-0.6c0.5,0,1,0.1,1.4,0.2s0.8,0.4,1.1,0.7l-1.6,2.2
						C722,374.2,721.8,374,721.5,373.9z"/>
					<path class="st2" d="M725.9,382.1c-0.7-0.6-1-1.5-1-2.7c0-1.1,0.3-2,1-2.5c0.7-0.6,1.7-0.8,3-0.8h3.1l0.2,2.1h-3.2
						c-0.5,0-0.9,0.1-1.2,0.3c-0.3,0.2-0.4,0.6-0.4,1c0,0.5,0.2,0.8,0.5,1.1s0.8,0.3,1.5,0.3c0.8,0,1.5-0.1,1.9-0.3
						c0.4-0.2,0.6-0.5,0.6-0.9l0.2,1.6c-0.1,0.4-0.3,0.7-0.7,0.9c-0.3,0.2-0.7,0.4-1.1,0.5c-0.4,0.1-0.9,0.2-1.4,0.2
						C727.5,383,726.5,382.7,725.9,382.1z M731.8,375.6c0-0.6-0.2-1.1-0.6-1.5c-0.4-0.4-0.9-0.5-1.6-0.5c-0.4,0-0.9,0.1-1.3,0.2
						c-0.4,0.1-0.8,0.3-1.1,0.6l-1.8-1.5c0.4-0.5,1-0.9,1.8-1.2c0.7-0.3,1.5-0.4,2.4-0.4c1,0,1.8,0.2,2.5,0.5
						c0.7,0.3,1.2,0.8,1.6,1.5c0.4,0.6,0.5,1.4,0.5,2.3v7.4h-2.4V375.6z"/>
					<path class="st2" d="M736.6,371.4h5.4v2.3h-5.4V371.4z M738.4,382.1c-0.4-0.5-0.7-1.3-0.7-2.3v-11.8h2.6v11.4
						c0,0.3,0.1,0.5,0.2,0.6s0.3,0.2,0.5,0.2h0.9v2.5h-1.4C739.6,382.9,738.9,382.6,738.4,382.1z"/>
					<path class="st2" d="M744.8,366.8h2.6v2.6h-2.6V366.8z M744.8,371.4h2.6v11.4h-2.6V371.4z"/>
					<path class="st2" d="M752.4,382.4c-0.7-0.4-1.3-1-1.7-1.7c-0.4-0.7-0.6-1.6-0.6-2.7v-1.9c0-1,0.2-1.9,0.6-2.7
						c0.4-0.7,0.9-1.3,1.7-1.7c0.7-0.4,1.6-0.6,2.6-0.6c1,0,1.9,0.2,2.6,0.6c0.7,0.4,1.3,0.9,1.7,1.7c0.4,0.7,0.6,1.6,0.6,2.7v1.9
						c0,1-0.2,1.9-0.6,2.7c-0.4,0.7-0.9,1.3-1.7,1.7c-0.7,0.4-1.6,0.6-2.6,0.6C754,383,753.1,382.8,752.4,382.4z M756.6,379.9
						c0.4-0.4,0.6-1,0.6-1.8v-1.9c0-0.8-0.2-1.4-0.6-1.8c-0.4-0.4-0.9-0.6-1.6-0.6c-0.7,0-1.2,0.2-1.6,0.6c-0.4,0.4-0.6,1-0.6,1.8
						v1.9c0,0.8,0.2,1.4,0.6,1.8c0.4,0.4,0.9,0.6,1.6,0.6C755.7,380.5,756.2,380.3,756.6,379.9z"/>
					<path class="st2" d="M762.8,371.4h2.6v11.4h-2.6V371.4z M769.6,375.9c0-0.7-0.2-1.2-0.6-1.6c-0.4-0.4-0.9-0.6-1.6-0.6
						c-0.6,0-1.1,0.2-1.5,0.5s-0.5,0.8-0.5,1.5l-0.2-2.4c0.3-0.7,0.8-1.2,1.3-1.6c0.5-0.4,1.1-0.6,1.9-0.6c1.2,0,2.2,0.4,2.8,1.2
						c0.7,0.8,1,2,1,3.4v6.9h-2.6V375.9z"/>
				</g>
			</g>
		</g>
		<g class="st1">
			<g>
				<g>
					<path class="st2" d="M506.1,547.1h2.6v16h-2.6V547.1z M507.5,554h9.1v2.5h-9.1V554z M515.1,547.1h2.6v16h-2.6V547.1z"/>
					<path class="st2" d="M521.7,562.5c-0.7-0.6-1-1.5-1-2.7c0-1.1,0.3-2,1-2.5c0.7-0.6,1.7-0.8,3-0.8h3.1l0.2,2.1h-3.2
						c-0.5,0-0.9,0.1-1.2,0.3c-0.3,0.2-0.4,0.6-0.4,1c0,0.5,0.2,0.8,0.5,1.1s0.8,0.3,1.5,0.3c0.8,0,1.5-0.1,1.9-0.3
						c0.4-0.2,0.6-0.5,0.6-0.9l0.2,1.6c-0.1,0.4-0.3,0.7-0.7,0.9c-0.3,0.2-0.7,0.4-1.1,0.5c-0.4,0.1-0.9,0.2-1.4,0.2
						C523.3,563.3,522.3,563,521.7,562.5z M527.6,555.9c0-0.6-0.2-1.1-0.6-1.5c-0.4-0.4-0.9-0.5-1.6-0.5c-0.4,0-0.9,0.1-1.3,0.2
						c-0.4,0.1-0.8,0.3-1.1,0.6l-1.8-1.5c0.4-0.5,1-0.9,1.8-1.2c0.7-0.3,1.5-0.4,2.4-0.4c1,0,1.8,0.2,2.5,0.5
						c0.7,0.3,1.2,0.8,1.6,1.5c0.4,0.6,0.5,1.4,0.5,2.3v7.4h-2.4V555.9z"/>
					<path class="st2" d="M533.3,551.7h2.6v11.4h-2.6V551.7z M540,556.2c0-0.7-0.2-1.2-0.6-1.6c-0.4-0.4-0.9-0.6-1.6-0.6
						c-0.6,0-1.1,0.2-1.5,0.5s-0.5,0.8-0.5,1.5l-0.2-2.4c0.3-0.7,0.8-1.2,1.3-1.6c0.5-0.4,1.1-0.6,1.9-0.6c1.2,0,2.2,0.4,2.8,1.2
						c0.7,0.8,1,2,1,3.4v6.9H540V556.2z"/>
					<path class="st2" d="M547.3,562.8c-0.6-0.4-1-0.9-1.3-1.6c-0.3-0.7-0.5-1.6-0.5-2.6v-2.2c0-1,0.2-1.9,0.5-2.6
						c0.3-0.7,0.7-1.3,1.3-1.7c0.6-0.4,1.3-0.6,2.1-0.6c0.6,0,1.2,0.2,1.8,0.5s1,0.9,1.3,1.5l-0.2,2.4c0-0.4-0.1-0.8-0.2-1.1
						c-0.2-0.3-0.4-0.5-0.7-0.7c-0.3-0.2-0.7-0.2-1.1-0.2c-0.7,0-1.2,0.2-1.5,0.6c-0.4,0.4-0.5,1-0.5,1.8v2.2c0,0.8,0.2,1.3,0.5,1.8
						c0.4,0.4,0.9,0.6,1.5,0.6c0.4,0,0.8-0.1,1.1-0.2c0.3-0.2,0.5-0.4,0.7-0.7s0.2-0.7,0.2-1.1l0.2,2.5c-0.2,0.6-0.6,1.1-1.1,1.4
						c-0.5,0.4-1.1,0.5-1.8,0.5C548.6,563.4,547.9,563.2,547.3,562.8z M552.2,547.1h2.6v16h-2.6V547.1z"/>
					<path class="st2" d="M564.3,547.1h2.6v16h-2.6V547.1z M565.6,560.7h9.3v2.5h-9.3V560.7z"/>
					<path class="st2" d="M580.2,563.3c0,0-0.4-0.2-1.1-0.6c-0.8-0.4-1.3-1-1.8-1.7c-0.4-0.8-0.6-1.7-0.6-2.8v-1.3
						c0-1.1,0.2-2.1,0.6-2.9c0.4-0.8,0.9-1.4,1.7-1.8s1.6-0.6,2.7-0.6c1,0,1.8,0.2,2.5,0.7c0.7,0.5,1.2,1.2,1.6,2.1
						c0.4,0.9,0.5,2,0.5,3.4v0.8h-7.8v-1.9h5.3l0-0.1c-0.1-0.8-0.3-1.4-0.7-1.9c-0.4-0.4-0.9-0.7-1.5-0.7c-0.8,0-1.4,0.2-1.8,0.7
						s-0.7,1.2-0.7,2.1v1.5c0,0.9,0.2,1.5,0.7,2c0.5,0.5,1.1,0.7,2,0.7c0.4,0,0.9-0.1,1.3-0.2s0.8-0.4,1.1-0.7l1.7,1.6
						c-0.6,0.5-1.2,1-2,1.3s-1.5,0.4-2.2,0.4C580.8,563.3,580.2,563.3,580.2,563.3z"/>
					<path class="st2" d="M588.3,551.7h5.4v2.3h-5.4V551.7z M590.1,562.5c-0.4-0.5-0.7-1.3-0.7-2.3v-11.8h2.6v11.4
						c0,0.3,0.1,0.5,0.2,0.6s0.3,0.2,0.5,0.2h0.9v2.5h-1.4C591.3,563.2,590.6,563,590.1,562.5z"/>
					<path class="st2" d="M595.7,551.7h5.4v2.3h-5.4V551.7z M597.5,562.5c-0.4-0.5-0.7-1.3-0.7-2.3v-11.8h2.6v11.4
						c0,0.3,0.1,0.5,0.2,0.6s0.3,0.2,0.5,0.2h0.9v2.5h-1.4C598.7,563.2,598,563,597.5,562.5z"/>
					<path class="st2" d="M607.1,563.3c0,0-0.4-0.2-1.1-0.6c-0.8-0.4-1.3-1-1.8-1.7c-0.4-0.8-0.6-1.7-0.6-2.8v-1.3
						c0-1.1,0.2-2.1,0.6-2.9c0.4-0.8,0.9-1.4,1.7-1.8s1.6-0.6,2.7-0.6c1,0,1.8,0.2,2.5,0.7c0.7,0.5,1.2,1.2,1.6,2.1
						c0.4,0.9,0.5,2,0.5,3.4v0.8h-7.8v-1.9h5.3l0-0.1c-0.1-0.8-0.3-1.4-0.7-1.9c-0.4-0.4-0.9-0.7-1.5-0.7c-0.8,0-1.4,0.2-1.8,0.7
						s-0.7,1.2-0.7,2.1v1.5c0,0.9,0.2,1.5,0.7,2c0.5,0.5,1.1,0.7,2,0.7c0.4,0,0.9-0.1,1.3-0.2s0.8-0.4,1.1-0.7l1.7,1.6
						c-0.6,0.5-1.2,1-2,1.3s-1.5,0.4-2.2,0.4C607.6,563.3,607.1,563.3,607.1,563.3z"/>
					<path class="st2" d="M616,551.7h2.7v11.4H616V551.7z M621.7,554.2c-0.3-0.1-0.6-0.1-0.9-0.1c-0.7,0-1.2,0.2-1.5,0.6
						s-0.5,0.9-0.5,1.6l-0.2-2.6c0.3-0.7,0.8-1.2,1.3-1.6c0.5-0.4,1.1-0.6,1.8-0.6c0.5,0,1,0.1,1.4,0.2s0.8,0.4,1.1,0.7l-1.6,2.2
						C622.2,554.5,622,554.3,621.7,554.2z"/>
					<path class="st2" d="M625.6,547.1h2.6v2.6h-2.6V547.1z M625.6,551.7h2.6v11.4h-2.6V551.7z"/>
					<path class="st2" d="M631.3,551.7h2.6v11.4h-2.6V551.7z M638.1,556.2c0-0.7-0.2-1.2-0.6-1.6c-0.4-0.4-0.9-0.6-1.6-0.6
						c-0.6,0-1.1,0.2-1.5,0.5s-0.5,0.8-0.5,1.5l-0.2-2.4c0.3-0.7,0.8-1.2,1.3-1.6c0.5-0.4,1.1-0.6,1.9-0.6c1.2,0,2.2,0.4,2.8,1.2
						c0.7,0.8,1,2,1,3.4v6.9h-2.6V556.2z"/>
					<path class="st2" d="M645.4,562.8c-0.6-0.4-1-0.9-1.3-1.6c-0.3-0.7-0.5-1.6-0.5-2.6v-2.2c0-1,0.2-1.9,0.5-2.6
						c0.3-0.7,0.7-1.3,1.3-1.7c0.6-0.4,1.3-0.6,2.1-0.6c0.6,0,1.2,0.2,1.8,0.5s1,0.9,1.3,1.5l-0.2,2.4c0-0.4-0.1-0.8-0.2-1.1
						c-0.2-0.3-0.4-0.5-0.7-0.7c-0.3-0.2-0.7-0.2-1.1-0.2c-0.7,0-1.2,0.2-1.5,0.6c-0.4,0.4-0.5,1-0.5,1.8v2.2c0,0.8,0.2,1.3,0.5,1.8
						c0.4,0.4,0.9,0.6,1.5,0.6c0.4,0,0.8-0.1,1.1-0.2c0.3-0.2,0.5-0.4,0.7-0.7s0.2-0.7,0.2-1.1l0.2,2.5c-0.2,0.6-0.6,1.1-1.1,1.4
						c-0.5,0.4-1.1,0.5-1.8,0.5C646.7,563.4,646,563.2,645.4,562.8z M646.6,567.8c0,0-0.3-0.2-1-0.5c-0.7-0.3-1.2-0.8-1.6-1.4
						l1.8-1.6c0.3,0.3,0.6,0.6,1,0.8c0.4,0.2,0.8,0.3,1.2,0.3c0.8,0,1.3-0.2,1.8-0.6c0.4-0.4,0.7-1,0.7-1.7v-11.4h2.6v11.1
						c0,1.1-0.2,2-0.6,2.7s-1,1.3-1.7,1.7c-0.8,0.4-1.7,0.6-2.7,0.6C647,567.8,646.6,567.8,646.6,567.8z"/>
				</g>
			</g>
		</g>
		<g class="st1">
			<g>
				<g>
					<path class="st2" d="M190.6,554c0,0-0.4-0.2-1.3-0.7c-0.9-0.5-1.5-1.2-2-2.1c-0.5-0.9-0.7-2-0.7-3.2v-4.4
						c0-1.2,0.2-2.3,0.7-3.2c0.5-0.9,1.1-1.6,2-2.1c0.9-0.5,1.9-0.7,3-0.7c1,0,1.8,0.2,2.6,0.6c0.8,0.4,1.4,1,2,1.8
						c0.5,0.8,0.9,1.7,1.1,2.8h-2.7c-0.1-0.5-0.3-1-0.6-1.4c-0.3-0.4-0.6-0.7-1-0.9c-0.4-0.2-0.8-0.3-1.3-0.3
						c-0.6,0-1.1,0.1-1.6,0.4c-0.4,0.3-0.8,0.7-1,1.2c-0.2,0.5-0.4,1.1-0.4,1.8v4.4c0,0.7,0.1,1.3,0.4,1.8c0.2,0.5,0.6,0.9,1,1.2
						c0.4,0.3,1,0.4,1.6,0.4c0.5,0,0.9-0.1,1.3-0.3c0.4-0.2,0.7-0.5,1-0.9c0.3-0.4,0.5-0.8,0.6-1.4h2.7c-0.2,1.1-0.6,2-1.1,2.8
						c-0.5,0.8-1.2,1.4-2,1.8s-1.7,0.6-2.6,0.6C191.2,554,190.6,554,190.6,554z"/>
					<path class="st2" d="M201.1,553.1c-0.7-0.6-1-1.5-1-2.7c0-1.1,0.3-2,1-2.5c0.7-0.6,1.7-0.8,3-0.8h3.1l0.2,2.1h-3.2
						c-0.5,0-0.9,0.1-1.2,0.3c-0.3,0.2-0.4,0.6-0.4,1c0,0.5,0.2,0.8,0.5,1.1c0.3,0.2,0.8,0.3,1.5,0.3c0.8,0,1.5-0.1,1.9-0.3
						c0.4-0.2,0.6-0.5,0.6-0.9l0.2,1.6c-0.1,0.4-0.3,0.7-0.7,0.9c-0.3,0.2-0.7,0.4-1.1,0.5c-0.4,0.1-0.9,0.2-1.4,0.2
						C202.8,554,201.8,553.7,201.1,553.1z M207.1,546.6c0-0.6-0.2-1.1-0.6-1.5c-0.4-0.4-0.9-0.5-1.6-0.5c-0.4,0-0.9,0.1-1.3,0.2
						c-0.4,0.1-0.8,0.3-1.1,0.6l-1.8-1.5c0.4-0.5,1-0.9,1.8-1.2c0.7-0.3,1.5-0.4,2.4-0.4c1,0,1.8,0.2,2.5,0.5
						c0.7,0.3,1.2,0.8,1.6,1.5c0.4,0.6,0.5,1.4,0.5,2.3v7.4h-2.4V546.6z"/>
					<path class="st2" d="M215.4,550.5c0,0.3,0.1,0.5,0.2,0.6c0.1,0.2,0.3,0.2,0.6,0.2h0.8v2.5h-1.4c-0.9,0-1.6-0.3-2.1-0.8
						c-0.5-0.5-0.7-1.3-0.7-2.2v-13h2.6V550.5z"/>
					<path class="st2" d="M221.9,550.5c0,0.3,0.1,0.5,0.2,0.6c0.1,0.2,0.3,0.2,0.6,0.2h0.8v2.5h-1.4c-0.9,0-1.6-0.3-2.1-0.8
						c-0.5-0.5-0.7-1.3-0.7-2.2v-13h2.6V550.5z"/>
					<path class="st2" d="M225.7,537.8h2.6v2.6h-2.6V537.8z M225.7,542.4h2.6v11.4h-2.6V542.4z"/>
					<path class="st2" d="M232.9,553.4c-0.6-0.4-1-0.9-1.3-1.6c-0.3-0.7-0.5-1.6-0.5-2.6V547c0-1,0.2-1.9,0.5-2.6
						c0.3-0.7,0.7-1.3,1.3-1.7c0.6-0.4,1.3-0.6,2.1-0.6c0.6,0,1.2,0.2,1.8,0.5c0.5,0.4,1,0.9,1.3,1.5l-0.2,2.4
						c0-0.4-0.1-0.8-0.2-1.1c-0.2-0.3-0.4-0.5-0.7-0.7c-0.3-0.2-0.7-0.2-1.1-0.2c-0.7,0-1.2,0.2-1.5,0.6c-0.4,0.4-0.5,1-0.5,1.8v2.2
						c0,0.8,0.2,1.3,0.5,1.8c0.4,0.4,0.9,0.6,1.5,0.6c0.4,0,0.8-0.1,1.1-0.2c0.3-0.2,0.5-0.4,0.7-0.7c0.2-0.3,0.2-0.7,0.2-1.1
						l0.2,2.5c-0.2,0.6-0.6,1.1-1.1,1.4c-0.5,0.4-1.1,0.5-1.8,0.5C234.2,554,233.5,553.8,232.9,553.4z M234.1,558.5
						c0,0-0.3-0.2-1-0.5c-0.7-0.3-1.2-0.8-1.6-1.4l1.8-1.6c0.3,0.3,0.6,0.6,1,0.8c0.4,0.2,0.8,0.3,1.2,0.3c0.8,0,1.3-0.2,1.8-0.6
						c0.4-0.4,0.7-1,0.7-1.7v-11.4h2.6v11.1c0,1.1-0.2,2-0.6,2.7c-0.4,0.8-1,1.3-1.7,1.7s-1.7,0.6-2.7,0.6
						C234.6,558.5,234.1,558.5,234.1,558.5z"/>
					<path class="st2" d="M243.7,542.4h2.7v11.4h-2.7V542.4z M249.4,544.9c-0.3-0.1-0.6-0.1-0.9-0.1c-0.7,0-1.2,0.2-1.5,0.6
						s-0.5,0.9-0.5,1.6l-0.2-2.6c0.3-0.7,0.8-1.2,1.3-1.6s1.1-0.6,1.8-0.6c0.5,0,1,0.1,1.4,0.2s0.8,0.4,1.1,0.7l-1.6,2.2
						C249.9,545.1,249.6,545,249.4,544.9z"/>
					<path class="st2" d="M253.7,553.1c-0.7-0.6-1-1.5-1-2.7c0-1.1,0.3-2,1-2.5c0.7-0.6,1.7-0.8,3-0.8h3.1l0.2,2.1h-3.2
						c-0.5,0-0.9,0.1-1.2,0.3c-0.3,0.2-0.4,0.6-0.4,1c0,0.5,0.2,0.8,0.5,1.1c0.3,0.2,0.8,0.3,1.5,0.3c0.8,0,1.5-0.1,1.9-0.3
						c0.4-0.2,0.6-0.5,0.6-0.9l0.2,1.6c-0.1,0.4-0.3,0.7-0.7,0.9c-0.3,0.2-0.7,0.4-1.1,0.5c-0.4,0.1-0.9,0.2-1.4,0.2
						C255.4,554,254.4,553.7,253.7,553.1z M259.7,546.6c0-0.6-0.2-1.1-0.6-1.5c-0.4-0.4-0.9-0.5-1.6-0.5c-0.4,0-0.9,0.1-1.3,0.2
						c-0.4,0.1-0.8,0.3-1.1,0.6l-1.8-1.5c0.4-0.5,1-0.9,1.8-1.2c0.7-0.3,1.5-0.4,2.4-0.4c1,0,1.8,0.2,2.5,0.5
						c0.7,0.3,1.2,0.8,1.6,1.5c0.4,0.6,0.5,1.4,0.5,2.3v7.4h-2.4V546.6z"/>
					<path class="st2" d="M265.3,542.4h2.6v16.1h-2.6V542.4z M268.9,553.5c-0.5-0.3-0.9-0.8-1.1-1.5l0.2-2.5c0,0.4,0.1,0.8,0.2,1.1
						c0.2,0.3,0.4,0.5,0.7,0.7c0.3,0.2,0.7,0.2,1.1,0.2c0.7,0,1.2-0.2,1.5-0.6c0.4-0.4,0.5-1,0.5-1.8v-2.2c0-0.8-0.2-1.4-0.5-1.8
						c-0.4-0.4-0.9-0.6-1.5-0.6c-0.4,0-0.8,0.1-1.1,0.2c-0.3,0.2-0.5,0.4-0.7,0.7c-0.2,0.3-0.2,0.7-0.2,1.1l-0.2-2.4
						c0.3-0.7,0.8-1.2,1.3-1.5c0.5-0.4,1.1-0.5,1.8-0.5c0.8,0,1.5,0.2,2.1,0.6s1,0.9,1.3,1.6c0.3,0.7,0.5,1.6,0.5,2.6v2.2
						c0,1-0.2,1.9-0.5,2.6s-0.8,1.3-1.3,1.6c-0.6,0.4-1.3,0.6-2.1,0.6C270,554,269.4,553.8,268.9,553.5z"/>
					<path class="st2" d="M277.6,537.8h2.6v16h-2.6V537.8z M284.4,546.9c0-0.7-0.2-1.2-0.6-1.6c-0.4-0.4-0.9-0.6-1.6-0.6
						c-0.6,0-1.1,0.2-1.5,0.5c-0.4,0.3-0.5,0.8-0.5,1.5l-0.2-2.4c0.3-0.7,0.8-1.2,1.3-1.6c0.5-0.4,1.1-0.6,1.9-0.6
						c1.2,0,2.2,0.4,2.8,1.2c0.7,0.8,1,2,1,3.4v6.9h-2.6V546.9z"/>
					<path class="st2" d="M289,542.4h2.6l3.7,9.9l-1.6,2.4L289,542.4z M299.4,542.4l-5,14.1c-0.2,0.5-0.4,0.9-0.7,1.2
						c-0.3,0.3-0.6,0.5-1.1,0.7c-0.4,0.1-0.9,0.2-1.5,0.2h-0.6v-2.5h0.6c0.4,0,0.7-0.1,0.9-0.2s0.4-0.4,0.6-0.8l4.2-12.7H299.4z"/>
				</g>
			</g>
		</g>
		<g>
			<circle class="st4" cx="410.2" cy="309.9" r="250.2"/>
			<circle class="st4" cx="410.2" cy="309.9" r="201.3"/>
			<circle class="st4" cx="410.2" cy="309.9" r="153.3"/>
			<circle class="st4" cx="410.2" cy="309.9" r="105.2"/>
			<circle class="st4" cx="410.2" cy="309.9" r="49.3"/>
			<g>
				<line class="st4" x1="410" y1="60.1" x2="410.4" y2="310.1"/>
				<line class="st4" x1="215.8" y1="154" x2="410.4" y2="310.1"/>
				<line class="st4" x1="167.5" y1="365.4" x2="410.4" y2="310.1"/>
				<line class="st4" x1="301.4" y1="534.9" x2="410.4" y2="310.1"/>
				<line class="st4" x1="518.2" y1="535.5" x2="410.4" y2="310.1"/>
				<line class="st4" x1="653" y1="366.7" x2="410.4" y2="310.1"/>
				<line class="st4" x1="605" y1="154.2" x2="410.4" y2="310.1"/>
			</g>
		</g>
		<g class="st1">
			<g>
				<g>
					<path class="st2" d="M124.2,134.9h2l3.2,11.6l2.4-11.6h2.7l-3.8,16h-2.6l-2.9-11.2l-3,11.2h-2.6l-3.8-16h2.7l2.4,11.6
						L124.2,134.9z"/>
					<path class="st2" d="M136.5,139.5h2.7V151h-2.7V139.5z M142.2,142c-0.3-0.1-0.6-0.1-0.9-0.1c-0.7,0-1.2,0.2-1.5,0.6
						c-0.4,0.4-0.5,0.9-0.5,1.6l-0.2-2.6c0.3-0.7,0.8-1.2,1.3-1.6c0.5-0.4,1.1-0.6,1.8-0.6c0.5,0,1,0.1,1.4,0.2s0.8,0.4,1.1,0.7
						l-1.6,2.2C142.7,142.3,142.4,142.1,142.2,142z"/>
					<path class="st2" d="M146,134.9h2.6v2.6H146V134.9z M146,139.5h2.6V151H146V139.5z"/>
					<path class="st2" d="M150.9,139.5h5.4v2.3h-5.4V139.5z M152.7,150.3c-0.4-0.5-0.7-1.3-0.7-2.3v-11.8h2.6v11.4
						c0,0.3,0.1,0.5,0.2,0.6c0.1,0.2,0.3,0.2,0.5,0.2h0.9v2.5h-1.4C153.9,151,153.2,150.8,152.7,150.3z"/>
					<path class="st2" d="M159.1,134.9h2.6v2.6h-2.6V134.9z M159.1,139.5h2.6V151h-2.6V139.5z"/>
					<path class="st2" d="M164.8,139.5h2.6V151h-2.6V139.5z M171.6,144c0-0.7-0.2-1.2-0.6-1.6s-0.9-0.6-1.6-0.6
						c-0.6,0-1.1,0.2-1.5,0.5s-0.5,0.8-0.5,1.5l-0.2-2.4c0.3-0.7,0.8-1.2,1.3-1.6c0.5-0.4,1.1-0.6,1.9-0.6c1.2,0,2.2,0.4,2.8,1.2
						s1,2,1,3.4v6.9h-2.6V144z"/>
					<path class="st2" d="M178.9,150.6c-0.6-0.4-1-0.9-1.3-1.6c-0.3-0.7-0.5-1.6-0.5-2.6v-2.2c0-1,0.2-1.9,0.5-2.6
						c0.3-0.7,0.7-1.3,1.3-1.7c0.6-0.4,1.3-0.6,2.1-0.6c0.6,0,1.2,0.2,1.8,0.5c0.5,0.4,1,0.9,1.3,1.5l-0.2,2.4
						c0-0.4-0.1-0.8-0.2-1.1c-0.2-0.3-0.4-0.5-0.7-0.7c-0.3-0.2-0.7-0.2-1.1-0.2c-0.7,0-1.2,0.2-1.5,0.6s-0.5,1-0.5,1.8v2.2
						c0,0.8,0.2,1.3,0.5,1.8s0.9,0.6,1.5,0.6c0.4,0,0.8-0.1,1.1-0.2c0.3-0.2,0.5-0.4,0.7-0.7c0.2-0.3,0.2-0.7,0.2-1.1l0.2,2.5
						c-0.2,0.6-0.6,1.1-1.1,1.4c-0.5,0.4-1.1,0.5-1.8,0.5C180.2,151.2,179.5,151,178.9,150.6z M180,155.6c0,0-0.3-0.2-1-0.5
						c-0.7-0.3-1.2-0.8-1.6-1.4l1.8-1.6c0.3,0.3,0.6,0.6,1,0.8c0.4,0.2,0.8,0.3,1.2,0.3c0.8,0,1.3-0.2,1.8-0.6
						c0.4-0.4,0.7-1,0.7-1.7v-11.4h2.6v11.1c0,1.1-0.2,2-0.6,2.7c-0.4,0.8-1,1.3-1.7,1.7s-1.7,0.6-2.7,0.6
						C180.5,155.6,180,155.6,180,155.6z"/>
					<path class="st2" d="M198.5,144.6c-0.5,0.5-0.7,1.1-0.7,1.9c0,0.7,0.2,1.3,0.7,1.7c0.5,0.4,1.2,0.6,2.1,0.6
						c0.9,0,1.6-0.2,2.2-0.7c0.6-0.5,1.1-1.2,1.4-2.1s0.5-2,0.5-3.2h2.5c0,1.8-0.3,3.3-0.8,4.5c-0.6,1.3-1.4,2.2-2.4,2.9
						s-2.4,1-3.9,1c-1,0-1.9-0.2-2.6-0.5s-1.3-0.9-1.7-1.6s-0.6-1.5-0.6-2.5c0-1.3,0.4-2.4,1.1-3.1c0.7-0.8,1.8-1.2,3.1-1.4l0.9,1.9
						C199.6,143.9,199,144.2,198.5,144.6z M199.3,144.6c-0.5-0.6-1-1.1-1.3-1.7c-0.4-0.6-0.6-1.2-0.8-1.8c-0.2-0.6-0.3-1.3-0.3-1.9
						c0-1.4,0.4-2.5,1.2-3.3c0.8-0.8,1.9-1.2,3.3-1.2c1.4,0,2.5,0.4,3.2,1.1c0.8,0.7,1.1,1.8,1.1,3.1v0.3h-2.6v-0.3
						c0-0.7-0.2-1.2-0.5-1.5c-0.3-0.4-0.7-0.5-1.3-0.5c-0.6,0-1.1,0.2-1.4,0.6c-0.3,0.4-0.5,0.9-0.5,1.6c0,0.4,0.1,0.9,0.2,1.3
						c0.2,0.5,0.4,0.9,0.7,1.4c0.3,0.5,0.7,1,1.1,1.5l7,7.5h-3.1L199.3,144.6z"/>
					<path class="st2" d="M216.7,134.9h2.6v16h-2.6V134.9z M217.9,142.2h5.1c0.4,0,0.8-0.1,1.1-0.3s0.6-0.5,0.8-0.8
						c0.2-0.4,0.3-0.8,0.3-1.2c0-0.5-0.1-0.9-0.3-1.3c-0.2-0.4-0.4-0.6-0.8-0.8c-0.3-0.2-0.7-0.3-1.1-0.3h-5.1v-2.5h5.1
						c1,0,1.8,0.2,2.6,0.6c0.7,0.4,1.3,1,1.7,1.7c0.4,0.7,0.6,1.6,0.6,2.6c0,1-0.2,1.8-0.6,2.6c-0.4,0.7-1,1.3-1.7,1.7
						c-0.7,0.4-1.6,0.6-2.6,0.6h-5.1V142.2z"/>
					<path class="st2" d="M233.1,146.5c0,0.7,0.2,1.2,0.5,1.6c0.4,0.4,0.9,0.6,1.5,0.6c0.7,0,1.2-0.2,1.5-0.5s0.5-0.9,0.5-1.5
						l0.2,2.4c-0.2,0.6-0.6,1.1-1.1,1.5c-0.5,0.4-1.1,0.6-1.9,0.6c-1.2,0-2.2-0.4-2.9-1.2s-1-1.9-1-3.4v-7h2.6V146.5z M237.2,139.5
						h2.6V151h-2.6V139.5z"/>
					<path class="st2" d="M243.1,134.9h2.6v16h-2.6V134.9z M246.7,150.6c-0.5-0.3-0.9-0.8-1.1-1.5l0.2-2.5c0,0.4,0.1,0.8,0.2,1.1
						c0.2,0.3,0.4,0.5,0.7,0.7s0.7,0.2,1.1,0.2c0.7,0,1.2-0.2,1.5-0.6c0.4-0.4,0.5-1,0.5-1.8v-2.2c0-0.8-0.2-1.4-0.5-1.8
						c-0.4-0.4-0.9-0.6-1.5-0.6c-0.4,0-0.8,0.1-1.1,0.2s-0.5,0.4-0.7,0.7s-0.2,0.7-0.2,1.1l-0.2-2.4c0.3-0.7,0.8-1.2,1.3-1.5
						c0.5-0.4,1.1-0.5,1.8-0.5c0.8,0,1.5,0.2,2.1,0.6s1,0.9,1.3,1.6c0.3,0.7,0.5,1.6,0.5,2.6v2.2c0,1-0.2,1.9-0.5,2.6
						s-0.8,1.3-1.3,1.6c-0.6,0.4-1.3,0.6-2.1,0.6C247.8,151.1,247.2,151,246.7,150.6z"/>
					<path class="st2" d="M258,147.6c0,0.3,0.1,0.5,0.2,0.6c0.1,0.2,0.3,0.2,0.6,0.2h0.8v2.5h-1.4c-0.9,0-1.6-0.3-2.1-0.8
						c-0.5-0.5-0.7-1.3-0.7-2.2v-13h2.6V147.6z"/>
					<path class="st2" d="M261.8,134.9h2.6v2.6h-2.6V134.9z M261.8,139.5h2.6V151h-2.6V139.5z"/>
					<path class="st2" d="M270.7,151.1c0,0-0.3-0.1-0.9-0.2c-0.6-0.1-1.2-0.3-1.7-0.6c-0.5-0.2-1-0.6-1.5-0.9l1.6-2
						c0.6,0.4,1.2,0.7,1.8,0.9c0.6,0.2,1.2,0.3,1.8,0.3c0.8,0,1.4-0.1,1.8-0.3c0.4-0.2,0.6-0.5,0.6-0.9c0-0.3-0.1-0.6-0.3-0.7
						c-0.2-0.2-0.5-0.3-0.8-0.3c-0.3-0.1-0.8-0.1-1.3-0.2c-0.1,0-0.2,0-0.3,0s-0.2,0-0.3,0c0,0-0.1,0-0.1,0c0,0-0.1,0-0.1,0
						c-0.8-0.1-1.5-0.2-2-0.4s-0.9-0.5-1.3-0.9c-0.3-0.4-0.5-1.1-0.5-1.9c0-0.8,0.2-1.5,0.5-2s0.9-0.9,1.5-1.2s1.5-0.4,2.5-0.4
						c0.6,0,1.2,0.1,1.7,0.2c0.6,0.1,1.1,0.3,1.6,0.5c0.5,0.2,1,0.5,1.5,0.8l-1.6,1.9c-0.5-0.3-1.1-0.6-1.6-0.7
						c-0.5-0.2-1.1-0.3-1.6-0.3c-0.7,0-1.2,0.1-1.6,0.3c-0.4,0.2-0.5,0.5-0.5,0.9c0,0.3,0.1,0.4,0.3,0.6c0.2,0.1,0.4,0.2,0.7,0.3
						s0.7,0.1,1.3,0.1c0.1,0,0.1,0,0.2,0c0.1,0,0.1,0,0.2,0c0,0,0,0,0.1,0s0.1,0,0.1,0c0.8,0.1,1.5,0.2,2.1,0.4c0.6,0.2,1,0.5,1.4,1
						c0.4,0.5,0.6,1.2,0.6,2.1c0,0.8-0.2,1.5-0.6,2c-0.4,0.6-0.9,1-1.6,1.3c-0.7,0.3-1.6,0.4-2.7,0.4
						C271.1,151.1,270.7,151.1,270.7,151.1z"/>
					<path class="st2" d="M279.3,134.9h2.6v16h-2.6V134.9z M286.1,144c0-0.7-0.2-1.2-0.6-1.6s-0.9-0.6-1.6-0.6
						c-0.6,0-1.1,0.2-1.5,0.5s-0.5,0.8-0.5,1.5l-0.2-2.4c0.3-0.7,0.8-1.2,1.3-1.6c0.5-0.4,1.1-0.6,1.9-0.6c1.2,0,2.2,0.4,2.8,1.2
						s1,2,1,3.4v6.9h-2.6V144z"/>
					<path class="st2" d="M291.8,134.9h2.6v2.6h-2.6V134.9z M291.8,139.5h2.6V151h-2.6V139.5z"/>
					<path class="st2" d="M297.6,139.5h2.6V151h-2.6V139.5z M304.3,144c0-0.7-0.2-1.2-0.6-1.6s-0.9-0.6-1.6-0.6
						c-0.6,0-1.1,0.2-1.5,0.5s-0.5,0.8-0.5,1.5l-0.2-2.4c0.3-0.7,0.8-1.2,1.3-1.6c0.5-0.4,1.1-0.6,1.9-0.6c1.2,0,2.2,0.4,2.8,1.2
						s1,2,1,3.4v6.9h-2.6V144z"/>
					<path class="st2" d="M311.6,150.6c-0.6-0.4-1-0.9-1.3-1.6c-0.3-0.7-0.5-1.6-0.5-2.6v-2.2c0-1,0.2-1.9,0.5-2.6
						c0.3-0.7,0.7-1.3,1.3-1.7c0.6-0.4,1.3-0.6,2.1-0.6c0.6,0,1.2,0.2,1.8,0.5c0.5,0.4,1,0.9,1.3,1.5l-0.2,2.4
						c0-0.4-0.1-0.8-0.2-1.1c-0.2-0.3-0.4-0.5-0.7-0.7c-0.3-0.2-0.7-0.2-1.1-0.2c-0.7,0-1.2,0.2-1.5,0.6s-0.5,1-0.5,1.8v2.2
						c0,0.8,0.2,1.3,0.5,1.8s0.9,0.6,1.5,0.6c0.4,0,0.8-0.1,1.1-0.2c0.3-0.2,0.5-0.4,0.7-0.7c0.2-0.3,0.2-0.7,0.2-1.1l0.2,2.5
						c-0.2,0.6-0.6,1.1-1.1,1.4c-0.5,0.4-1.1,0.5-1.8,0.5C312.9,151.2,312.2,151,311.6,150.6z M312.8,155.6c0,0-0.3-0.2-1-0.5
						c-0.7-0.3-1.2-0.8-1.6-1.4l1.8-1.6c0.3,0.3,0.6,0.6,1,0.8c0.4,0.2,0.8,0.3,1.2,0.3c0.8,0,1.3-0.2,1.8-0.6
						c0.4-0.4,0.7-1,0.7-1.7v-11.4h2.6v11.1c0,1.1-0.2,2-0.6,2.7c-0.4,0.8-1,1.3-1.7,1.7s-1.7,0.6-2.7,0.6
						C313.2,155.6,312.8,155.6,312.8,155.6z"/>
				</g>
			</g>
		</g>
	</g>
	<linearGradient id="SVGID_1_" gradientUnits="userSpaceOnUse" x1="413.1855" y1="45.0623" x2="413.1855" y2="442.5676">
		<stop  offset="0" style="stop-color:#00FF84"/>
		<stop  offset="1" style="stop-color:#00E4FF"/>
	</linearGradient>
	<polygon class="st5" points="319.8,238.1 409.3,59.2 553.5,196.7 590.4,353.2 475.2,450.5 343.3,450.5 236,349.9 	"/>
</g>
<g>
	<linearGradient id="SVGID_2_" gradientUnits="userSpaceOnUse" x1="406.5439" y1="59.5245" x2="414.53" y2="59.5245">
		<stop  offset="0" style="stop-color:#00FF84"/>
		<stop  offset="1" style="stop-color:#00FFAD"/>
	</linearGradient>
	<circle class="st6" cx="410.5" cy="59.5" r="3.5"/>
	<linearGradient id="SVGID_3_" gradientUnits="userSpaceOnUse" x1="549.3449" y1="197.947" x2="557.331" y2="197.947">
		<stop  offset="0" style="stop-color:#00FF84"/>
		<stop  offset="1" style="stop-color:#00FFAD"/>
	</linearGradient>
	<circle class="st7" cx="553.3" cy="197.9" r="3.5"/>
	<linearGradient id="SVGID_4_" gradientUnits="userSpaceOnUse" x1="585.8625" y1="352.2055" x2="593.8486" y2="352.2055">
		<stop  offset="0" style="stop-color:#00FF84"/>
		<stop  offset="1" style="stop-color:#00FFAD"/>
	</linearGradient>
	<circle class="st8" cx="589.9" cy="352.2" r="3.5"/>
	<linearGradient id="SVGID_5_" gradientUnits="userSpaceOnUse" x1="471.38" y1="450.2942" x2="479.3661" y2="450.2942">
		<stop  offset="0" style="stop-color:#00FF84"/>
		<stop  offset="1" style="stop-color:#00FFAD"/>
	</linearGradient>
	<circle class="st9" cx="475.4" cy="450.3" r="3.5"/>
	<linearGradient id="SVGID_6_" gradientUnits="userSpaceOnUse" x1="339.8506" y1="450.6705" x2="347.8367" y2="450.6705">
		<stop  offset="0" style="stop-color:#00FF84"/>
		<stop  offset="1" style="stop-color:#00FFAD"/>
	</linearGradient>
	<circle class="st10" cx="343.8" cy="450.7" r="3.5"/>
	<linearGradient id="SVGID_7_" gradientUnits="userSpaceOnUse" x1="231.7034" y1="349.2349" x2="239.6895" y2="349.2349">
		<stop  offset="0" style="stop-color:#00FF84"/>
		<stop  offset="1" style="stop-color:#00FFAD"/>
	</linearGradient>
	<circle class="st11" cx="235.7" cy="349.2" r="3.5"/>
	<linearGradient id="SVGID_8_" gradientUnits="userSpaceOnUse" x1="316.661" y1="237.4485" x2="324.6471" y2="237.4485">
		<stop  offset="0" style="stop-color:#00FF84"/>
		<stop  offset="1" style="stop-color:#00FFAD"/>
	</linearGradient>
	<circle class="st12" cx="320.7" cy="237.4" r="3.5"/>
</g>
</svg>
