<svg id="Capa_1" data-name="Capa 1" xmlns="http://www.w3.org/2000/svg" viewBox="0 0 1392.41 66"><defs><style>.cls-1{fill:#002333;}.cls-2{opacity:0.85;}.cls-3{fill:#fff;}.cls-4{fill:#00ff84;}</style></defs><title>summaryBar</title><rect class="cls-1" x="444" width="218.41" height="66" rx="14.65"/><rect class="cls-1" x="666" width="218.41" height="66" rx="14.65"/><rect class="cls-1" x="222" width="218.41" height="66" rx="14.65"/><rect class="cls-1" width="218.41" height="66" rx="14.65"/><rect class="cls-1" x="888.08" width="504.33" height="66" rx="14.65"/><g class="cls-2"><path class="cls-3" d="M43.43,22.11v6.73H40.14V22.11L35,11.39h3.45l3.33,7.51,3.34-7.51h3.45Z" transform="translate(0.08)"/><path class="cls-3" d="M50.67,28.39a4.27,4.27,0,0,1-1.83-1.86,6.31,6.31,0,0,1-.63-2.93v-2a6.18,6.18,0,0,1,.63-2.9,4.28,4.28,0,0,1,1.83-1.84,7.06,7.06,0,0,1,5.83,0,4.28,4.28,0,0,1,1.83,1.84,6.18,6.18,0,0,1,.63,2.9v2.06a6.26,6.26,0,0,1-.63,2.92,4.33,4.33,0,0,1-1.83,1.84,7.06,7.06,0,0,1-5.83,0Zm4.45-3.12a2.28,2.28,0,0,0,.55-1.64V21.57A2.22,2.22,0,0,0,55.12,20,2.33,2.33,0,0,0,52,20a2.26,2.26,0,0,0-.54,1.62v2.06A2.32,2.32,0,0,0,52,25.27a2,2,0,0,0,1.53.59A2,2,0,0,0,55.12,25.27Z" transform="translate(0.08)"/><path class="cls-3" d="M65,24a1.87,1.87,0,0,0,.51,1.4,2,2,0,0,0,1.44.5,1.85,1.85,0,0,0,1.42-.52,2,2,0,0,0,.5-1.45L69,26.61a3.9,3.9,0,0,1-1.16,1.72,3,3,0,0,1-2,.69,3.83,3.83,0,0,1-3.09-1.29,5.47,5.47,0,0,1-1.1-3.65v-7.7H65Zm3.87-7.58H72.1V28.84H68.82Z" transform="translate(0.08)"/><path class="cls-3" d="M75.34,16.38h3.53V28.84H75.34Zm6.42,3.11a2.45,2.45,0,0,0-.8-.12,1.92,1.92,0,0,0-1.54.64,2.66,2.66,0,0,0-.55,1.79l-.25-3.24A4.36,4.36,0,0,1,80,16.82a2.93,2.93,0,0,1,1.8-.62,3.93,3.93,0,0,1,1.41.25,3.14,3.14,0,0,1,1.1.72l-1.92,2.68A1.54,1.54,0,0,0,81.76,19.49Z" transform="translate(0.08)"/><path class="cls-3" d="M97.67,11.39h2.09l6.67,17.45h-3.54L98.71,16.92,94.54,28.84H91ZM94.2,22.88h9.19v3.17H94.2Z" transform="translate(0.08)"/><path class="cls-3" d="M111.65,24.73a.94.94,0,0,0,.25.7,1.06,1.06,0,0,0,.74.24h.55v3.17h-1.68a3.07,3.07,0,0,1-2.33-.86,3.4,3.4,0,0,1-.82-2.44V11.39h3.29Z" transform="translate(0.08)"/><path class="cls-3" d="M118.76,24.73a.94.94,0,0,0,.26.7,1,1,0,0,0,.74.24h.55v3.17h-1.68A3.07,3.07,0,0,1,116.3,28a3.4,3.4,0,0,1-.83-2.44V11.39h3.29Z" transform="translate(0.08)"/><path class="cls-3" d="M131.14,21v3.17h-8.55V21Z" transform="translate(0.08)"/><path class="cls-3" d="M133.42,16.38h6.1v2.81h-6.1Zm2.05,11.69a3.55,3.55,0,0,1-.76-2.47V12.76H138v12a1.17,1.17,0,0,0,.18.7.62.62,0,0,0,.53.25h.81V28.9h-1.65A3.09,3.09,0,0,1,135.47,28.07Z" transform="translate(0.08)"/><path class="cls-3" d="M142.22,11.39h3.29v3.29h-3.29Zm0,5h3.29V28.84h-3.29Z" transform="translate(0.08)"/><path class="cls-3" d="M148.57,16.38h3.29V28.84h-3.29Zm7.27,5.27A2.39,2.39,0,0,0,155.3,20a2,2,0,0,0-1.53-.6,1.89,1.89,0,0,0-1.41.51,2,2,0,0,0-.5,1.44l-.25-2.76A4.56,4.56,0,0,1,153,16.8a3.25,3.25,0,0,1,1.95-.6,4,4,0,0,1,2.26.64,3.91,3.91,0,0,1,1.44,1.86,8.08,8.08,0,0,1,.49,2.94v7.2h-3.29Zm7.26,0a2.43,2.43,0,0,0-.52-1.68,2.14,2.14,0,0,0-2.94,0,2.35,2.35,0,0,0-.51,1.62l-.61-2.88a4.6,4.6,0,0,1,1.53-1.84,3.66,3.66,0,0,1,2.09-.64,4.09,4.09,0,0,1,2.3.64,3.87,3.87,0,0,1,1.45,1.86,7.67,7.67,0,0,1,.5,2.94v7.2H163.1Z" transform="translate(0.08)"/><path class="cls-3" d="M173.17,29l-1.27-.65a4.39,4.39,0,0,1-2-1.91,6.27,6.27,0,0,1-.68-3V22a7.06,7.06,0,0,1,.65-3.16,4.4,4.4,0,0,1,1.87-2,6,6,0,0,1,3-.69,4.72,4.72,0,0,1,2.8.82,5.06,5.06,0,0,1,1.77,2.37,10.46,10.46,0,0,1,.6,3.75V24h-8.52V21.74h5.52l0-.29a2.94,2.94,0,0,0-.68-1.67,1.91,1.91,0,0,0-1.46-.59,2.38,2.38,0,0,0-1.84.71,2.83,2.83,0,0,0-.66,2v1.58a2.61,2.61,0,0,0,.72,2,2.75,2.75,0,0,0,2,.7,4,4,0,0,0,2.48-.91l2.15,1.91a7.18,7.18,0,0,1-2.19,1.38A6.54,6.54,0,0,1,175,29Z" transform="translate(0.08)"/><path class="cls-3" d="M50.7,51.71l-1.19-.26a10.22,10.22,0,0,1-2.25-.73,8.93,8.93,0,0,1-1.88-1.18l1.53-2.71a7.41,7.41,0,0,0,2.33,1.28,8.33,8.33,0,0,0,2.71.45,4.73,4.73,0,0,0,2.5-.55,1.71,1.71,0,0,0,.89-1.54h0a1.49,1.49,0,0,0-.4-1.1,2.3,2.3,0,0,0-1-.61,13.76,13.76,0,0,0-1.63-.34l-.07,0h-.07l-.26,0A17.41,17.41,0,0,1,49,43.66,4.26,4.26,0,0,1,47,42.2a4.68,4.68,0,0,1-.81-2.94v0A5.36,5.36,0,0,1,47,36.35a4.76,4.76,0,0,1,2.2-1.83,8.66,8.66,0,0,1,3.48-.63,8.49,8.49,0,0,1,1.91.22,10.23,10.23,0,0,1,1.92.62,10.91,10.91,0,0,1,1.77,1L56.86,38.5a9.09,9.09,0,0,0-2.1-1.08A6.33,6.33,0,0,0,52.65,37a4.58,4.58,0,0,0-2.34.49,1.55,1.55,0,0,0-.83,1.4h0a1.62,1.62,0,0,0,.43,1.2,2.58,2.58,0,0,0,1.07.64,15.39,15.39,0,0,0,1.79.43l.09,0,.1,0,.14,0,.14,0A14.73,14.73,0,0,1,56,42.1a4.3,4.3,0,0,1,1.86,1.48,4.76,4.76,0,0,1,.74,2.81v0a5.1,5.1,0,0,1-.78,2.86,4.87,4.87,0,0,1-2.27,1.81,9.28,9.28,0,0,1-3.6.63Z" transform="translate(0.08)"/><path class="cls-3" d="M64.86,51.71,63.59,51a4.51,4.51,0,0,1-1.93-2A6.78,6.78,0,0,1,61,45.93V44.6a6.65,6.65,0,0,1,.66-3.09,4.49,4.49,0,0,1,1.93-1.95,6.41,6.41,0,0,1,3-.68,7.5,7.5,0,0,1,1.93.24,5.55,5.55,0,0,1,1.63.68,4.15,4.15,0,0,1,1.2,1.08l-2.13,2.06a3.19,3.19,0,0,0-1.06-.65,3.52,3.52,0,0,0-1.29-.24,2.66,2.66,0,0,0-1.93.67,2.48,2.48,0,0,0-.69,1.88v1.33A2.59,2.59,0,0,0,65,47.86a2.62,2.62,0,0,0,1.93.68,3.54,3.54,0,0,0,1.3-.25,2.88,2.88,0,0,0,1.05-.73l2.13,2.19a4.42,4.42,0,0,1-1.21,1.06,5.88,5.88,0,0,1-1.62.67,8,8,0,0,1-1.93.23Z" transform="translate(0.08)"/><path class="cls-3" d="M75.72,51.07a4.19,4.19,0,0,1-1.84-1.86,6.31,6.31,0,0,1-.63-2.93v-2a6.21,6.21,0,0,1,.63-2.9,4.25,4.25,0,0,1,1.84-1.84,7,7,0,0,1,5.82,0,4.3,4.3,0,0,1,1.84,1.84,6.21,6.21,0,0,1,.63,2.9v2.07a6.25,6.25,0,0,1-.63,2.91,4.3,4.3,0,0,1-1.84,1.84,6.94,6.94,0,0,1-5.82,0ZM80.17,48a2.34,2.34,0,0,0,.55-1.64V44.25a2.27,2.27,0,0,0-.55-1.62,2.07,2.07,0,0,0-1.55-.58,2,2,0,0,0-1.53.58,2.22,2.22,0,0,0-.55,1.62v2.07A2.33,2.33,0,0,0,77.08,48a2,2,0,0,0,1.54.58A2.07,2.07,0,0,0,80.17,48Z" transform="translate(0.08)"/><path class="cls-3" d="M87,39.06h3.53V51.53H87Zm6.42,3.11a2.45,2.45,0,0,0-.8-.12,1.93,1.93,0,0,0-1.55.65,2.67,2.67,0,0,0-.54,1.78l-.25-3.24a4.43,4.43,0,0,1,1.34-1.74,2.93,2.93,0,0,1,1.8-.62,3.93,3.93,0,0,1,1.41.25,3,3,0,0,1,1.1.73L94,42.53A1.54,1.54,0,0,0,93.43,42.17Z" transform="translate(0.08)"/><path class="cls-3" d="M100.8,51.71l-1.28-.66a4.44,4.44,0,0,1-2-1.91,6.38,6.38,0,0,1-.67-3v-1.4a7.24,7.24,0,0,1,.64-3.16,4.47,4.47,0,0,1,1.88-2,6,6,0,0,1,3-.69,4.79,4.79,0,0,1,2.8.82A5.17,5.17,0,0,1,107,42.07a10.46,10.46,0,0,1,.6,3.75v.82H99V44.42h5.52l0-.29a2.94,2.94,0,0,0-.68-1.67,1.91,1.91,0,0,0-1.46-.59,2.38,2.38,0,0,0-1.84.71,2.83,2.83,0,0,0-.66,2v1.58a2.61,2.61,0,0,0,.72,2,2.7,2.7,0,0,0,2,.7,3.74,3.74,0,0,0,1.31-.24,3.9,3.9,0,0,0,1.18-.66l2.15,1.91a7.15,7.15,0,0,1-2.19,1.37,6.57,6.57,0,0,1-2.45.49Z" transform="translate(0.08)"/><path class="cls-3" d="M109.42,39.18h3.29v3.29h-3.29Zm0,9.06h3.29v3.29h-3.29Z" transform="translate(0.08)"/><path class="cls-3" d="M121.75,48.56l6-7.87a4.56,4.56,0,0,0,.64-1.09,3,3,0,0,0,.22-1v0a1.37,1.37,0,0,0-.46-1.1,2,2,0,0,0-1.3-.38,1.76,1.76,0,0,0-1.32.53,2.61,2.61,0,0,0-.61,1.52h-3.37a6.42,6.42,0,0,1,.78-2.81,4.69,4.69,0,0,1,1.83-1.79,5.6,5.6,0,0,1,2.67-.62,6.71,6.71,0,0,1,2.79.53A4,4,0,0,1,131.38,36a4.77,4.77,0,0,1,.6,2.46h0a7.19,7.19,0,0,1-.41,2.36,7.4,7.4,0,0,1-1.16,2.12l-4.3,5.43h6v3.17H121.75Z" transform="translate(0.08)"/><path class="cls-3" d="M133.76,45.82l5.38-11.74h3.72l-5.23,11.6h7.84v3.17H133.76Zm7.05-4.56h3.29V51.54h-3.29Z" transform="translate(0.08)"/><path class="cls-3" d="M150.57,51.09a4.71,4.71,0,0,1-1.8-1.8,6.46,6.46,0,0,1-.78-2.81h3.29a2.56,2.56,0,0,0,.58,1.5,1.7,1.7,0,0,0,1.29.53,1.64,1.64,0,0,0,1.34-.56,2.46,2.46,0,0,0,.47-1.6V44.89a2.6,2.6,0,0,0-.42-1.59,1.42,1.42,0,0,0-1.2-.56,2,2,0,0,0-1.21.36,1.84,1.84,0,0,0-.69,1h-3.07v-10h9.38v3.17h-6.09v3.09a2.54,2.54,0,0,1,1-.58,4.13,4.13,0,0,1,1.28-.21,4.18,4.18,0,0,1,2.33.63A3.9,3.9,0,0,1,157.75,42a7.61,7.61,0,0,1,.5,2.9v1.46a6.44,6.44,0,0,1-.6,2.9,4.26,4.26,0,0,1-1.76,1.83,5.75,5.75,0,0,1-2.79.63A5.18,5.18,0,0,1,150.57,51.09Z" transform="translate(0.08)"/><path class="cls-3" d="M170.87,36.25,167,51.53h-3.57l3.79-14.29h-3v2.63h-3.29v-5.8h10Z" transform="translate(0.08)"/></g><g class="cls-2"><path class="cls-3" d="M497.74,40.37l-1.42-.77a5,5,0,0,1-2.16-2.22,7.6,7.6,0,0,1-.75-3.52V29.07a7.67,7.67,0,0,1,.75-3.53,5,5,0,0,1,2.16-2.22,7.07,7.07,0,0,1,3.41-.77,6.06,6.06,0,0,1,2.94.71,5.77,5.77,0,0,1,2.14,2.06A8.62,8.62,0,0,1,506,28.58h-3.41A4.21,4.21,0,0,0,502,27.1a2.89,2.89,0,0,0-1-.94,2.61,2.61,0,0,0-1.28-.32,3,3,0,0,0-1.57.38,2.36,2.36,0,0,0-1,1.1,4.08,4.08,0,0,0-.35,1.75v4.79a4,4,0,0,0,.35,1.74,2.36,2.36,0,0,0,1,1.1,3.07,3.07,0,0,0,1.57.38,2.62,2.62,0,0,0,1.29-.32,2.71,2.71,0,0,0,1-.93,4.45,4.45,0,0,0,.57-1.49H506a8.87,8.87,0,0,1-1.18,3.26,5.77,5.77,0,0,1-2.14,2.06,6,6,0,0,1-2.93.71Z" transform="translate(0.08)"/><path class="cls-3" d="M512,36.07a.93.93,0,0,0,.26.7A1,1,0,0,0,513,37h.55v3.17H511.9a3.08,3.08,0,0,1-2.33-.87,3.39,3.39,0,0,1-.83-2.44V22.73H512Z" transform="translate(0.08)"/><path class="cls-3" d="M516.13,39.41a3.86,3.86,0,0,1-1-2.9,3.39,3.39,0,0,1,1.11-2.77,5.12,5.12,0,0,1,3.34-.93h3.12l.17,2.51H519.6a1.76,1.76,0,0,0-1.12.3,1,1,0,0,0-.37.89,1,1,0,0,0,.47.91,2.75,2.75,0,0,0,1.41.29,4.92,4.92,0,0,0,2-.3,1,1,0,0,0,.64-.93l.25,1.81a1.68,1.68,0,0,1-.62,1.14,3.48,3.48,0,0,1-1.37.7,6.08,6.08,0,0,1-1.73.24A4.16,4.16,0,0,1,516.13,39.41Zm6.47-7.12A1.62,1.62,0,0,0,522,31a2.53,2.53,0,0,0-1.63-.47,4.44,4.44,0,0,0-1.38.23,4.23,4.23,0,0,0-1.21.64l-2-2a4.85,4.85,0,0,1,2-1.32,7.34,7.34,0,0,1,2.71-.48,6.47,6.47,0,0,1,2.78.55A3.88,3.88,0,0,1,525,29.67a4.86,4.86,0,0,1,.61,2.51v8h-3Z" transform="translate(0.08)"/><path class="cls-3" d="M532.48,40.37l-1.06-.2a9.68,9.68,0,0,1-2-.59,7.12,7.12,0,0,1-1.63-.92l2-2.53a8.27,8.27,0,0,0,1.88.89,6.48,6.48,0,0,0,1.88.31,5,5,0,0,0,1.79-.26c.42-.17.63-.41.63-.71a.77.77,0,0,0-.27-.64,1.78,1.78,0,0,0-.71-.31c-.29-.06-.7-.11-1.22-.16l-.43,0-.45,0-.11,0h-.1a14.1,14.1,0,0,1-2.23-.44,2.86,2.86,0,0,1-1.42-1,3.47,3.47,0,0,1-.59-2.18,3.71,3.71,0,0,1,.6-2.13A3.6,3.6,0,0,1,530.84,28a7.3,7.3,0,0,1,2.76-.47,9.34,9.34,0,0,1,1.89.2,9,9,0,0,1,1.8.55,9,9,0,0,1,1.6.86l-2,2.39a8.15,8.15,0,0,0-1.7-.71,6.55,6.55,0,0,0-1.71-.25,4.16,4.16,0,0,0-1.54.23c-.37.15-.56.36-.56.64a.53.53,0,0,0,.3.48,2,2,0,0,0,.73.25c.29.06.72.11,1.28.18l.21,0,.22,0h.22a15.37,15.37,0,0,1,2.36.43,3.11,3.11,0,0,1,1.56,1.06,3.62,3.62,0,0,1,.64,2.33,3.69,3.69,0,0,1-2.45,3.63,7.76,7.76,0,0,1-2.89.49Z" transform="translate(0.08)"/><path class="cls-3" d="M545.23,40.37l-1.06-.2a9.68,9.68,0,0,1-2-.59,7.12,7.12,0,0,1-1.63-.92l2-2.53a8.27,8.27,0,0,0,1.88.89,6.48,6.48,0,0,0,1.88.31,5,5,0,0,0,1.79-.26c.42-.17.63-.41.63-.71a.77.77,0,0,0-.27-.64,1.78,1.78,0,0,0-.71-.31,12.16,12.16,0,0,0-1.21-.16l-.44,0-.45,0-.11,0h-.1a14.1,14.1,0,0,1-2.23-.44,2.86,2.86,0,0,1-1.42-1,3.47,3.47,0,0,1-.59-2.18A3.52,3.52,0,0,1,543.59,28a7.3,7.3,0,0,1,2.76-.47,9.34,9.34,0,0,1,1.89.2,9,9,0,0,1,1.8.55,9,9,0,0,1,1.6.86l-2,2.39a8.15,8.15,0,0,0-1.7-.71,6.55,6.55,0,0,0-1.71-.25,4.16,4.16,0,0,0-1.54.23c-.37.15-.56.36-.56.64a.53.53,0,0,0,.3.48,2,2,0,0,0,.73.25c.29.06.72.11,1.28.18l.22,0,.21,0h.22a15.37,15.37,0,0,1,2.36.43,3.11,3.11,0,0,1,1.56,1.06,3.62,3.62,0,0,1,.64,2.33,3.66,3.66,0,0,1-2.45,3.63,7.76,7.76,0,0,1-2.89.49Z" transform="translate(0.08)"/><path class="cls-3" d="M557.87,40.37l-1.28-.66a4.44,4.44,0,0,1-2-1.91,6.27,6.27,0,0,1-.67-3v-1.4a7.1,7.1,0,0,1,.64-3.16,4.47,4.47,0,0,1,1.88-2,6,6,0,0,1,3-.69,4.74,4.74,0,0,1,2.79.82A5,5,0,0,1,564,30.73a10.46,10.46,0,0,1,.6,3.75v.82h-8.52V33.08h5.52l0-.29a2.87,2.87,0,0,0-.67-1.67,1.91,1.91,0,0,0-1.46-.59,2.42,2.42,0,0,0-1.85.71,2.87,2.87,0,0,0-.65,2v1.58a2.64,2.64,0,0,0,.71,2,2.78,2.78,0,0,0,2,.7,3.74,3.74,0,0,0,1.31-.24,4,4,0,0,0,1.18-.66l2.15,1.9a7,7,0,0,1-2.19,1.38,6.61,6.61,0,0,1-2.45.49Z" transform="translate(0.08)"/><path class="cls-3" d="M571.16,40.37l-1-.2a9.32,9.32,0,0,1-2-.59,7,7,0,0,1-1.64-.92l2-2.53a8.14,8.14,0,0,0,1.89.89,6.41,6.41,0,0,0,1.87.31,5,5,0,0,0,1.79-.26c.42-.17.63-.41.63-.71a.77.77,0,0,0-.27-.64,1.78,1.78,0,0,0-.71-.31,12.16,12.16,0,0,0-1.21-.16l-.44,0-.45,0-.1,0h-.1a14.26,14.26,0,0,1-2.24-.44,2.9,2.9,0,0,1-1.42-1,3.48,3.48,0,0,1-.58-2.18,3.71,3.71,0,0,1,.6-2.13A3.61,3.61,0,0,1,569.52,28a7.3,7.3,0,0,1,2.76-.47,10,10,0,0,1,3.7.75,9,9,0,0,1,1.59.86l-2,2.39a8.46,8.46,0,0,0-1.71-.71,6.54,6.54,0,0,0-1.7-.25,4.22,4.22,0,0,0-1.55.23c-.37.15-.55.36-.55.64a.52.52,0,0,0,.29.48,2.09,2.09,0,0,0,.73.25c.3.06.72.11,1.28.18l.22,0,.21,0h.22a15.53,15.53,0,0,1,2.37.43A3.12,3.12,0,0,1,577,33.92a3.62,3.62,0,0,1,.64,2.33,3.66,3.66,0,0,1-2.45,3.63,7.76,7.76,0,0,1-2.89.49Z" transform="translate(0.08)"/><path class="cls-3" d="M579.72,27.84H583v3.29h-3.29Zm0,9.06H583v3.29h-3.29Z" transform="translate(0.08)"/><path class="cls-3" d="M594.76,39.77a4.54,4.54,0,0,1-1.94-1.7,4.81,4.81,0,0,1-.68-2.55v-.29a4.52,4.52,0,0,1,.72-2.46A4.6,4.6,0,0,1,594.78,31a4.16,4.16,0,0,1-1.66-1.45,3.54,3.54,0,0,1-.62-2v-.46a4.44,4.44,0,0,1,.64-2.4A4.3,4.3,0,0,1,595,23.12a6.77,6.77,0,0,1,5.44,0,4.24,4.24,0,0,1,1.81,1.61,4.45,4.45,0,0,1,.65,2.4v.46a3.53,3.53,0,0,1-.64,2A4.11,4.11,0,0,1,600.53,31a4.73,4.73,0,0,1,1.94,1.74,4.48,4.48,0,0,1,.74,2.46v.29a4.73,4.73,0,0,1-.69,2.55,4.48,4.48,0,0,1-1.94,1.7,7.36,7.36,0,0,1-5.82,0Zm4.08-2.84a1.89,1.89,0,0,0,.79-.77,2.17,2.17,0,0,0,.29-1.12v-.17a1.89,1.89,0,0,0-.29-1,1.94,1.94,0,0,0-.78-.69,2.73,2.73,0,0,0-1.18-.24,2.66,2.66,0,0,0-1.17.24,1.86,1.86,0,0,0-1.07,1.74v.18a2.17,2.17,0,0,0,.28,1.12,1.84,1.84,0,0,0,.79.75,2.67,2.67,0,0,0,2.34,0Zm-.18-7.47a1.65,1.65,0,0,0,.66-.7,2.16,2.16,0,0,0,.24-1v-.16a1.91,1.91,0,0,0-.24-1,1.51,1.51,0,0,0-.66-.64,2,2,0,0,0-1-.23,2,2,0,0,0-1,.23,1.63,1.63,0,0,0-.66.64,2,2,0,0,0-.23,1v.18a2.13,2.13,0,0,0,.23,1,1.82,1.82,0,0,0,.66.69,2,2,0,0,0,1,.24A2,2,0,0,0,598.66,29.46Z" transform="translate(0.08)"/></g><g class="cls-2"><path class="cls-3" d="M716.18,11.39h3.29V28.84h-3.29Zm1.66,14.28H722a3.63,3.63,0,0,0,2.51-.78,2.76,2.76,0,0,0,.89-2.2V17.55a2.78,2.78,0,0,0-.89-2.21,3.68,3.68,0,0,0-2.51-.78h-4.19V11.39H722a8.62,8.62,0,0,1,3.73.73A5.13,5.13,0,0,1,728,14.26a6.63,6.63,0,0,1,.81,3.38v4.95a6.67,6.67,0,0,1-.78,3.29,5.22,5.22,0,0,1-2.32,2.18,8.37,8.37,0,0,1-3.79.78h-4.11Z" transform="translate(0.08)"/><path class="cls-3" d="M732.47,28.07a3.86,3.86,0,0,1-1-2.9,3.39,3.39,0,0,1,1.11-2.77,5.09,5.09,0,0,1,3.33-.93H739l.17,2.51h-3.28a1.75,1.75,0,0,0-1.11.3,1,1,0,0,0-.37.89,1,1,0,0,0,.46.91,2.82,2.82,0,0,0,1.42.29,4.83,4.83,0,0,0,2-.3,1,1,0,0,0,.65-.94l.25,1.82a1.72,1.72,0,0,1-.62,1.14,3.62,3.62,0,0,1-1.37.7,6.18,6.18,0,0,1-1.73.23A4.16,4.16,0,0,1,732.47,28.07ZM738.94,21a1.64,1.64,0,0,0-.58-1.34,2.55,2.55,0,0,0-1.63-.47,4.34,4.34,0,0,0-1.38.23,4.17,4.17,0,0,0-1.22.64l-2-2a5,5,0,0,1,2-1.32,7.38,7.38,0,0,1,2.71-.48,6.4,6.4,0,0,1,2.79.55,3.93,3.93,0,0,1,1.76,1.58,5,5,0,0,1,.6,2.51v8h-3Z" transform="translate(0.08)"/><path class="cls-3" d="M743.49,16.38h3.09l4.19,10.83-2.07,2.66Zm11.51,0-5.55,15.38a3.77,3.77,0,0,1-.77,1.35,2.62,2.62,0,0,1-1.14.72,5.73,5.73,0,0,1-1.68.21h-.73V30.85h.73a1.63,1.63,0,0,0,.89-.23,1.46,1.46,0,0,0,.53-.77l4.62-13.47Z" transform="translate(0.08)"/><path class="cls-3" d="M760.33,29l-1.06-.19a10.35,10.35,0,0,1-2-.59,7.12,7.12,0,0,1-1.63-.92l2-2.53a7.83,7.83,0,0,0,1.88.88,6.18,6.18,0,0,0,1.88.32,5,5,0,0,0,1.79-.26q.63-.26.63-.72a.73.73,0,0,0-.28-.63,1.61,1.61,0,0,0-.7-.31c-.29-.06-.7-.11-1.22-.16l-.43-.05-.45-.05h-.21a14.1,14.1,0,0,1-2.23-.44,2.86,2.86,0,0,1-1.42-1,3.47,3.47,0,0,1-.59-2.18,3.71,3.71,0,0,1,.6-2.13,3.61,3.61,0,0,1,1.74-1.35,7.39,7.39,0,0,1,2.77-.47,10.1,10.1,0,0,1,1.89.19,9.9,9.9,0,0,1,1.8.56,9,9,0,0,1,1.6.86l-2,2.39a8.15,8.15,0,0,0-1.7-.71,6.15,6.15,0,0,0-1.71-.25,4.16,4.16,0,0,0-1.54.23c-.37.15-.56.36-.56.63a.55.55,0,0,0,.3.49,2,2,0,0,0,.73.25l1.28.18.21,0,.22,0h.22a14.24,14.24,0,0,1,2.36.43,3.11,3.11,0,0,1,1.56,1.06,3.68,3.68,0,0,1,.64,2.33,3.86,3.86,0,0,1-.63,2.22,3.92,3.92,0,0,1-1.82,1.41,7.81,7.81,0,0,1-2.89.48Z" transform="translate(0.08)"/><path class="cls-3" d="M775.85,11.39h3.29v3.29h-3.29Zm0,5h3.29V28.84h-3.29Z" transform="translate(0.08)"/><path class="cls-3" d="M782.2,16.38h3.29V28.84H782.2Zm7.21,4.91a1.88,1.88,0,0,0-.52-1.41,2.06,2.06,0,0,0-1.49-.51,1.87,1.87,0,0,0-1.41.51,2,2,0,0,0-.5,1.44l-.25-2.76a4.71,4.71,0,0,1,1.35-1.77,3.25,3.25,0,0,1,2-.59,3.7,3.7,0,0,1,3,1.33,5.78,5.78,0,0,1,1.08,3.75v7.56h-3.29Z" transform="translate(0.08)"/><path class="cls-3" d="M802.93,28.07a3.86,3.86,0,0,1-1-2.9,3.39,3.39,0,0,1,1.11-2.77,5.09,5.09,0,0,1,3.33-.93h3.13l.16,2.51H806.4a1.76,1.76,0,0,0-1.12.3,1,1,0,0,0-.37.89,1,1,0,0,0,.47.91,2.75,2.75,0,0,0,1.41.29,4.83,4.83,0,0,0,2-.3,1,1,0,0,0,.65-.94l.25,1.82a1.68,1.68,0,0,1-.62,1.14,3.62,3.62,0,0,1-1.37.7,6.13,6.13,0,0,1-1.73.23A4.16,4.16,0,0,1,802.93,28.07ZM809.4,21a1.61,1.61,0,0,0-.58-1.34,2.53,2.53,0,0,0-1.63-.47,4.34,4.34,0,0,0-1.38.23,4.17,4.17,0,0,0-1.22.64l-2-2a5,5,0,0,1,2-1.32,7.4,7.4,0,0,1,2.72-.48,6.35,6.35,0,0,1,2.78.55,3.88,3.88,0,0,1,1.76,1.58,5,5,0,0,1,.61,2.51v8h-3Z" transform="translate(0.08)"/><path class="cls-3" d="M723.83,34.06h3.29V51.53h-3.29Zm1.3,7.27h6.08a1.57,1.57,0,0,0,.89-.25,1.69,1.69,0,0,0,.59-.72,2.77,2.77,0,0,0,.23-1.08,2.6,2.6,0,0,0-.22-1.08,1.62,1.62,0,0,0-.59-.72,1.6,1.6,0,0,0-.9-.25h-6.08V34.06h6.34a4.83,4.83,0,0,1,2.54.65,4.34,4.34,0,0,1,1.69,1.83,6.56,6.56,0,0,1,0,5.48,4.36,4.36,0,0,1-1.7,1.83,4.79,4.79,0,0,1-2.53.65h-6.34ZM728.81,44l3.52-.55,4.7,8.12h-4Z" transform="translate(0.08)"/><path class="cls-3" d="M741.24,51.07a4.24,4.24,0,0,1-1.84-1.86,6.31,6.31,0,0,1-.63-2.93v-2a6.21,6.21,0,0,1,.63-2.9,4.3,4.3,0,0,1,1.84-1.84,7,7,0,0,1,5.82,0,4.25,4.25,0,0,1,1.84,1.84,6.21,6.21,0,0,1,.63,2.9v2.07a6.25,6.25,0,0,1-.63,2.91,4.25,4.25,0,0,1-1.84,1.84,6.94,6.94,0,0,1-5.82,0ZM745.69,48a2.29,2.29,0,0,0,.55-1.64V44.25a2.22,2.22,0,0,0-.55-1.62,2.07,2.07,0,0,0-1.55-.58,2,2,0,0,0-1.53.58,2.27,2.27,0,0,0-.55,1.62v2.07A2.33,2.33,0,0,0,742.6,48a2,2,0,0,0,1.54.58A2.07,2.07,0,0,0,745.69,48Z" transform="translate(0.08)"/><path class="cls-3" d="M751,39.06h3.16l2.21,7.7,2.63-7.7h1.94l2.63,7.7,2.21-7.7h3.16l-3.84,12.47h-2.45l-2.68-8.13-2.68,8.13h-2.45Z" transform="translate(0.08)"/><path class="cls-3" d="M769.09,39.18h3.29v3.29h-3.29Zm0,9.06h3.29v3.29h-3.29Z" transform="translate(0.08)"/><path class="cls-3" d="M783.67,51.09a4.06,4.06,0,0,1-1.75-1.8,6.25,6.25,0,0,1-.6-2.85v0a9,9,0,0,1,.24-2,12.7,12.7,0,0,1,.66-2.13l.15-.36c0-.12.11-.23.16-.34l3.55-7.52h3.72l-4.2,8.7-.83-.43a2.09,2.09,0,0,1,.87-.87,2.81,2.81,0,0,1,1.35-.32,4.68,4.68,0,0,1,2.46.62A3.82,3.82,0,0,1,791,43.55a6.68,6.68,0,0,1,.54,2.81v0a6.38,6.38,0,0,1-.6,2.88,4.06,4.06,0,0,1-1.75,1.82,5.67,5.67,0,0,1-2.77.63A5.73,5.73,0,0,1,783.67,51.09Zm4.1-3.06a2,2,0,0,0,.48-1.45h0a2.53,2.53,0,0,0-.48-1.66,1.63,1.63,0,0,0-1.35-.59,1.59,1.59,0,0,0-1.33.6,2.56,2.56,0,0,0-.48,1.66h0a2,2,0,0,0,.48,1.44,2,2,0,0,0,2.68,0Z" transform="translate(0.08)"/><path class="cls-3" d="M795.63,50.39a4.86,4.86,0,0,1-1.33-3.64V38.81a4.86,4.86,0,0,1,1.34-3.65,6.44,6.44,0,0,1,7.77,0,4.87,4.87,0,0,1,1.34,3.66v7.94a4.85,4.85,0,0,1-1.34,3.65,5.37,5.37,0,0,1-3.89,1.31A5.31,5.31,0,0,1,795.63,50.39ZM801,47.86a3.42,3.42,0,0,0,.47-2V39.65A3.42,3.42,0,0,0,801,37.7a1.67,1.67,0,0,0-1.47-.68,1.66,1.66,0,0,0-1.46.68,3.42,3.42,0,0,0-.47,1.95v6.26a3.42,3.42,0,0,0,.47,2,1.66,1.66,0,0,0,1.46.68A1.67,1.67,0,0,0,801,47.86Z" transform="translate(0.08)"/></g><g class="cls-2"><path class="cls-3" d="M264.43,22.73h3.29V40.19h-3.29ZM265.9,37h10.23v3.17H265.9Z" transform="translate(0.08)"/><path class="cls-3" d="M281.83,40.37l-1.28-.66a4.44,4.44,0,0,1-1.95-1.91,6.27,6.27,0,0,1-.67-3v-1.4a7.1,7.1,0,0,1,.64-3.16,4.45,4.45,0,0,1,1.87-2,6,6,0,0,1,3-.69,4.77,4.77,0,0,1,2.8.82A4.94,4.94,0,0,1,288,30.73a10.23,10.23,0,0,1,.61,3.75v.82h-8.53V33.08h5.53l0-.29a2.88,2.88,0,0,0-.68-1.67,1.9,1.9,0,0,0-1.46-.59,2.4,2.4,0,0,0-1.84.71,2.87,2.87,0,0,0-.65,2v1.58a2.64,2.64,0,0,0,.71,2,2.77,2.77,0,0,0,2,.7,3.74,3.74,0,0,0,1.31-.24,4.16,4.16,0,0,0,1.18-.66l2.15,1.9a7,7,0,0,1-2.19,1.38,6.61,6.61,0,0,1-2.45.49Z" transform="translate(0.08)"/><path class="cls-3" d="M295.12,40.37l-1.06-.2a9.68,9.68,0,0,1-2-.59,7.12,7.12,0,0,1-1.63-.92l2-2.53a8.27,8.27,0,0,0,1.88.89,6.48,6.48,0,0,0,1.88.31,5,5,0,0,0,1.79-.26c.42-.17.63-.41.63-.71a.77.77,0,0,0-.27-.64,1.78,1.78,0,0,0-.71-.31,12.16,12.16,0,0,0-1.21-.16l-.44,0-.45,0-.11,0h-.1a14.1,14.1,0,0,1-2.23-.44,2.86,2.86,0,0,1-1.42-1,3.47,3.47,0,0,1-.59-2.18A3.52,3.52,0,0,1,293.48,28a7.3,7.3,0,0,1,2.76-.47,9.48,9.48,0,0,1,5.29,1.61l-2,2.39a8.15,8.15,0,0,0-1.7-.71,6.54,6.54,0,0,0-1.7-.25,4.18,4.18,0,0,0-1.55.23c-.37.15-.56.36-.56.64a.53.53,0,0,0,.3.48,2,2,0,0,0,.73.25c.29.06.72.11,1.28.18l.22,0,.21,0H297a15.37,15.37,0,0,1,2.36.43,3.11,3.11,0,0,1,1.56,1.06,3.62,3.62,0,0,1,.64,2.33,3.66,3.66,0,0,1-2.45,3.63,7.76,7.76,0,0,1-2.89.49Z" transform="translate(0.08)"/><path class="cls-3" d="M307.87,40.37l-1.06-.2a9.68,9.68,0,0,1-2-.59,7.12,7.12,0,0,1-1.63-.92l2-2.53a8.27,8.27,0,0,0,1.88.89,6.48,6.48,0,0,0,1.88.31,5,5,0,0,0,1.79-.26c.42-.17.63-.41.63-.71a.77.77,0,0,0-.27-.64,1.78,1.78,0,0,0-.71-.31,12.16,12.16,0,0,0-1.21-.16l-.44,0-.45,0-.11,0h-.1a14.1,14.1,0,0,1-2.23-.44,2.86,2.86,0,0,1-1.42-1,3.47,3.47,0,0,1-.59-2.18A3.52,3.52,0,0,1,306.23,28a7.3,7.3,0,0,1,2.76-.47,9.48,9.48,0,0,1,5.29,1.61l-2,2.39a8.15,8.15,0,0,0-1.7-.71,6.54,6.54,0,0,0-1.7-.25,4.18,4.18,0,0,0-1.55.23c-.37.15-.56.36-.56.64a.53.53,0,0,0,.3.48,2,2,0,0,0,.73.25c.29.06.72.11,1.28.18l.22,0,.21,0h.22a15.37,15.37,0,0,1,2.36.43,3.11,3.11,0,0,1,1.56,1.06,3.62,3.62,0,0,1,.64,2.33,3.66,3.66,0,0,1-2.45,3.63,7.76,7.76,0,0,1-2.89.49Z" transform="translate(0.08)"/><path class="cls-3" d="M319.08,39.73a4.19,4.19,0,0,1-1.84-1.86,6.31,6.31,0,0,1-.63-2.93v-2a6.21,6.21,0,0,1,.63-2.9,4.25,4.25,0,0,1,1.84-1.84,7,7,0,0,1,5.82,0A4.25,4.25,0,0,1,326.74,30a6.21,6.21,0,0,1,.63,2.9V35a6.26,6.26,0,0,1-.63,2.92,4.25,4.25,0,0,1-1.84,1.84,6.94,6.94,0,0,1-5.82,0Zm4.45-3.12a2.3,2.3,0,0,0,.55-1.64V32.91a2.27,2.27,0,0,0-.55-1.62,2.07,2.07,0,0,0-1.55-.58,2,2,0,0,0-1.53.58,2.22,2.22,0,0,0-.55,1.62V35a2.3,2.3,0,0,0,.54,1.64,2,2,0,0,0,1.54.59A2,2,0,0,0,323.53,36.61Z" transform="translate(0.08)"/><path class="cls-3" d="M330.37,27.72h3.29V40.19h-3.29Zm7.2,4.91a1.86,1.86,0,0,0-.52-1.41,2,2,0,0,0-1.48-.51,1.87,1.87,0,0,0-1.41.51,2,2,0,0,0-.5,1.44l-.25-2.76a4.51,4.51,0,0,1,1.35-1.77,3.2,3.2,0,0,1,2-.59,3.72,3.72,0,0,1,3,1.33,5.78,5.78,0,0,1,1.08,3.75v7.57h-3.29Z" transform="translate(0.08)"/><path class="cls-3" d="M347.75,40.37l-1.05-.2a9.32,9.32,0,0,1-2-.59,7.19,7.19,0,0,1-1.64-.92l2-2.53A8.14,8.14,0,0,0,347,37a6.41,6.41,0,0,0,1.87.31,5,5,0,0,0,1.79-.26c.42-.17.64-.41.64-.71a.78.78,0,0,0-.28-.64,1.72,1.72,0,0,0-.71-.31,12.16,12.16,0,0,0-1.21-.16l-.44,0-.45,0-.1,0H348a14.26,14.26,0,0,1-2.24-.44,2.9,2.9,0,0,1-1.42-1,3.48,3.48,0,0,1-.58-2.18,3.71,3.71,0,0,1,.6-2.13A3.61,3.61,0,0,1,346.11,28a7.3,7.3,0,0,1,2.76-.47,9.58,9.58,0,0,1,5.3,1.61l-2,2.39a8.23,8.23,0,0,0-1.71-.71,6.54,6.54,0,0,0-1.7-.25,4.22,4.22,0,0,0-1.55.23c-.37.15-.55.36-.55.64a.54.54,0,0,0,.29.48,2.09,2.09,0,0,0,.73.25c.3.06.72.11,1.28.18l.22,0,.21,0h.22a15.53,15.53,0,0,1,2.37.43,3.12,3.12,0,0,1,1.55,1.06,3.62,3.62,0,0,1,.64,2.33,3.66,3.66,0,0,1-2.45,3.63,7.76,7.76,0,0,1-2.89.49Z" transform="translate(0.08)"/><path class="cls-3" d="M356.31,27.84h3.29v3.29h-3.29Zm0,9.06h3.29v3.29h-3.29Z" transform="translate(0.08)"/><path class="cls-3" d="M373.6,40.19h-3.29V26.59l-2.12.81V23.91l2.6-1.18h2.81Z" transform="translate(0.08)"/><path class="cls-3" d="M378.42,39.05a4.88,4.88,0,0,1-1.34-3.64V27.47a4.85,4.85,0,0,1,1.34-3.65,6.45,6.45,0,0,1,7.78,0,4.89,4.89,0,0,1,1.33,3.66v7.94a4.86,4.86,0,0,1-1.34,3.65,6.4,6.4,0,0,1-7.77,0Zm5.35-2.53a3.42,3.42,0,0,0,.47-2V28.31a3.42,3.42,0,0,0-.47-1.95,1.92,1.92,0,0,0-2.93,0,3.42,3.42,0,0,0-.47,1.95v6.26a3.42,3.42,0,0,0,.47,2,1.92,1.92,0,0,0,2.93,0Z" transform="translate(0.08)"/><path class="cls-3" d="M393.24,39.75a4.65,4.65,0,0,1-1.8-1.8,6.46,6.46,0,0,1-.79-2.81h3.29a2.5,2.5,0,0,0,.59,1.5,1.69,1.69,0,0,0,1.28.53,1.66,1.66,0,0,0,1.34-.56,2.41,2.41,0,0,0,.48-1.6V33.55A2.59,2.59,0,0,0,397.2,32,1.39,1.39,0,0,0,396,31.4a2,2,0,0,0-1.21.36,1.84,1.84,0,0,0-.69,1H391v-10h9.37V25.9h-6.09V29a2.62,2.62,0,0,1,1-.57,4.08,4.08,0,0,1,1.28-.21,4.15,4.15,0,0,1,2.32.63,3.78,3.78,0,0,1,1.47,1.82,7.41,7.41,0,0,1,.51,2.9V35a6.39,6.39,0,0,1-.61,2.89,4.13,4.13,0,0,1-1.76,1.84,5.74,5.74,0,0,1-2.78.63A5.18,5.18,0,0,1,393.24,39.75Z" transform="translate(0.08)"/></g><path class="cls-4" d="M863.42,40.93v-.19h0s0,0,0,0a1.91,1.91,0,0,0-.31-.84.41.41,0,0,0-.2-.46c.08-.13,0-.26,0-.39a22,22,0,0,1-1.15-3.65c-.47-2.49-.12-4.81,2.33-6.68-3.17.67-6,1.67-7.12,4.45-.06-1.34.45-7-2.27-11.37C853,18.94,847,17.43,846,12.63a3.34,3.34,0,0,0-.57,1,5.84,5.84,0,0,0,.26,4.27c2.79,6.25.51,9.41-.59,11.07a12.34,12.34,0,0,1-2.36,2.72c-.18-.15,0-.29,0-.42a8.18,8.18,0,0,0,.61-4.91,4.39,4.39,0,0,0-.89-2.09.35.35,0,0,0-.26.24c-.51,1.41-1.57,4.71-2.66,5.86-.88.93-1.87,1.78-2.71,2.74a13,13,0,0,0-2.22,3.73,3.81,3.81,0,0,0-.39,1.43,6.79,6.79,0,0,0-.51,2.76,11.13,11.13,0,0,0,1.21,5.67,10.28,10.28,0,0,0,3,3.57,15.25,15.25,0,0,0,6.29,2.79c4.82,1,19.86-.07,19.52-11.19A2.42,2.42,0,0,0,863.42,40.93Z" transform="translate(0.08)"/><g class="cls-2"><path class="cls-3" d="M907.22,22.18H920.7v3.34H907.22Zm5,1.5h3.47V40.57h-3.47Z" transform="translate(0.08)"/><path class="cls-3" d="M922,22.18h3.46V40.57H922Zm7.59,10.43a2,2,0,0,0-.55-1.49,2.18,2.18,0,0,0-1.56-.53,2,2,0,0,0-1.49.54,2.07,2.07,0,0,0-.53,1.51l-.26-2.91a4.92,4.92,0,0,1,1.42-1.86,3.4,3.4,0,0,1,2.08-.62,3.92,3.92,0,0,1,3.22,1.4,6.15,6.15,0,0,1,1.13,4v8h-3.46Z" transform="translate(0.08)"/><path class="cls-3" d="M936.25,22.18h3.46v3.46h-3.46Zm0,5.26h3.46V40.57h-3.46Z" transform="translate(0.08)"/><path class="cls-3" d="M946.79,40.76l-1.12-.21a10.46,10.46,0,0,1-2.08-.61,7.5,7.5,0,0,1-1.72-1L944,36.29a8.39,8.39,0,0,0,2,.94,6.5,6.5,0,0,0,2,.33,5.26,5.26,0,0,0,1.89-.27c.44-.18.67-.43.67-.75a.8.8,0,0,0-.29-.67,1.84,1.84,0,0,0-.75-.33,12.72,12.72,0,0,0-1.28-.17l-.46,0-.47,0-.11,0h-.11a15.07,15.07,0,0,1-2.35-.47,3,3,0,0,1-1.5-1.07,3.69,3.69,0,0,1-.61-2.3,4,4,0,0,1,.63-2.25,3.89,3.89,0,0,1,1.83-1.42,7.63,7.63,0,0,1,2.91-.49,10.25,10.25,0,0,1,2,.2,10.09,10.09,0,0,1,1.91.59,8.46,8.46,0,0,1,1.68.91l-2.06,2.51a7.85,7.85,0,0,0-1.8-.74,6.43,6.43,0,0,0-1.79-.27,4.47,4.47,0,0,0-1.64.24c-.38.16-.58.39-.58.67a.57.57,0,0,0,.31.51,2.33,2.33,0,0,0,.77.27c.31,0,.76.12,1.35.18l.23,0,.23,0,.11,0h.11a16.85,16.85,0,0,1,2.5.45A3.24,3.24,0,0,1,952.91,34a3.75,3.75,0,0,1,.68,2.45A3.89,3.89,0,0,1,951,40.25a8.14,8.14,0,0,1-3,.51Z" transform="translate(0.08)"/><path class="cls-3" d="M962.19,27.44h3.33l2.33,8.11,2.77-8.11h2l2.77,8.11,2.32-8.11h3.33L977,40.57h-2.58L971.64,32l-2.82,8.56h-2.58Z" transform="translate(0.08)"/><path class="cls-3" d="M986.84,40.76l-1.34-.69a4.76,4.76,0,0,1-2.06-2,6.67,6.67,0,0,1-.71-3.18V33.4a7.52,7.52,0,0,1,.68-3.33,4.72,4.72,0,0,1,2-2.1,6.38,6.38,0,0,1,3.13-.72,5,5,0,0,1,3,.86,5.32,5.32,0,0,1,1.87,2.5,11,11,0,0,1,.64,4v.86h-9V33.08h5.81l0-.3a3.06,3.06,0,0,0-.72-1.76,2,2,0,0,0-1.54-.62,2.51,2.51,0,0,0-1.94.75,3,3,0,0,0-.69,2.11v1.67a2.73,2.73,0,0,0,.76,2.07,2.88,2.88,0,0,0,2.1.74,4.24,4.24,0,0,0,2.62-1l2.27,2a7.76,7.76,0,0,1-2.31,1.45,6.89,6.89,0,0,1-2.58.51Z" transform="translate(0.08)"/><path class="cls-3" d="M1000.73,40.76l-1.34-.69a4.71,4.71,0,0,1-2.06-2,6.67,6.67,0,0,1-.71-3.18V33.4a7.52,7.52,0,0,1,.68-3.33,4.72,4.72,0,0,1,2-2.1,6.38,6.38,0,0,1,3.13-.72,5,5,0,0,1,3,.86,5.32,5.32,0,0,1,1.87,2.5,11,11,0,0,1,.64,4v.86h-9V33.08h5.82l0-.3a3.13,3.13,0,0,0-.72-1.76,2,2,0,0,0-1.54-.62,2.51,2.51,0,0,0-1.94.75,3,3,0,0,0-.69,2.11v1.67a2.73,2.73,0,0,0,.76,2.07,2.88,2.88,0,0,0,2.1.74,4.24,4.24,0,0,0,2.62-1l2.26,2a7.59,7.59,0,0,1-2.3,1.45,6.89,6.89,0,0,1-2.58.51Z" transform="translate(0.08)"/><path class="cls-3" d="M1010.89,22.18h3.47V40.57h-3.47Zm1.62,13.66,6.12-8.4h3.67L1013,39.66Zm3.11-2.05,2.86-1.72,4.46,8.5h-4Z" transform="translate(0.08)"/><path class="cls-3" d="M1024,27.57h3.47V31H1024Zm0,9.53h3.47v3.47H1024Z" transform="translate(0.08)"/><path class="cls-3" d="M1045.22,22.18H1048l3.52,12.27,2.36-12.27h3.57l-4.24,18.39H1050l-3.26-12.85-3.42,12.85H1040l-4.24-18.39h3.57l2.36,12.27Z" transform="translate(0.08)"/><path class="cls-3" d="M1058.72,27.44h3.71V40.57h-3.71Zm6.76,3.28a2.39,2.39,0,0,0-.84-.13,2,2,0,0,0-1.63.68,2.82,2.82,0,0,0-.58,1.88l-.26-3.42a4.72,4.72,0,0,1,1.41-1.83,3.12,3.12,0,0,1,1.9-.65,4.12,4.12,0,0,1,1.49.26,3.23,3.23,0,0,1,1.16.77l-2,2.82A1.51,1.51,0,0,0,1065.48,30.72Z" transform="translate(0.08)"/><path class="cls-3" d="M1069.58,22.18h3.47v3.46h-3.47Zm0,5.26h3.47V40.57h-3.47Z" transform="translate(0.08)"/><path class="cls-3" d="M1075.26,27.44h6.43v3h-6.43Zm2.16,12.31a3.69,3.69,0,0,1-.81-2.59V23.62h3.47V36.29a1.24,1.24,0,0,0,.19.75.65.65,0,0,0,.56.25h.86v3.34h-1.75A3.23,3.23,0,0,1,1077.42,39.75Z" transform="translate(0.08)"/><path class="cls-3" d="M1084.53,22.18H1088v3.46h-3.47Zm0,5.26H1088V40.57h-3.47Z" transform="translate(0.08)"/><path class="cls-3" d="M1091.22,27.44h3.47V40.57h-3.47Zm7.59,5.17a2,2,0,0,0-.55-1.49,2.17,2.17,0,0,0-1.56-.53,2,2,0,0,0-1.49.54,2.07,2.07,0,0,0-.52,1.51l-.27-2.91a4.84,4.84,0,0,1,1.43-1.86,3.38,3.38,0,0,1,2.08-.62,3.92,3.92,0,0,1,3.21,1.4,6.09,6.09,0,0,1,1.14,4v8h-3.47Z" transform="translate(0.08)"/><path class="cls-3" d="M1107.34,40.09a4.19,4.19,0,0,1-1.51-1.94,8.24,8.24,0,0,1-.52-3.07V33a8.45,8.45,0,0,1,.52-3.1,3.93,3.93,0,0,1,3.9-2.63,3.15,3.15,0,0,1,1.91.63,4.34,4.34,0,0,1,1.4,1.77l-.26,2.91a2.66,2.66,0,0,0-.23-1.14,1.62,1.62,0,0,0-.66-.71,2.21,2.21,0,0,0-1.06-.25,1.85,1.85,0,0,0-1.51.67,2.86,2.86,0,0,0-.54,1.86v2.09a2.75,2.75,0,0,0,.54,1.82,1.86,1.86,0,0,0,1.51.65,2.21,2.21,0,0,0,1.06-.24,1.55,1.55,0,0,0,.66-.7,2.45,2.45,0,0,0,.23-1.1l.17,3a3.41,3.41,0,0,1-1.24,1.66,3.34,3.34,0,0,1-2,.59A4.17,4.17,0,0,1,1107.34,40.09Zm1.44,5.82-1.23-.55a4.51,4.51,0,0,1-1.92-1.55l2.33-2.14a2.94,2.94,0,0,0,1.06.74,3.34,3.34,0,0,0,1.29.26,2.65,2.65,0,0,0,1.78-.59,2.07,2.07,0,0,0,.69-1.65v-13h3.46V40.18a6.51,6.51,0,0,1-.69,3.1,4.59,4.59,0,0,1-2,2,7.06,7.06,0,0,1-3.19.67Z" transform="translate(0.08)"/><path class="cls-3" d="M1130.23,33.27a3.11,3.11,0,0,0-.73,2.22,1.89,1.89,0,0,0,.78,1.62,3.66,3.66,0,0,0,2.22.58,3.6,3.6,0,0,0,2.36-.82,5.06,5.06,0,0,0,1.51-2.33,11,11,0,0,0,.52-3.54h3.33a12.92,12.92,0,0,1-1,5.21,7.29,7.29,0,0,1-2.82,3.37,8.21,8.21,0,0,1-4.51,1.18,7.08,7.08,0,0,1-3.08-.62,4.29,4.29,0,0,1-1.94-1.8,5.67,5.67,0,0,1-.67-2.85,5,5,0,0,1,1.3-3.61,5.72,5.72,0,0,1,3.69-1.57l1.06,2.18A2.67,2.67,0,0,0,1130.23,33.27Zm.58,0a12.65,12.65,0,0,1-1.53-2,8.47,8.47,0,0,1-.93-2,7.48,7.48,0,0,1-.32-2.16,5,5,0,0,1,1.35-3.74,6.3,6.3,0,0,1,7.65-.05,4.71,4.71,0,0,1,1.35,3.6v.5h-3.47v-.5a3,3,0,0,0-.44-1.74,1.46,1.46,0,0,0-1.25-.62,1.76,1.76,0,0,0-1.46.67,3,3,0,0,0-.52,1.88,4.17,4.17,0,0,0,.33,1.5,9.37,9.37,0,0,0,1,1.75,17.19,17.19,0,0,0,1.5,1.89l7.57,8.34h-3.9Z" transform="translate(0.08)"/><path class="cls-3" d="M1150.71,22.18h3.47V40.57h-3.47Zm1.58,7.92h5.88a2.1,2.1,0,0,0,1.1-.29,2,2,0,0,0,.74-.8,2.54,2.54,0,0,0,.26-1.19,2.63,2.63,0,0,0-.26-1.21,1.85,1.85,0,0,0-.73-.81,2.11,2.11,0,0,0-1.11-.28h-5.88V22.18h5.8a6.33,6.33,0,0,1,3,.7,5.09,5.09,0,0,1,2,2,5.93,5.93,0,0,1,.72,3,5.86,5.86,0,0,1-.72,2.95,5,5,0,0,1-2,2,6.45,6.45,0,0,1-3,.7h-5.8Z" transform="translate(0.08)"/><path class="cls-3" d="M1169.42,35.42a2,2,0,0,0,.54,1.48,2.07,2.07,0,0,0,1.51.52,2,2,0,0,0,1.5-.54,2.1,2.1,0,0,0,.52-1.53l.18,2.87a4.16,4.16,0,0,1-1.22,1.81,3.07,3.07,0,0,1-2.08.73,4,4,0,0,1-3.27-1.36,5.84,5.84,0,0,1-1.15-3.85V27.44h3.47Zm4.07-8H1177V40.57h-3.46Z" transform="translate(0.08)"/><path class="cls-3" d="M1180.36,22.18h3.47V40.57h-3.47Zm4.53,18a3.41,3.41,0,0,1-1.24-1.66l.18-3a2.45,2.45,0,0,0,.22,1.1,1.62,1.62,0,0,0,.67.7,2.14,2.14,0,0,0,1,.24,1.88,1.88,0,0,0,1.52-.65,2.8,2.8,0,0,0,.53-1.82V33a2.92,2.92,0,0,0-.53-1.86,1.87,1.87,0,0,0-1.52-.67,2.15,2.15,0,0,0-1,.25,1.7,1.7,0,0,0-.67.71,2.67,2.67,0,0,0-.22,1.14l-.27-2.91a4.42,4.42,0,0,1,1.4-1.77,3.18,3.18,0,0,1,1.92-.63,4.13,4.13,0,0,1,2.38.67,4.2,4.2,0,0,1,1.51,2,8.24,8.24,0,0,1,.52,3.1v2.1a8,8,0,0,1-.52,3.07,4.19,4.19,0,0,1-1.51,1.94,4.13,4.13,0,0,1-2.38.67A3.39,3.39,0,0,1,1184.89,40.17Z" transform="translate(0.08)"/><path class="cls-3" d="M1197.92,36.23a1,1,0,0,0,.27.74,1.1,1.1,0,0,0,.78.26h.58v3.34h-1.77a3.24,3.24,0,0,1-2.46-.91,3.57,3.57,0,0,1-.87-2.57V22.18h3.47Z" transform="translate(0.08)"/><path class="cls-3" d="M1201.76,22.18h3.47v3.46h-3.47Zm0,5.26h3.47V40.57h-3.47Z" transform="translate(0.08)"/><path class="cls-3" d="M1212.3,40.76l-1.11-.21a10.36,10.36,0,0,1-2.09-.61,7.72,7.72,0,0,1-1.72-1l2.14-2.67a8.15,8.15,0,0,0,2,.94,6.5,6.5,0,0,0,2,.33,5.26,5.26,0,0,0,1.89-.27c.45-.18.67-.43.67-.75a.8.8,0,0,0-.29-.67,1.78,1.78,0,0,0-.75-.33c-.3-.06-.73-.12-1.27-.17l-.47,0-.47,0-.11,0h-.11a15.32,15.32,0,0,1-2.35-.47,3,3,0,0,1-1.5-1.07,3.69,3.69,0,0,1-.61-2.3,4,4,0,0,1,.63-2.25,3.87,3.87,0,0,1,1.84-1.42,7.62,7.62,0,0,1,2.9-.49,10.36,10.36,0,0,1,2,.2,10.22,10.22,0,0,1,1.9.59,8.46,8.46,0,0,1,1.68.91L1217,31.46a8,8,0,0,0-1.79-.74,6.55,6.55,0,0,0-1.8-.27,4.41,4.41,0,0,0-1.63.24c-.39.16-.58.39-.58.67a.56.56,0,0,0,.31.51,2.17,2.17,0,0,0,.77.27c.31,0,.75.12,1.34.18l.23,0,.23,0,.11,0h.12a16.68,16.68,0,0,1,2.49.45,3.26,3.26,0,0,1,1.64,1.12,3.81,3.81,0,0,1,.67,2.45,4.15,4.15,0,0,1-.65,2.34,4.08,4.08,0,0,1-1.93,1.49,8.14,8.14,0,0,1-3,.51Z" transform="translate(0.08)"/><path class="cls-3" d="M1221.89,22.18h3.46V40.57h-3.46Zm7.59,10.43a2,2,0,0,0-.56-1.49,2.15,2.15,0,0,0-1.56-.53,2,2,0,0,0-1.48.54,2.07,2.07,0,0,0-.53,1.51l-.26-2.91a4.82,4.82,0,0,1,1.42-1.86,3.38,3.38,0,0,1,2.08-.62,3.92,3.92,0,0,1,3.21,1.4,6.09,6.09,0,0,1,1.14,4v8h-3.46Z" transform="translate(0.08)"/><path class="cls-3" d="M1236.17,22.18h3.46v3.46h-3.46Zm0,5.26h3.46V40.57h-3.46Z" transform="translate(0.08)"/><path class="cls-3" d="M1242.86,27.44h3.46V40.57h-3.46Zm7.59,5.17a2,2,0,0,0-.55-1.49,2.18,2.18,0,0,0-1.56-.53,2,2,0,0,0-1.49.54,2.07,2.07,0,0,0-.53,1.51l-.26-2.91a4.92,4.92,0,0,1,1.42-1.86,3.4,3.4,0,0,1,2.08-.62,3.92,3.92,0,0,1,3.22,1.4,6.15,6.15,0,0,1,1.13,4v8h-3.46Z" transform="translate(0.08)"/><path class="cls-3" d="M1259,40.09a4.13,4.13,0,0,1-1.51-1.94,8,8,0,0,1-.52-3.07V33a8.24,8.24,0,0,1,.52-3.1,3.93,3.93,0,0,1,3.89-2.63,3.2,3.2,0,0,1,1.92.63,4.42,4.42,0,0,1,1.4,1.77l-.27,2.91a2.52,2.52,0,0,0-.23-1.14,1.62,1.62,0,0,0-.66-.71,2.16,2.16,0,0,0-1.06-.25,1.85,1.85,0,0,0-1.51.67,2.86,2.86,0,0,0-.53,1.86v2.09a2.74,2.74,0,0,0,.53,1.82,1.86,1.86,0,0,0,1.51.65,2.16,2.16,0,0,0,1.06-.24,1.55,1.55,0,0,0,.66-.7,2.32,2.32,0,0,0,.23-1.1l.18,3a3.29,3.29,0,0,1-3.23,2.25A4.13,4.13,0,0,1,1259,40.09Zm1.44,5.82-1.24-.55a4.48,4.48,0,0,1-1.91-1.55l2.32-2.14a3,3,0,0,0,1.07.74,3.34,3.34,0,0,0,1.29.26,2.64,2.64,0,0,0,1.77-.59,2.07,2.07,0,0,0,.69-1.65v-13h3.47V40.18a6.51,6.51,0,0,1-.69,3.1,4.59,4.59,0,0,1-2,2,7.1,7.1,0,0,1-3.2.67Z" transform="translate(0.08)"/><path class="cls-3" d="M1277.85,37.45l6.31-8.3a4.61,4.61,0,0,0,.66-1.15,2.87,2.87,0,0,0,.24-1.09v0a1.43,1.43,0,0,0-.48-1.15,2.09,2.09,0,0,0-1.37-.4,1.82,1.82,0,0,0-1.39.56,2.7,2.7,0,0,0-.65,1.6h-3.55a6.62,6.62,0,0,1,.83-3,4.87,4.87,0,0,1,1.93-1.89,5.85,5.85,0,0,1,2.8-.65,7,7,0,0,1,2.94.56,4,4,0,0,1,1.86,1.64,5,5,0,0,1,.64,2.59v0a7.4,7.4,0,0,1-.43,2.48,7.78,7.78,0,0,1-1.22,2.23l-4.53,5.72h6.28v3.34h-10.87Z" transform="translate(0.08)"/><path class="cls-3" d="M1291.74,29.21a3.2,3.2,0,0,1-.87-2.39V25.24a3.16,3.16,0,0,1,.87-2.38,3.92,3.92,0,0,1,4.9,0,3.24,3.24,0,0,1,.86,2.41v1.55a3.17,3.17,0,0,1-.87,2.39,3.31,3.31,0,0,1-2.44.85A3.38,3.38,0,0,1,1291.74,29.21Zm10.39-7h3.15l-9.61,18.39h-3.15Zm-7.52,5.07a.85.85,0,0,0,.15-.54V25.32a.82.82,0,0,0-.15-.52.52.52,0,0,0-.42-.18.52.52,0,0,0-.43.18.94.94,0,0,0-.14.54v1.37a1,1,0,0,0,.14.55.52.52,0,0,0,.43.18A.5.5,0,0,0,1294.61,27.25Zm6.27,12.66a3.24,3.24,0,0,1-.86-2.39V35.94a3.21,3.21,0,0,1,.86-2.38,3.93,3.93,0,0,1,4.91,0,3.26,3.26,0,0,1,.86,2.41v1.55a3.17,3.17,0,0,1-.87,2.39,4,4,0,0,1-4.9,0Zm2.88-2a.91.91,0,0,0,.14-.54V36a.89.89,0,0,0-.14-.52.52.52,0,0,0-.43-.18.52.52,0,0,0-.42.18.87.87,0,0,0-.15.54v1.37a.86.86,0,0,0,.15.55.52.52,0,0,0,.42.18A.5.5,0,0,0,1303.76,38Z" transform="translate(0.08)"/></g><polygon class="cls-4" points="1361.08 44 1321.92 44 1341.5 16.89 1361.08 44"/></svg>